<svg xmlns="http://www.w3.org/2000/svg" viewBox="0 -0.5 440 440" shape-rendering="crispEdges">
<metadata>Made with Pixels to Svg http://codepen.io/shshaw/pen/XbxvNj</metadata>
<path stroke="#8ac6d6" d="M0 0h440M0 1h440M0 2h440M0 3h440M0 4h440M0 5h440M0 6h440M0 7h440M0 8h440M0 9h440" />
<path stroke="#87b9c7" d="M0 10h440M0 11h440M0 12h440M0 13h440M0 14h440M0 15h440M0 16h440M0 17h440M0 18h440M0 19h440" />
<path stroke="#87aee5" d="M0 20h440M0 21h440M0 22h440M0 23h440M0 24h440M0 25h440M0 26h440M0 27h440M0 28h440M0 29h440" />
<path stroke="#88b6f4" d="M0 30h440M0 31h440M0 32h440M0 33h440M0 34h440M0 35h440M0 36h440M0 37h440M0 38h440M0 39h440M0 40h440M0 41h440M0 42h440M0 43h440M0 44h440M0 45h440M0 46h440M0 47h440M0 48h440M0 49h440M0 50h280M360 50h80M0 51h280M360 51h80M0 52h280M360 52h80M0 53h280M360 53h80M0 54h280M360 54h80M0 55h280M360 55h80M0 56h280M360 56h80M0 57h280M360 57h80M0 58h280M360 58h80M0 59h280M360 59h80M70 60h20M290 60h10M70 61h20M290 61h10M70 62h20M290 62h10M70 63h20M290 63h10M70 64h20M290 64h10M70 65h20M290 65h10M70 66h20M290 66h10M70 67h20M290 67h10M70 68h20M290 68h10M70 69h20M290 69h10" />
<path stroke="#8ebdfc" d="M280 50h80M280 51h80M280 52h80M280 53h80M280 54h80M280 55h80M280 56h80M280 57h80M280 58h80M280 59h80M0 60h70M90 60h200M300 60h140M0 61h70M90 61h200M300 61h140M0 62h70M90 62h200M300 62h140M0 63h70M90 63h200M300 63h140M0 64h70M90 64h200M300 64h140M0 65h70M90 65h200M300 65h140M0 66h70M90 66h200M300 66h140M0 67h70M90 67h200M300 67h140M0 68h70M90 68h200M300 68h140M0 69h70M90 69h200M300 69h140M0 70h440M0 71h440M0 72h440M0 73h440M0 74h440M0 75h440M0 76h440M0 77h440M0 78h440M0 79h440M0 80h80M120 80h170M330 80h110M0 81h80M120 81h170M330 81h110M0 82h80M120 82h170M330 82h110M0 83h80M120 83h170M330 83h110M0 84h80M120 84h170M330 84h110M0 85h80M120 85h170M330 85h110M0 86h80M120 86h170M330 86h110M0 87h80M120 87h170M330 87h110M0 88h80M120 88h170M330 88h110M0 89h80M120 89h170M330 89h110" />
<path stroke="#a9cefd" d="M80 80h40M290 80h40M80 81h40M290 81h40M80 82h40M290 82h40M80 83h40M290 83h40M80 84h40M290 84h40M80 85h40M290 85h40M80 86h40M290 86h40M80 87h40M290 87h40M80 88h40M290 88h40M80 89h40M290 89h40M0 90h440M0 91h440M0 92h440M0 93h440M0 94h440M0 95h440M0 96h440M0 97h440M0 98h440M0 99h440M0 100h440M0 101h440M0 102h440M0 103h440M0 104h440M0 105h440M0 106h440M0 107h440M0 108h440M0 109h440M0 110h440M0 111h440M0 112h440M0 113h440M0 114h440M0 115h440M0 116h440M0 117h440M0 118h440M0 119h440M0 120h120M130 120h240M400 120h40M0 121h120M130 121h240M400 121h40M0 122h120M130 122h240M400 122h40M0 123h120M130 123h240M400 123h40M0 124h120M130 124h240M400 124h40M0 125h120M130 125h240M400 125h40M0 126h120M130 126h240M400 126h40M0 127h120M130 127h240M400 127h40M0 128h120M130 128h240M400 128h40M0 129h120M130 129h240M400 129h40M160 130h20M220 130h30M310 130h20M160 131h20M220 131h30M310 131h20M160 132h20M220 132h30M310 132h20M160 133h20M220 133h30M310 133h20M160 134h20M220 134h30M310 134h20M160 135h20M220 135h30M310 135h20M160 136h20M220 136h30M310 136h20M160 137h20M220 137h30M310 137h20M160 138h20M220 138h30M310 138h20M160 139h20M220 139h30M310 139h20M0 140h440M0 141h440M0 142h440M0 143h440M0 144h440M0 145h440M0 146h440M0 147h440M0 148h440M0 149h440M0 150h150M200 150h240M0 151h150M200 151h240M0 152h150M200 152h240M0 153h150M200 153h240M0 154h150M200 154h240M0 155h150M200 155h240M0 156h150M200 156h240M0 157h150M200 157h240M0 158h150M200 158h240M0 159h150M200 159h240" />
<path stroke="#9ac6fc" d="M120 120h10M370 120h30M120 121h10M370 121h30M120 122h10M370 122h30M120 123h10M370 123h30M120 124h10M370 124h30M120 125h10M370 125h30M120 126h10M370 126h30M120 127h10M370 127h30M120 128h10M370 128h30M120 129h10M370 129h30M0 130h160M180 130h40M250 130h60M330 130h110M0 131h160M180 131h40M250 131h60M330 131h110M0 132h160M180 132h40M250 132h60M330 132h110M0 133h160M180 133h40M250 133h60M330 133h110M0 134h160M180 134h40M250 134h60M330 134h110M0 135h160M180 135h40M250 135h60M330 135h110M0 136h160M180 136h40M250 136h60M330 136h110M0 137h160M180 137h40M250 137h60M330 137h110M0 138h160M180 138h40M250 138h60M330 138h110M0 139h160M180 139h40M250 139h60M330 139h110" />
<path stroke="#b9d7fd" d="M150 150h50M150 151h50M150 152h50M150 153h50M150 154h50M150 155h50M150 156h50M150 157h50M150 158h50M150 159h50M0 160h440M0 161h440M0 162h440M0 163h440M0 164h440M0 165h440M0 166h440M0 167h440M0 168h440M0 169h440M0 170h440M0 171h440M0 172h440M0 173h440M0 174h440M0 175h440M0 176h440M0 177h440M0 178h440M0 179h440M0 180h440M0 181h440M0 182h440M0 183h440M0 184h440M0 185h440M0 186h440M0 187h440M0 188h440M0 189h440M0 190h440M0 191h440M0 192h440M0 193h440M0 194h440M0 195h440M0 196h440M0 197h440M0 198h440M0 199h440M0 200h440M0 201h440M0 202h440M0 203h440M0 204h440M0 205h440M0 206h440M0 207h440M0 208h440M0 209h440M20 210h140M200 210h50M20 211h140M200 211h50M20 212h140M200 212h50M20 213h140M200 213h50M20 214h140M200 214h50M20 215h140M200 215h50M20 216h140M200 216h50M20 217h140M200 217h50M20 218h140M200 218h50M20 219h140M200 219h50M80 220h80M80 221h80M80 222h80M80 223h80M80 224h80M80 225h80M80 226h80M80 227h80M80 228h80M80 229h80" />
<path stroke="#c8dffe" d="M0 210h20M160 210h40M250 210h190M0 211h20M160 211h40M250 211h190M0 212h20M160 212h40M250 212h190M0 213h20M160 213h40M250 213h190M0 214h20M160 214h40M250 214h190M0 215h20M160 215h40M250 215h190M0 216h20M160 216h40M250 216h190M0 217h20M160 217h40M250 217h190M0 218h20M160 218h40M250 218h190M0 219h20M160 219h40M250 219h190M0 220h80M160 220h280M0 221h80M160 221h280M0 222h80M160 222h280M0 223h80M160 223h280M0 224h80M160 224h280M0 225h80M160 225h280M0 226h80M160 226h280M0 227h80M160 227h280M0 228h80M160 228h280M0 229h80M160 229h280M0 230h440M0 231h440M0 232h440M0 233h440M0 234h440M0 235h440M0 236h440M0 237h440M0 238h440M0 239h440M50 240h390M50 241h390M50 242h390M50 243h390M50 244h390M50 245h390M50 246h390M50 247h390M50 248h390M50 249h390M70 250h220M350 250h90M70 251h220M350 251h90M70 252h220M350 252h90M70 253h220M350 253h90M70 254h220M350 254h90M70 255h220M350 255h90M70 256h220M350 256h90M70 257h220M350 257h90M70 258h220M350 258h90M70 259h220M350 259h90M110 260h160M410 260h30M110 261h160M410 261h30M110 262h160M410 262h30M110 263h160M410 263h30M110 264h160M410 264h30M110 265h160M410 265h30M110 266h160M410 266h30M110 267h160M410 267h30M110 268h160M410 268h30M110 269h160M410 269h30" />
<path stroke="#d7e8fd" d="M0 240h50M0 241h50M0 242h50M0 243h50M0 244h50M0 245h50M0 246h50M0 247h50M0 248h50M0 249h50M0 250h70M290 250h60M0 251h70M290 251h60M0 252h70M290 252h60M0 253h70M290 253h60M0 254h70M290 254h60M0 255h70M290 255h60M0 256h70M290 256h60M0 257h70M290 257h60M0 258h70M290 258h60M0 259h70M290 259h60M10 260h100M270 260h140M10 261h100M270 261h140M10 262h100M270 262h140M10 263h100M270 263h140M10 264h100M270 264h140M10 265h100M270 265h140M10 266h100M270 266h140M10 267h100M270 267h140M10 268h100M270 268h140M10 269h100M270 269h140M10 270h430M10 271h430M10 272h430M10 273h430M10 274h430M10 275h430M10 276h430M10 277h430M10 278h430M10 279h430M10 280h430M10 281h430M10 282h430M10 283h430M10 284h430M10 285h430M10 286h430M10 287h430M10 288h430M10 289h430M70 290h370M70 291h370M70 292h370M70 293h370M70 294h370M70 295h370M70 296h370M70 297h370M70 298h370M70 299h370M110 300h200M370 300h70M110 301h200M370 301h70M110 302h200M370 302h70M110 303h200M370 303h70M110 304h200M370 304h70M110 305h200M370 305h70M110 306h200M370 306h70M110 307h200M370 307h70M110 308h200M370 308h70M110 309h200M370 309h70M410 310h30M410 311h30M410 312h30M410 313h30M410 314h30M410 315h30M410 316h30M410 317h30M410 318h30M410 319h30" />
<path stroke="#d7dafd" d="M0 260h10M0 261h10M0 262h10M0 263h10M0 264h10M0 265h10M0 266h10M0 267h10M0 268h10M0 269h10M0 270h10M0 271h10M0 272h10M0 273h10M0 274h10M0 275h10M0 276h10M0 277h10M0 278h10M0 279h10M0 280h10M0 281h10M0 282h10M0 283h10M0 284h10M0 285h10M0 286h10M0 287h10M0 288h10M0 289h10M0 290h70M0 291h70M0 292h70M0 293h70M0 294h70M0 295h70M0 296h70M0 297h70M0 298h70M0 299h70M0 300h110M310 300h60M0 301h110M310 301h60M0 302h110M310 302h60M0 303h110M310 303h60M0 304h110M310 304h60M0 305h110M310 305h60M0 306h110M310 306h60M0 307h110M310 307h60M0 308h110M310 308h60M0 309h110M310 309h60M0 310h410M0 311h410M0 312h410M0 313h410M0 314h410M0 315h410M0 316h410M0 317h410M0 318h410M0 319h410M0 320h440M0 321h440M0 322h440M0 323h440M0 324h440M0 325h440M0 326h440M0 327h440M0 328h440M0 329h440M10 330h430M10 331h430M10 332h430M10 333h430M10 334h430M10 335h430M10 336h430M10 337h430M10 338h430M10 339h430M50 340h70M170 340h170M420 340h20M50 341h70M170 341h170M420 341h20M50 342h70M170 342h170M420 342h20M50 343h70M170 343h170M420 343h20M50 344h70M170 344h170M420 344h20M50 345h70M170 345h170M420 345h20M50 346h70M170 346h170M420 346h20M50 347h70M170 347h170M420 347h20M50 348h70M170 348h170M420 348h20M50 349h70M170 349h170M420 349h20" />
<path stroke="#c7ccfd" d="M0 330h10M0 331h10M0 332h10M0 333h10M0 334h10M0 335h10M0 336h10M0 337h10M0 338h10M0 339h10M0 340h50M120 340h50M340 340h80M0 341h50M120 341h50M340 341h80M0 342h50M120 342h50M340 342h80M0 343h50M120 343h50M340 343h80M0 344h50M120 344h50M340 344h80M0 345h50M120 345h50M340 345h80M0 346h50M120 346h50M340 346h80M0 347h50M120 347h50M340 347h80M0 348h50M120 348h50M340 348h80M0 349h50M120 349h50M340 349h80M0 350h20M30 350h410M0 351h20M30 351h410M0 352h20M30 352h410M0 353h20M30 353h410M0 354h20M30 354h410M0 355h20M30 355h410M0 356h20M30 356h410M0 357h20M30 357h410M0 358h20M30 358h410M0 359h20M30 359h410M0 360h440M0 361h440M0 362h440M0 363h440M0 364h440M0 365h440M0 366h440M0 367h440M0 368h440M0 369h440M20 370h150M180 370h260M20 371h150M180 371h260M20 372h150M180 372h260M20 373h150M180 373h260M20 374h150M180 374h260M20 375h150M180 375h260M20 376h150M180 376h260M20 377h150M180 377h260M20 378h150M180 378h260M20 379h150M180 379h260M240 380h200M240 381h200M240 382h200M240 383h200M240 384h200M240 385h200M240 386h200M240 387h200M240 388h200M240 389h200M380 390h60M380 391h60M380 392h60M380 393h60M380 394h60M380 395h60M380 396h60M380 397h60M380 398h60M380 399h60" />
<path stroke="#b7befc" d="M20 350h10M20 351h10M20 352h10M20 353h10M20 354h10M20 355h10M20 356h10M20 357h10M20 358h10M20 359h10" />
<path stroke="#a8b0fd" d="M0 370h20M170 370h10M0 371h20M170 371h10M0 372h20M170 372h10M0 373h20M170 373h10M0 374h20M170 374h10M0 375h20M170 375h10M0 376h20M170 376h10M0 377h20M170 377h10M0 378h20M170 378h10M0 379h20M170 379h10M0 380h240M0 381h240M0 382h240M0 383h240M0 384h240M0 385h240M0 386h240M0 387h240M0 388h240M0 389h240M0 390h10M20 390h360M0 391h10M20 391h360M0 392h10M20 392h360M0 393h10M20 393h360M0 394h10M20 394h360M0 395h10M20 395h360M0 396h10M20 396h360M0 397h10M20 397h360M0 398h10M20 398h360M0 399h10M20 399h360M0 400h20M40 400h10M60 400h380M0 401h20M40 401h10M60 401h380M0 402h20M40 402h10M60 402h380M0 403h20M40 403h10M60 403h380M0 404h20M40 404h10M60 404h380M0 405h20M40 405h10M60 405h380M0 406h20M40 406h10M60 406h380M0 407h20M40 407h10M60 407h380M0 408h20M40 408h10M60 408h380M0 409h20M40 409h10M60 409h380M0 410h60M70 410h20M100 410h320M0 411h60M70 411h20M100 411h320M0 412h60M70 412h20M100 412h320M0 413h60M70 413h20M100 413h320M0 414h60M70 414h20M100 414h320M0 415h60M70 415h20M100 415h320M0 416h60M70 416h20M100 416h320M0 417h60M70 417h20M100 417h320M0 418h60M70 418h20M100 418h320M0 419h60M70 419h20M100 419h320M10 420h20M50 420h50M120 420h100M300 420h30M370 420h40M430 420h10M10 421h20M50 421h50M120 421h100M300 421h30M370 421h40M430 421h10M10 422h20M50 422h50M120 422h100M300 422h30M370 422h40M430 422h10M10 423h20M50 423h50M120 423h100M300 423h30M370 423h40M430 423h10M10 424h20M50 424h50M120 424h100M300 424h30M370 424h40M430 424h10M10 425h20M50 425h50M120 425h100M300 425h30M370 425h40M430 425h10M10 426h20M50 426h50M120 426h100M300 426h30M370 426h40M430 426h10M10 427h20M50 427h50M120 427h100M300 427h30M370 427h40M430 427h10M10 428h20M50 428h50M120 428h100M300 428h30M370 428h40M430 428h10M10 429h20M50 429h50M120 429h100M300 429h30M370 429h40M430 429h10M70 430h10M200 430h10M220 430h10M280 430h10M350 430h20M70 431h10M200 431h10M220 431h10M280 431h10M350 431h20M70 432h10M200 432h10M220 432h10M280 432h10M350 432h20M70 433h10M200 433h10M220 433h10M280 433h10M350 433h20M70 434h10M200 434h10M220 434h10M280 434h10M350 434h20M70 435h10M200 435h10M220 435h10M280 435h10M350 435h20M70 436h10M200 436h10M220 436h10M280 436h10M350 436h20M70 437h10M200 437h10M220 437h10M280 437h10M350 437h20M70 438h10M200 438h10M220 438h10M280 438h10M350 438h20M70 439h10M200 439h10M220 439h10M280 439h10M350 439h20" />
</svg>