<svg xmlns="http://www.w3.org/2000/svg" viewBox="0 -0.5 440 440" shape-rendering="crispEdges">
<metadata>Made with Pixels to Svg http://codepen.io/shshaw/pen/XbxvNj</metadata>
<path stroke="#8ac6d6" d="M0 0h10M0 1h10M0 2h10M0 3h10M0 4h10M0 5h10M0 6h10M0 7h10M0 8h10M0 9h10M0 10h10M0 11h10M0 12h10M0 13h10M0 14h10M0 15h10M0 16h10M0 17h10M0 18h10M0 19h10M0 20h10M0 21h10M0 22h10M0 23h10M0 24h10M0 25h10M0 26h10M0 27h10M0 28h10M0 29h10M0 30h10M0 31h10M0 32h10M0 33h10M0 34h10M0 35h10M0 36h10M0 37h10M0 38h10M0 39h10M0 40h10M0 41h10M0 42h10M0 43h10M0 44h10M0 45h10M0 46h10M0 47h10M0 48h10M0 49h10M0 50h10M0 51h10M0 52h10M0 53h10M0 54h10M0 55h10M0 56h10M0 57h10M0 58h10M0 59h10M0 60h10M0 61h10M0 62h10M0 63h10M0 64h10M0 65h10M0 66h10M0 67h10M0 68h10M0 69h10M0 70h10M0 71h10M0 72h10M0 73h10M0 74h10M0 75h10M0 76h10M0 77h10M0 78h10M0 79h10M0 80h10M0 81h10M0 82h10M0 83h10M0 84h10M0 85h10M0 86h10M0 87h10M0 88h10M0 89h10M0 90h10M0 91h10M0 92h10M0 93h10M0 94h10M0 95h10M0 96h10M0 97h10M0 98h10M0 99h10M0 100h10M0 101h10M0 102h10M0 103h10M0 104h10M0 105h10M0 106h10M0 107h10M0 108h10M0 109h10M0 110h10M0 111h10M0 112h10M0 113h10M0 114h10M0 115h10M0 116h10M0 117h10M0 118h10M0 119h10M0 120h10M0 121h10M0 122h10M0 123h10M0 124h10M0 125h10M0 126h10M0 127h10M0 128h10M0 129h10M0 130h10M0 131h10M0 132h10M0 133h10M0 134h10M0 135h10M0 136h10M0 137h10M0 138h10M0 139h10M0 140h10M0 141h10M0 142h10M0 143h10M0 144h10M0 145h10M0 146h10M0 147h10M0 148h10M0 149h10M0 150h10M0 151h10M0 152h10M0 153h10M0 154h10M0 155h10M0 156h10M0 157h10M0 158h10M0 159h10M0 160h10M0 161h10M0 162h10M0 163h10M0 164h10M0 165h10M0 166h10M0 167h10M0 168h10M0 169h10M0 170h10M0 171h10M0 172h10M0 173h10M0 174h10M0 175h10M0 176h10M0 177h10M0 178h10M0 179h10M0 180h10M0 181h10M0 182h10M0 183h10M0 184h10M0 185h10M0 186h10M0 187h10M0 188h10M0 189h10M0 190h10M0 191h10M0 192h10M0 193h10M0 194h10M0 195h10M0 196h10M0 197h10M0 198h10M0 199h10M0 200h10M0 201h10M0 202h10M0 203h10M0 204h10M0 205h10M0 206h10M0 207h10M0 208h10M0 209h10M0 210h10M0 211h10M0 212h10M0 213h10M0 214h10M0 215h10M0 216h10M0 217h10M0 218h10M0 219h10M0 220h10M0 221h10M0 222h10M0 223h10M0 224h10M0 225h10M0 226h10M0 227h10M0 228h10M0 229h10M0 230h10M0 231h10M0 232h10M0 233h10M0 234h10M0 235h10M0 236h10M0 237h10M0 238h10M0 239h10M0 240h10M0 241h10M0 242h10M0 243h10M0 244h10M0 245h10M0 246h10M0 247h10M0 248h10M0 249h10M0 250h10M0 251h10M0 252h10M0 253h10M0 254h10M0 255h10M0 256h10M0 257h10M0 258h10M0 259h10M0 260h10M0 261h10M0 262h10M0 263h10M0 264h10M0 265h10M0 266h10M0 267h10M0 268h10M0 269h10M0 270h10M0 271h10M0 272h10M0 273h10M0 274h10M0 275h10M0 276h10M0 277h10M0 278h10M0 279h10M0 280h10M0 281h10M0 282h10M0 283h10M0 284h10M0 285h10M0 286h10M0 287h10M0 288h10M0 289h10M0 290h10M0 291h10M0 292h10M0 293h10M0 294h10M0 295h10M0 296h10M0 297h10M0 298h10M0 299h10M0 300h10M0 301h10M0 302h10M0 303h10M0 304h10M0 305h10M0 306h10M0 307h10M0 308h10M0 309h10M0 310h10M0 311h10M0 312h10M0 313h10M0 314h10M0 315h10M0 316h10M0 317h10M0 318h10M0 319h10M0 320h10M0 321h10M0 322h10M0 323h10M0 324h10M0 325h10M0 326h10M0 327h10M0 328h10M0 329h10M0 330h10M0 331h10M0 332h10M0 333h10M0 334h10M0 335h10M0 336h10M0 337h10M0 338h10M0 339h10M0 340h10M0 341h10M0 342h10M0 343h10M0 344h10M0 345h10M0 346h10M0 347h10M0 348h10M0 349h10M0 350h10M0 351h10M0 352h10M0 353h10M0 354h10M0 355h10M0 356h10M0 357h10M0 358h10M0 359h10M0 360h10M0 361h10M0 362h10M0 363h10M0 364h10M0 365h10M0 366h10M0 367h10M0 368h10M0 369h10M0 370h10M0 371h10M0 372h10M0 373h10M0 374h10M0 375h10M0 376h10M0 377h10M0 378h10M0 379h10M0 380h10M0 381h10M0 382h10M0 383h10M0 384h10M0 385h10M0 386h10M0 387h10M0 388h10M0 389h10M0 390h10M0 391h10M0 392h10M0 393h10M0 394h10M0 395h10M0 396h10M0 397h10M0 398h10M0 399h10M0 400h10M0 401h10M0 402h10M0 403h10M0 404h10M0 405h10M0 406h10M0 407h10M0 408h10M0 409h10M0 410h10M0 411h10M0 412h10M0 413h10M0 414h10M0 415h10M0 416h10M0 417h10M0 418h10M0 419h10M0 420h10M0 421h10M0 422h10M0 423h10M0 424h10M0 425h10M0 426h10M0 427h10M0 428h10M0 429h10M0 430h10M0 431h10M0 432h10M0 433h10M0 434h10M0 435h10M0 436h10M0 437h10M0 438h10M0 439h10" />
<path stroke="#87b9c7" d="M10 0h10M10 1h10M10 2h10M10 3h10M10 4h10M10 5h10M10 6h10M10 7h10M10 8h10M10 9h10M10 10h10M10 11h10M10 12h10M10 13h10M10 14h10M10 15h10M10 16h10M10 17h10M10 18h10M10 19h10M10 20h10M10 21h10M10 22h10M10 23h10M10 24h10M10 25h10M10 26h10M10 27h10M10 28h10M10 29h10M10 30h10M10 31h10M10 32h10M10 33h10M10 34h10M10 35h10M10 36h10M10 37h10M10 38h10M10 39h10M10 40h10M10 41h10M10 42h10M10 43h10M10 44h10M10 45h10M10 46h10M10 47h10M10 48h10M10 49h10M10 50h10M10 51h10M10 52h10M10 53h10M10 54h10M10 55h10M10 56h10M10 57h10M10 58h10M10 59h10M10 60h10M10 61h10M10 62h10M10 63h10M10 64h10M10 65h10M10 66h10M10 67h10M10 68h10M10 69h10M10 70h10M10 71h10M10 72h10M10 73h10M10 74h10M10 75h10M10 76h10M10 77h10M10 78h10M10 79h10M10 80h10M10 81h10M10 82h10M10 83h10M10 84h10M10 85h10M10 86h10M10 87h10M10 88h10M10 89h10M10 90h10M10 91h10M10 92h10M10 93h10M10 94h10M10 95h10M10 96h10M10 97h10M10 98h10M10 99h10M10 100h10M10 101h10M10 102h10M10 103h10M10 104h10M10 105h10M10 106h10M10 107h10M10 108h10M10 109h10M10 110h10M10 111h10M10 112h10M10 113h10M10 114h10M10 115h10M10 116h10M10 117h10M10 118h10M10 119h10M10 120h10M10 121h10M10 122h10M10 123h10M10 124h10M10 125h10M10 126h10M10 127h10M10 128h10M10 129h10M10 130h10M10 131h10M10 132h10M10 133h10M10 134h10M10 135h10M10 136h10M10 137h10M10 138h10M10 139h10M10 140h10M10 141h10M10 142h10M10 143h10M10 144h10M10 145h10M10 146h10M10 147h10M10 148h10M10 149h10M10 150h10M10 151h10M10 152h10M10 153h10M10 154h10M10 155h10M10 156h10M10 157h10M10 158h10M10 159h10M10 160h10M10 161h10M10 162h10M10 163h10M10 164h10M10 165h10M10 166h10M10 167h10M10 168h10M10 169h10M10 170h10M10 171h10M10 172h10M10 173h10M10 174h10M10 175h10M10 176h10M10 177h10M10 178h10M10 179h10M10 180h10M10 181h10M10 182h10M10 183h10M10 184h10M10 185h10M10 186h10M10 187h10M10 188h10M10 189h10M10 190h10M10 191h10M10 192h10M10 193h10M10 194h10M10 195h10M10 196h10M10 197h10M10 198h10M10 199h10M10 200h10M10 201h10M10 202h10M10 203h10M10 204h10M10 205h10M10 206h10M10 207h10M10 208h10M10 209h10M10 210h10M10 211h10M10 212h10M10 213h10M10 214h10M10 215h10M10 216h10M10 217h10M10 218h10M10 219h10M10 220h10M10 221h10M10 222h10M10 223h10M10 224h10M10 225h10M10 226h10M10 227h10M10 228h10M10 229h10M10 230h10M10 231h10M10 232h10M10 233h10M10 234h10M10 235h10M10 236h10M10 237h10M10 238h10M10 239h10M10 240h10M10 241h10M10 242h10M10 243h10M10 244h10M10 245h10M10 246h10M10 247h10M10 248h10M10 249h10M10 250h10M10 251h10M10 252h10M10 253h10M10 254h10M10 255h10M10 256h10M10 257h10M10 258h10M10 259h10M10 260h10M10 261h10M10 262h10M10 263h10M10 264h10M10 265h10M10 266h10M10 267h10M10 268h10M10 269h10M10 270h10M10 271h10M10 272h10M10 273h10M10 274h10M10 275h10M10 276h10M10 277h10M10 278h10M10 279h10M10 280h10M10 281h10M10 282h10M10 283h10M10 284h10M10 285h10M10 286h10M10 287h10M10 288h10M10 289h10M10 290h10M10 291h10M10 292h10M10 293h10M10 294h10M10 295h10M10 296h10M10 297h10M10 298h10M10 299h10M10 300h10M10 301h10M10 302h10M10 303h10M10 304h10M10 305h10M10 306h10M10 307h10M10 308h10M10 309h10M10 310h10M10 311h10M10 312h10M10 313h10M10 314h10M10 315h10M10 316h10M10 317h10M10 318h10M10 319h10M10 320h10M10 321h10M10 322h10M10 323h10M10 324h10M10 325h10M10 326h10M10 327h10M10 328h10M10 329h10M10 330h10M10 331h10M10 332h10M10 333h10M10 334h10M10 335h10M10 336h10M10 337h10M10 338h10M10 339h10M10 340h10M10 341h10M10 342h10M10 343h10M10 344h10M10 345h10M10 346h10M10 347h10M10 348h10M10 349h10M10 350h10M10 351h10M10 352h10M10 353h10M10 354h10M10 355h10M10 356h10M10 357h10M10 358h10M10 359h10M10 360h10M10 361h10M10 362h10M10 363h10M10 364h10M10 365h10M10 366h10M10 367h10M10 368h10M10 369h10M10 370h10M10 371h10M10 372h10M10 373h10M10 374h10M10 375h10M10 376h10M10 377h10M10 378h10M10 379h10M10 380h10M10 381h10M10 382h10M10 383h10M10 384h10M10 385h10M10 386h10M10 387h10M10 388h10M10 389h10M10 390h10M10 391h10M10 392h10M10 393h10M10 394h10M10 395h10M10 396h10M10 397h10M10 398h10M10 399h10M10 400h10M10 401h10M10 402h10M10 403h10M10 404h10M10 405h10M10 406h10M10 407h10M10 408h10M10 409h10M10 410h10M10 411h10M10 412h10M10 413h10M10 414h10M10 415h10M10 416h10M10 417h10M10 418h10M10 419h10M10 420h10M10 421h10M10 422h10M10 423h10M10 424h10M10 425h10M10 426h10M10 427h10M10 428h10M10 429h10M10 430h10M10 431h10M10 432h10M10 433h10M10 434h10M10 435h10M10 436h10M10 437h10M10 438h10M10 439h10" />
<path stroke="#87aee5" d="M20 0h10M20 1h10M20 2h10M20 3h10M20 4h10M20 5h10M20 6h10M20 7h10M20 8h10M20 9h10M20 10h10M20 11h10M20 12h10M20 13h10M20 14h10M20 15h10M20 16h10M20 17h10M20 18h10M20 19h10M20 20h10M20 21h10M20 22h10M20 23h10M20 24h10M20 25h10M20 26h10M20 27h10M20 28h10M20 29h10M20 30h10M20 31h10M20 32h10M20 33h10M20 34h10M20 35h10M20 36h10M20 37h10M20 38h10M20 39h10M20 40h10M20 41h10M20 42h10M20 43h10M20 44h10M20 45h10M20 46h10M20 47h10M20 48h10M20 49h10M20 50h10M20 51h10M20 52h10M20 53h10M20 54h10M20 55h10M20 56h10M20 57h10M20 58h10M20 59h10M20 60h10M20 61h10M20 62h10M20 63h10M20 64h10M20 65h10M20 66h10M20 67h10M20 68h10M20 69h10M20 70h10M20 71h10M20 72h10M20 73h10M20 74h10M20 75h10M20 76h10M20 77h10M20 78h10M20 79h10M20 80h10M20 81h10M20 82h10M20 83h10M20 84h10M20 85h10M20 86h10M20 87h10M20 88h10M20 89h10M20 90h10M20 91h10M20 92h10M20 93h10M20 94h10M20 95h10M20 96h10M20 97h10M20 98h10M20 99h10M20 100h10M20 101h10M20 102h10M20 103h10M20 104h10M20 105h10M20 106h10M20 107h10M20 108h10M20 109h10M20 110h10M20 111h10M20 112h10M20 113h10M20 114h10M20 115h10M20 116h10M20 117h10M20 118h10M20 119h10M20 120h10M20 121h10M20 122h10M20 123h10M20 124h10M20 125h10M20 126h10M20 127h10M20 128h10M20 129h10M20 130h10M20 131h10M20 132h10M20 133h10M20 134h10M20 135h10M20 136h10M20 137h10M20 138h10M20 139h10M20 140h10M20 141h10M20 142h10M20 143h10M20 144h10M20 145h10M20 146h10M20 147h10M20 148h10M20 149h10M20 150h10M20 151h10M20 152h10M20 153h10M20 154h10M20 155h10M20 156h10M20 157h10M20 158h10M20 159h10M20 160h10M20 161h10M20 162h10M20 163h10M20 164h10M20 165h10M20 166h10M20 167h10M20 168h10M20 169h10M20 170h10M20 171h10M20 172h10M20 173h10M20 174h10M20 175h10M20 176h10M20 177h10M20 178h10M20 179h10M20 180h10M20 181h10M20 182h10M20 183h10M20 184h10M20 185h10M20 186h10M20 187h10M20 188h10M20 189h10M20 190h10M20 191h10M20 192h10M20 193h10M20 194h10M20 195h10M20 196h10M20 197h10M20 198h10M20 199h10M20 200h10M20 201h10M20 202h10M20 203h10M20 204h10M20 205h10M20 206h10M20 207h10M20 208h10M20 209h10M20 210h10M20 211h10M20 212h10M20 213h10M20 214h10M20 215h10M20 216h10M20 217h10M20 218h10M20 219h10M20 220h10M20 221h10M20 222h10M20 223h10M20 224h10M20 225h10M20 226h10M20 227h10M20 228h10M20 229h10M20 230h10M20 231h10M20 232h10M20 233h10M20 234h10M20 235h10M20 236h10M20 237h10M20 238h10M20 239h10M20 240h10M20 241h10M20 242h10M20 243h10M20 244h10M20 245h10M20 246h10M20 247h10M20 248h10M20 249h10M20 250h10M20 251h10M20 252h10M20 253h10M20 254h10M20 255h10M20 256h10M20 257h10M20 258h10M20 259h10M20 260h10M20 261h10M20 262h10M20 263h10M20 264h10M20 265h10M20 266h10M20 267h10M20 268h10M20 269h10M20 270h10M20 271h10M20 272h10M20 273h10M20 274h10M20 275h10M20 276h10M20 277h10M20 278h10M20 279h10M20 280h10M20 281h10M20 282h10M20 283h10M20 284h10M20 285h10M20 286h10M20 287h10M20 288h10M20 289h10M20 290h10M20 291h10M20 292h10M20 293h10M20 294h10M20 295h10M20 296h10M20 297h10M20 298h10M20 299h10M20 300h10M20 301h10M20 302h10M20 303h10M20 304h10M20 305h10M20 306h10M20 307h10M20 308h10M20 309h10M20 310h10M20 311h10M20 312h10M20 313h10M20 314h10M20 315h10M20 316h10M20 317h10M20 318h10M20 319h10M20 320h10M20 321h10M20 322h10M20 323h10M20 324h10M20 325h10M20 326h10M20 327h10M20 328h10M20 329h10M20 330h10M20 331h10M20 332h10M20 333h10M20 334h10M20 335h10M20 336h10M20 337h10M20 338h10M20 339h10M20 340h10M20 341h10M20 342h10M20 343h10M20 344h10M20 345h10M20 346h10M20 347h10M20 348h10M20 349h10M20 350h10M20 351h10M20 352h10M20 353h10M20 354h10M20 355h10M20 356h10M20 357h10M20 358h10M20 359h10M20 360h10M20 361h10M20 362h10M20 363h10M20 364h10M20 365h10M20 366h10M20 367h10M20 368h10M20 369h10M20 370h10M20 371h10M20 372h10M20 373h10M20 374h10M20 375h10M20 376h10M20 377h10M20 378h10M20 379h10M20 380h10M20 381h10M20 382h10M20 383h10M20 384h10M20 385h10M20 386h10M20 387h10M20 388h10M20 389h10M20 390h10M20 391h10M20 392h10M20 393h10M20 394h10M20 395h10M20 396h10M20 397h10M20 398h10M20 399h10M20 400h10M20 401h10M20 402h10M20 403h10M20 404h10M20 405h10M20 406h10M20 407h10M20 408h10M20 409h10M20 410h10M20 411h10M20 412h10M20 413h10M20 414h10M20 415h10M20 416h10M20 417h10M20 418h10M20 419h10M20 420h10M20 421h10M20 422h10M20 423h10M20 424h10M20 425h10M20 426h10M20 427h10M20 428h10M20 429h10M20 430h10M20 431h10M20 432h10M20 433h10M20 434h10M20 435h10M20 436h10M20 437h10M20 438h10M20 439h10" />
<path stroke="#88b6f4" d="M30 0h30M30 1h30M30 2h30M30 3h30M30 4h30M30 5h30M30 6h30M30 7h30M30 8h30M30 9h30M30 10h30M30 11h30M30 12h30M30 13h30M30 14h30M30 15h30M30 16h30M30 17h30M30 18h30M30 19h30M30 20h30M30 21h30M30 22h30M30 23h30M30 24h30M30 25h30M30 26h30M30 27h30M30 28h30M30 29h30M30 30h30M30 31h30M30 32h30M30 33h30M30 34h30M30 35h30M30 36h30M30 37h30M30 38h30M30 39h30M30 40h30M30 41h30M30 42h30M30 43h30M30 44h30M30 45h30M30 46h30M30 47h30M30 48h30M30 49h30M30 50h30M30 51h30M30 52h30M30 53h30M30 54h30M30 55h30M30 56h30M30 57h30M30 58h30M30 59h30M30 60h30M30 61h30M30 62h30M30 63h30M30 64h30M30 65h30M30 66h30M30 67h30M30 68h30M30 69h30M30 70h30M30 71h30M30 72h30M30 73h30M30 74h30M30 75h30M30 76h30M30 77h30M30 78h30M30 79h30M30 80h20M30 81h20M30 82h20M30 83h20M30 84h20M30 85h20M30 86h20M30 87h20M30 88h20M30 89h20M30 90h20M30 91h20M30 92h20M30 93h20M30 94h20M30 95h20M30 96h20M30 97h20M30 98h20M30 99h20M30 100h20M30 101h20M30 102h20M30 103h20M30 104h20M30 105h20M30 106h20M30 107h20M30 108h20M30 109h20M30 110h20M30 111h20M30 112h20M30 113h20M30 114h20M30 115h20M30 116h20M30 117h20M30 118h20M30 119h20M30 120h20M30 121h20M30 122h20M30 123h20M30 124h20M30 125h20M30 126h20M30 127h20M30 128h20M30 129h20M30 130h20M30 131h20M30 132h20M30 133h20M30 134h20M30 135h20M30 136h20M30 137h20M30 138h20M30 139h20M30 140h20M60 140h10M30 141h20M60 141h10M30 142h20M60 142h10M30 143h20M60 143h10M30 144h20M60 144h10M30 145h20M60 145h10M30 146h20M60 146h10M30 147h20M60 147h10M30 148h20M60 148h10M30 149h20M60 149h10M30 150h20M30 151h20M30 152h20M30 153h20M30 154h20M30 155h20M30 156h20M30 157h20M30 158h20M30 159h20M30 160h30M30 161h30M30 162h30M30 163h30M30 164h30M30 165h30M30 166h30M30 167h30M30 168h30M30 169h30M30 170h30M30 171h30M30 172h30M30 173h30M30 174h30M30 175h30M30 176h30M30 177h30M30 178h30M30 179h30M30 180h30M30 181h30M30 182h30M30 183h30M30 184h30M30 185h30M30 186h30M30 187h30M30 188h30M30 189h30M30 190h30M30 191h30M30 192h30M30 193h30M30 194h30M30 195h30M30 196h30M30 197h30M30 198h30M30 199h30M30 200h30M30 201h30M30 202h30M30 203h30M30 204h30M30 205h30M30 206h30M30 207h30M30 208h30M30 209h30M30 210h30M30 211h30M30 212h30M30 213h30M30 214h30M30 215h30M30 216h30M30 217h30M30 218h30M30 219h30M30 220h30M30 221h30M30 222h30M30 223h30M30 224h30M30 225h30M30 226h30M30 227h30M30 228h30M30 229h30M30 230h30M30 231h30M30 232h30M30 233h30M30 234h30M30 235h30M30 236h30M30 237h30M30 238h30M30 239h30M30 240h30M30 241h30M30 242h30M30 243h30M30 244h30M30 245h30M30 246h30M30 247h30M30 248h30M30 249h30M30 250h30M30 251h30M30 252h30M30 253h30M30 254h30M30 255h30M30 256h30M30 257h30M30 258h30M30 259h30M30 260h30M30 261h30M30 262h30M30 263h30M30 264h30M30 265h30M30 266h30M30 267h30M30 268h30M30 269h30M30 270h30M30 271h30M30 272h30M30 273h30M30 274h30M30 275h30M30 276h30M30 277h30M30 278h30M30 279h30M30 280h30M30 281h30M30 282h30M30 283h30M30 284h30M30 285h30M30 286h30M30 287h30M30 288h30M30 289h30M30 290h30M30 291h30M30 292h30M30 293h30M30 294h30M30 295h30M30 296h30M30 297h30M30 298h30M30 299h30M30 300h30M30 301h30M30 302h30M30 303h30M30 304h30M30 305h30M30 306h30M30 307h30M30 308h30M30 309h30M30 310h30M30 311h30M30 312h30M30 313h30M30 314h30M30 315h30M30 316h30M30 317h30M30 318h30M30 319h30M30 320h30M30 321h30M30 322h30M30 323h30M30 324h30M30 325h30M30 326h30M30 327h30M30 328h30M30 329h30M30 330h30M30 331h30M30 332h30M30 333h30M30 334h30M30 335h30M30 336h30M30 337h30M30 338h30M30 339h30M30 340h30M30 341h30M30 342h30M30 343h30M30 344h30M30 345h30M30 346h30M30 347h30M30 348h30M30 349h30M30 350h40M30 351h40M30 352h40M30 353h40M30 354h40M30 355h40M30 356h40M30 357h40M30 358h40M30 359h40M30 360h40M30 361h40M30 362h40M30 363h40M30 364h40M30 365h40M30 366h40M30 367h40M30 368h40M30 369h40M30 370h30M30 371h30M30 372h30M30 373h30M30 374h30M30 375h30M30 376h30M30 377h30M30 378h30M30 379h30M30 380h30M30 381h30M30 382h30M30 383h30M30 384h30M30 385h30M30 386h30M30 387h30M30 388h30M30 389h30M30 390h30M30 391h30M30 392h30M30 393h30M30 394h30M30 395h30M30 396h30M30 397h30M30 398h30M30 399h30M30 400h30M30 401h30M30 402h30M30 403h30M30 404h30M30 405h30M30 406h30M30 407h30M30 408h30M30 409h30M30 410h30M30 411h30M30 412h30M30 413h30M30 414h30M30 415h30M30 416h30M30 417h30M30 418h30M30 419h30M30 420h30M30 421h30M30 422h30M30 423h30M30 424h30M30 425h30M30 426h30M30 427h30M30 428h30M30 429h30M30 430h30M30 431h30M30 432h30M30 433h30M30 434h30M30 435h30M30 436h30M30 437h30M30 438h30M30 439h30" />
<path stroke="#8ebdfc" d="M60 0h30M60 1h30M60 2h30M60 3h30M60 4h30M60 5h30M60 6h30M60 7h30M60 8h30M60 9h30M60 10h30M60 11h30M60 12h30M60 13h30M60 14h30M60 15h30M60 16h30M60 17h30M60 18h30M60 19h30M60 20h30M60 21h30M60 22h30M60 23h30M60 24h30M60 25h30M60 26h30M60 27h30M60 28h30M60 29h30M60 30h30M60 31h30M60 32h30M60 33h30M60 34h30M60 35h30M60 36h30M60 37h30M60 38h30M60 39h30M60 40h30M60 41h30M60 42h30M60 43h30M60 44h30M60 45h30M60 46h30M60 47h30M60 48h30M60 49h30M60 50h30M60 51h30M60 52h30M60 53h30M60 54h30M60 55h30M60 56h30M60 57h30M60 58h30M60 59h30M60 60h30M60 61h30M60 62h30M60 63h30M60 64h30M60 65h30M60 66h30M60 67h30M60 68h30M60 69h30M60 70h30M60 71h30M60 72h30M60 73h30M60 74h30M60 75h30M60 76h30M60 77h30M60 78h30M60 79h30M50 80h40M50 81h40M50 82h40M50 83h40M50 84h40M50 85h40M50 86h40M50 87h40M50 88h40M50 89h40M50 90h40M50 91h40M50 92h40M50 93h40M50 94h40M50 95h40M50 96h40M50 97h40M50 98h40M50 99h40M50 100h40M50 101h40M50 102h40M50 103h40M50 104h40M50 105h40M50 106h40M50 107h40M50 108h40M50 109h40M50 110h30M50 111h30M50 112h30M50 113h30M50 114h30M50 115h30M50 116h30M50 117h30M50 118h30M50 119h30M50 120h30M50 121h30M50 122h30M50 123h30M50 124h30M50 125h30M50 126h30M50 127h30M50 128h30M50 129h30M50 130h30M50 131h30M50 132h30M50 133h30M50 134h30M50 135h30M50 136h30M50 137h30M50 138h30M50 139h30M50 140h10M70 140h10M50 141h10M70 141h10M50 142h10M70 142h10M50 143h10M70 143h10M50 144h10M70 144h10M50 145h10M70 145h10M50 146h10M70 146h10M50 147h10M70 147h10M50 148h10M70 148h10M50 149h10M70 149h10M50 150h40M50 151h40M50 152h40M50 153h40M50 154h40M50 155h40M50 156h40M50 157h40M50 158h40M50 159h40M60 160h30M60 161h30M60 162h30M60 163h30M60 164h30M60 165h30M60 166h30M60 167h30M60 168h30M60 169h30M60 170h30M60 171h30M60 172h30M60 173h30M60 174h30M60 175h30M60 176h30M60 177h30M60 178h30M60 179h30M60 180h30M60 181h30M60 182h30M60 183h30M60 184h30M60 185h30M60 186h30M60 187h30M60 188h30M60 189h30M60 190h30M60 191h30M60 192h30M60 193h30M60 194h30M60 195h30M60 196h30M60 197h30M60 198h30M60 199h30M60 200h30M60 201h30M60 202h30M60 203h30M60 204h30M60 205h30M60 206h30M60 207h30M60 208h30M60 209h30M60 210h30M60 211h30M60 212h30M60 213h30M60 214h30M60 215h30M60 216h30M60 217h30M60 218h30M60 219h30M60 220h30M60 221h30M60 222h30M60 223h30M60 224h30M60 225h30M60 226h30M60 227h30M60 228h30M60 229h30M60 230h30M60 231h30M60 232h30M60 233h30M60 234h30M60 235h30M60 236h30M60 237h30M60 238h30M60 239h30M60 240h30M60 241h30M60 242h30M60 243h30M60 244h30M60 245h30M60 246h30M60 247h30M60 248h30M60 249h30M60 250h30M60 251h30M60 252h30M60 253h30M60 254h30M60 255h30M60 256h30M60 257h30M60 258h30M60 259h30M60 260h30M60 261h30M60 262h30M60 263h30M60 264h30M60 265h30M60 266h30M60 267h30M60 268h30M60 269h30M60 270h30M60 271h30M60 272h30M60 273h30M60 274h30M60 275h30M60 276h30M60 277h30M60 278h30M60 279h30M60 280h30M60 281h30M60 282h30M60 283h30M60 284h30M60 285h30M60 286h30M60 287h30M60 288h30M60 289h30M60 290h30M60 291h30M60 292h30M60 293h30M60 294h30M60 295h30M60 296h30M60 297h30M60 298h30M60 299h30M60 300h30M60 301h30M60 302h30M60 303h30M60 304h30M60 305h30M60 306h30M60 307h30M60 308h30M60 309h30M60 310h30M60 311h30M60 312h30M60 313h30M60 314h30M60 315h30M60 316h30M60 317h30M60 318h30M60 319h30M60 320h20M60 321h20M60 322h20M60 323h20M60 324h20M60 325h20M60 326h20M60 327h20M60 328h20M60 329h20M60 330h20M60 331h20M60 332h20M60 333h20M60 334h20M60 335h20M60 336h20M60 337h20M60 338h20M60 339h20M60 340h20M60 341h20M60 342h20M60 343h20M60 344h20M60 345h20M60 346h20M60 347h20M60 348h20M60 349h20M70 350h10M70 351h10M70 352h10M70 353h10M70 354h10M70 355h10M70 356h10M70 357h10M70 358h10M70 359h10M70 360h20M70 361h20M70 362h20M70 363h20M70 364h20M70 365h20M70 366h20M70 367h20M70 368h20M70 369h20M60 370h30M60 371h30M60 372h30M60 373h30M60 374h30M60 375h30M60 376h30M60 377h30M60 378h30M60 379h30M60 380h30M60 381h30M60 382h30M60 383h30M60 384h30M60 385h30M60 386h30M60 387h30M60 388h30M60 389h30M60 390h30M60 391h30M60 392h30M60 393h30M60 394h30M60 395h30M60 396h30M60 397h30M60 398h30M60 399h30M60 400h30M60 401h30M60 402h30M60 403h30M60 404h30M60 405h30M60 406h30M60 407h30M60 408h30M60 409h30M60 410h30M60 411h30M60 412h30M60 413h30M60 414h30M60 415h30M60 416h30M60 417h30M60 418h30M60 419h30M60 420h30M60 421h30M60 422h30M60 423h30M60 424h30M60 425h30M60 426h30M60 427h30M60 428h30M60 429h30M60 430h30M60 431h30M60 432h30M60 433h30M60 434h30M60 435h30M60 436h30M60 437h30M60 438h30M60 439h30" />
<path stroke="#a9cefd" d="M90 0h40M140 0h20M90 1h40M140 1h20M90 2h40M140 2h20M90 3h40M140 3h20M90 4h40M140 4h20M90 5h40M140 5h20M90 6h40M140 6h20M90 7h40M140 7h20M90 8h40M140 8h20M90 9h40M140 9h20M90 10h40M140 10h20M90 11h40M140 11h20M90 12h40M140 12h20M90 13h40M140 13h20M90 14h40M140 14h20M90 15h40M140 15h20M90 16h40M140 16h20M90 17h40M140 17h20M90 18h40M140 18h20M90 19h40M140 19h20M90 20h40M140 20h20M90 21h40M140 21h20M90 22h40M140 22h20M90 23h40M140 23h20M90 24h40M140 24h20M90 25h40M140 25h20M90 26h40M140 26h20M90 27h40M140 27h20M90 28h40M140 28h20M90 29h40M140 29h20M90 30h40M140 30h20M90 31h40M140 31h20M90 32h40M140 32h20M90 33h40M140 33h20M90 34h40M140 34h20M90 35h40M140 35h20M90 36h40M140 36h20M90 37h40M140 37h20M90 38h40M140 38h20M90 39h40M140 39h20M90 40h30M140 40h20M90 41h30M140 41h20M90 42h30M140 42h20M90 43h30M140 43h20M90 44h30M140 44h20M90 45h30M140 45h20M90 46h30M140 46h20M90 47h30M140 47h20M90 48h30M140 48h20M90 49h30M140 49h20M90 50h30M140 50h20M90 51h30M140 51h20M90 52h30M140 52h20M90 53h30M140 53h20M90 54h30M140 54h20M90 55h30M140 55h20M90 56h30M140 56h20M90 57h30M140 57h20M90 58h30M140 58h20M90 59h30M140 59h20M90 60h30M140 60h20M90 61h30M140 61h20M90 62h30M140 62h20M90 63h30M140 63h20M90 64h30M140 64h20M90 65h30M140 65h20M90 66h30M140 66h20M90 67h30M140 67h20M90 68h30M140 68h20M90 69h30M140 69h20M90 70h40M140 70h20M90 71h40M140 71h20M90 72h40M140 72h20M90 73h40M140 73h20M90 74h40M140 74h20M90 75h40M140 75h20M90 76h40M140 76h20M90 77h40M140 77h20M90 78h40M140 78h20M90 79h40M140 79h20M90 80h40M140 80h20M90 81h40M140 81h20M90 82h40M140 82h20M90 83h40M140 83h20M90 84h40M140 84h20M90 85h40M140 85h20M90 86h40M140 86h20M90 87h40M140 87h20M90 88h40M140 88h20M90 89h40M140 89h20M90 90h40M140 90h20M90 91h40M140 91h20M90 92h40M140 92h20M90 93h40M140 93h20M90 94h40M140 94h20M90 95h40M140 95h20M90 96h40M140 96h20M90 97h40M140 97h20M90 98h40M140 98h20M90 99h40M140 99h20M90 100h40M140 100h20M90 101h40M140 101h20M90 102h40M140 102h20M90 103h40M140 103h20M90 104h40M140 104h20M90 105h40M140 105h20M90 106h40M140 106h20M90 107h40M140 107h20M90 108h40M140 108h20M90 109h40M140 109h20M80 110h80M80 111h80M80 112h80M80 113h80M80 114h80M80 115h80M80 116h80M80 117h80M80 118h80M80 119h80M80 120h80M80 121h80M80 122h80M80 123h80M80 124h80M80 125h80M80 126h80M80 127h80M80 128h80M80 129h80M80 130h50M140 130h20M80 131h50M140 131h20M80 132h50M140 132h20M80 133h50M140 133h20M80 134h50M140 134h20M80 135h50M140 135h20M80 136h50M140 136h20M80 137h50M140 137h20M80 138h50M140 138h20M80 139h50M140 139h20M80 140h50M140 140h20M80 141h50M140 141h20M80 142h50M140 142h20M80 143h50M140 143h20M80 144h50M140 144h20M80 145h50M140 145h20M80 146h50M140 146h20M80 147h50M140 147h20M80 148h50M140 148h20M80 149h50M140 149h20M90 150h40M140 150h20M90 151h40M140 151h20M90 152h40M140 152h20M90 153h40M140 153h20M90 154h40M140 154h20M90 155h40M140 155h20M90 156h40M140 156h20M90 157h40M140 157h20M90 158h40M140 158h20M90 159h40M140 159h20M90 160h40M140 160h20M90 161h40M140 161h20M90 162h40M140 162h20M90 163h40M140 163h20M90 164h40M140 164h20M90 165h40M140 165h20M90 166h40M140 166h20M90 167h40M140 167h20M90 168h40M140 168h20M90 169h40M140 169h20M90 170h40M140 170h20M90 171h40M140 171h20M90 172h40M140 172h20M90 173h40M140 173h20M90 174h40M140 174h20M90 175h40M140 175h20M90 176h40M140 176h20M90 177h40M140 177h20M90 178h40M140 178h20M90 179h40M140 179h20M90 180h40M140 180h20M90 181h40M140 181h20M90 182h40M140 182h20M90 183h40M140 183h20M90 184h40M140 184h20M90 185h40M140 185h20M90 186h40M140 186h20M90 187h40M140 187h20M90 188h40M140 188h20M90 189h40M140 189h20M90 190h70M90 191h70M90 192h70M90 193h70M90 194h70M90 195h70M90 196h70M90 197h70M90 198h70M90 199h70M90 200h70M90 201h70M90 202h70M90 203h70M90 204h70M90 205h70M90 206h70M90 207h70M90 208h70M90 209h70M90 210h70M90 211h70M90 212h70M90 213h70M90 214h70M90 215h70M90 216h70M90 217h70M90 218h70M90 219h70M90 220h40M140 220h20M90 221h40M140 221h20M90 222h40M140 222h20M90 223h40M140 223h20M90 224h40M140 224h20M90 225h40M140 225h20M90 226h40M140 226h20M90 227h40M140 227h20M90 228h40M140 228h20M90 229h40M140 229h20M90 230h40M140 230h20M90 231h40M140 231h20M90 232h40M140 232h20M90 233h40M140 233h20M90 234h40M140 234h20M90 235h40M140 235h20M90 236h40M140 236h20M90 237h40M140 237h20M90 238h40M140 238h20M90 239h40M140 239h20M90 240h40M140 240h10M90 241h40M140 241h10M90 242h40M140 242h10M90 243h40M140 243h10M90 244h40M140 244h10M90 245h40M140 245h10M90 246h40M140 246h10M90 247h40M140 247h10M90 248h40M140 248h10M90 249h40M140 249h10M90 250h40M140 250h10M90 251h40M140 251h10M90 252h40M140 252h10M90 253h40M140 253h10M90 254h40M140 254h10M90 255h40M140 255h10M90 256h40M140 256h10M90 257h40M140 257h10M90 258h40M140 258h10M90 259h40M140 259h10M90 260h60M90 261h60M90 262h60M90 263h60M90 264h60M90 265h60M90 266h60M90 267h60M90 268h60M90 269h60M90 270h60M90 271h60M90 272h60M90 273h60M90 274h60M90 275h60M90 276h60M90 277h60M90 278h60M90 279h60M90 280h40M140 280h10M90 281h40M140 281h10M90 282h40M140 282h10M90 283h40M140 283h10M90 284h40M140 284h10M90 285h40M140 285h10M90 286h40M140 286h10M90 287h40M140 287h10M90 288h40M140 288h10M90 289h40M140 289h10M90 290h40M140 290h20M90 291h40M140 291h20M90 292h40M140 292h20M90 293h40M140 293h20M90 294h40M140 294h20M90 295h40M140 295h20M90 296h40M140 296h20M90 297h40M140 297h20M90 298h40M140 298h20M90 299h40M140 299h20M90 300h40M140 300h20M90 301h40M140 301h20M90 302h40M140 302h20M90 303h40M140 303h20M90 304h40M140 304h20M90 305h40M140 305h20M90 306h40M140 306h20M90 307h40M140 307h20M90 308h40M140 308h20M90 309h40M140 309h20M90 310h30M140 310h20M90 311h30M140 311h20M90 312h30M140 312h20M90 313h30M140 313h20M90 314h30M140 314h20M90 315h30M140 315h20M90 316h30M140 316h20M90 317h30M140 317h20M90 318h30M140 318h20M90 319h30M140 319h20M80 320h50M140 320h20M80 321h50M140 321h20M80 322h50M140 322h20M80 323h50M140 323h20M80 324h50M140 324h20M80 325h50M140 325h20M80 326h50M140 326h20M80 327h50M140 327h20M80 328h50M140 328h20M80 329h50M140 329h20M80 330h50M140 330h20M80 331h50M140 331h20M80 332h50M140 332h20M80 333h50M140 333h20M80 334h50M140 334h20M80 335h50M140 335h20M80 336h50M140 336h20M80 337h50M140 337h20M80 338h50M140 338h20M80 339h50M140 339h20M80 340h50M140 340h20M80 341h50M140 341h20M80 342h50M140 342h20M80 343h50M140 343h20M80 344h50M140 344h20M80 345h50M140 345h20M80 346h50M140 346h20M80 347h50M140 347h20M80 348h50M140 348h20M80 349h50M140 349h20M80 350h50M140 350h20M80 351h50M140 351h20M80 352h50M140 352h20M80 353h50M140 353h20M80 354h50M140 354h20M80 355h50M140 355h20M80 356h50M140 356h20M80 357h50M140 357h20M80 358h50M140 358h20M80 359h50M140 359h20M90 360h40M140 360h20M90 361h40M140 361h20M90 362h40M140 362h20M90 363h40M140 363h20M90 364h40M140 364h20M90 365h40M140 365h20M90 366h40M140 366h20M90 367h40M140 367h20M90 368h40M140 368h20M90 369h40M140 369h20M90 370h40M140 370h20M90 371h40M140 371h20M90 372h40M140 372h20M90 373h40M140 373h20M90 374h40M140 374h20M90 375h40M140 375h20M90 376h40M140 376h20M90 377h40M140 377h20M90 378h40M140 378h20M90 379h40M140 379h20M90 380h40M140 380h20M90 381h40M140 381h20M90 382h40M140 382h20M90 383h40M140 383h20M90 384h40M140 384h20M90 385h40M140 385h20M90 386h40M140 386h20M90 387h40M140 387h20M90 388h40M140 388h20M90 389h40M140 389h20M90 390h40M140 390h20M90 391h40M140 391h20M90 392h40M140 392h20M90 393h40M140 393h20M90 394h40M140 394h20M90 395h40M140 395h20M90 396h40M140 396h20M90 397h40M140 397h20M90 398h40M140 398h20M90 399h40M140 399h20M90 400h40M140 400h20M90 401h40M140 401h20M90 402h40M140 402h20M90 403h40M140 403h20M90 404h40M140 404h20M90 405h40M140 405h20M90 406h40M140 406h20M90 407h40M140 407h20M90 408h40M140 408h20M90 409h40M140 409h20M90 410h40M140 410h20M90 411h40M140 411h20M90 412h40M140 412h20M90 413h40M140 413h20M90 414h40M140 414h20M90 415h40M140 415h20M90 416h40M140 416h20M90 417h40M140 417h20M90 418h40M140 418h20M90 419h40M140 419h20M90 420h40M140 420h20M90 421h40M140 421h20M90 422h40M140 422h20M90 423h40M140 423h20M90 424h40M140 424h20M90 425h40M140 425h20M90 426h40M140 426h20M90 427h40M140 427h20M90 428h40M140 428h20M90 429h40M140 429h20M90 430h40M140 430h20M90 431h40M140 431h20M90 432h40M140 432h20M90 433h40M140 433h20M90 434h40M140 434h20M90 435h40M140 435h20M90 436h40M140 436h20M90 437h40M140 437h20M90 438h40M140 438h20M90 439h40M140 439h20" />
<path stroke="#9ac6fc" d="M130 0h10M130 1h10M130 2h10M130 3h10M130 4h10M130 5h10M130 6h10M130 7h10M130 8h10M130 9h10M130 10h10M130 11h10M130 12h10M130 13h10M130 14h10M130 15h10M130 16h10M130 17h10M130 18h10M130 19h10M130 20h10M130 21h10M130 22h10M130 23h10M130 24h10M130 25h10M130 26h10M130 27h10M130 28h10M130 29h10M130 30h10M130 31h10M130 32h10M130 33h10M130 34h10M130 35h10M130 36h10M130 37h10M130 38h10M130 39h10M120 40h20M120 41h20M120 42h20M120 43h20M120 44h20M120 45h20M120 46h20M120 47h20M120 48h20M120 49h20M120 50h20M120 51h20M120 52h20M120 53h20M120 54h20M120 55h20M120 56h20M120 57h20M120 58h20M120 59h20M120 60h20M120 61h20M120 62h20M120 63h20M120 64h20M120 65h20M120 66h20M120 67h20M120 68h20M120 69h20M130 70h10M130 71h10M130 72h10M130 73h10M130 74h10M130 75h10M130 76h10M130 77h10M130 78h10M130 79h10M130 80h10M130 81h10M130 82h10M130 83h10M130 84h10M130 85h10M130 86h10M130 87h10M130 88h10M130 89h10M130 90h10M130 91h10M130 92h10M130 93h10M130 94h10M130 95h10M130 96h10M130 97h10M130 98h10M130 99h10M130 100h10M130 101h10M130 102h10M130 103h10M130 104h10M130 105h10M130 106h10M130 107h10M130 108h10M130 109h10M130 130h10M130 131h10M130 132h10M130 133h10M130 134h10M130 135h10M130 136h10M130 137h10M130 138h10M130 139h10M130 140h10M130 141h10M130 142h10M130 143h10M130 144h10M130 145h10M130 146h10M130 147h10M130 148h10M130 149h10M130 150h10M130 151h10M130 152h10M130 153h10M130 154h10M130 155h10M130 156h10M130 157h10M130 158h10M130 159h10M130 160h10M130 161h10M130 162h10M130 163h10M130 164h10M130 165h10M130 166h10M130 167h10M130 168h10M130 169h10M130 170h10M130 171h10M130 172h10M130 173h10M130 174h10M130 175h10M130 176h10M130 177h10M130 178h10M130 179h10M130 180h10M130 181h10M130 182h10M130 183h10M130 184h10M130 185h10M130 186h10M130 187h10M130 188h10M130 189h10M130 220h10M130 221h10M130 222h10M130 223h10M130 224h10M130 225h10M130 226h10M130 227h10M130 228h10M130 229h10M130 230h10M130 231h10M130 232h10M130 233h10M130 234h10M130 235h10M130 236h10M130 237h10M130 238h10M130 239h10M130 240h10M130 241h10M130 242h10M130 243h10M130 244h10M130 245h10M130 246h10M130 247h10M130 248h10M130 249h10M130 250h10M130 251h10M130 252h10M130 253h10M130 254h10M130 255h10M130 256h10M130 257h10M130 258h10M130 259h10M130 280h10M130 281h10M130 282h10M130 283h10M130 284h10M130 285h10M130 286h10M130 287h10M130 288h10M130 289h10M130 290h10M130 291h10M130 292h10M130 293h10M130 294h10M130 295h10M130 296h10M130 297h10M130 298h10M130 299h10M130 300h10M130 301h10M130 302h10M130 303h10M130 304h10M130 305h10M130 306h10M130 307h10M130 308h10M130 309h10M120 310h20M120 311h20M120 312h20M120 313h20M120 314h20M120 315h20M120 316h20M120 317h20M120 318h20M120 319h20M130 320h10M130 321h10M130 322h10M130 323h10M130 324h10M130 325h10M130 326h10M130 327h10M130 328h10M130 329h10M130 330h10M130 331h10M130 332h10M130 333h10M130 334h10M130 335h10M130 336h10M130 337h10M130 338h10M130 339h10M130 340h10M130 341h10M130 342h10M130 343h10M130 344h10M130 345h10M130 346h10M130 347h10M130 348h10M130 349h10M130 350h10M130 351h10M130 352h10M130 353h10M130 354h10M130 355h10M130 356h10M130 357h10M130 358h10M130 359h10M130 360h10M130 361h10M130 362h10M130 363h10M130 364h10M130 365h10M130 366h10M130 367h10M130 368h10M130 369h10M130 370h10M130 371h10M130 372h10M130 373h10M130 374h10M130 375h10M130 376h10M130 377h10M130 378h10M130 379h10M130 380h10M130 381h10M130 382h10M130 383h10M130 384h10M130 385h10M130 386h10M130 387h10M130 388h10M130 389h10M130 390h10M130 391h10M130 392h10M130 393h10M130 394h10M130 395h10M130 396h10M130 397h10M130 398h10M130 399h10M130 400h10M130 401h10M130 402h10M130 403h10M130 404h10M130 405h10M130 406h10M130 407h10M130 408h10M130 409h10M130 410h10M130 411h10M130 412h10M130 413h10M130 414h10M130 415h10M130 416h10M130 417h10M130 418h10M130 419h10M130 420h10M130 421h10M130 422h10M130 423h10M130 424h10M130 425h10M130 426h10M130 427h10M130 428h10M130 429h10M130 430h10M130 431h10M130 432h10M130 433h10M130 434h10M130 435h10M130 436h10M130 437h10M130 438h10M130 439h10" />
<path stroke="#b9d7fd" d="M160 0h50M160 1h50M160 2h50M160 3h50M160 4h50M160 5h50M160 6h50M160 7h50M160 8h50M160 9h50M160 10h50M160 11h50M160 12h50M160 13h50M160 14h50M160 15h50M160 16h50M160 17h50M160 18h50M160 19h50M160 20h50M160 21h50M160 22h50M160 23h50M160 24h50M160 25h50M160 26h50M160 27h50M160 28h50M160 29h50M160 30h50M160 31h50M160 32h50M160 33h50M160 34h50M160 35h50M160 36h50M160 37h50M160 38h50M160 39h50M160 40h50M160 41h50M160 42h50M160 43h50M160 44h50M160 45h50M160 46h50M160 47h50M160 48h50M160 49h50M160 50h50M160 51h50M160 52h50M160 53h50M160 54h50M160 55h50M160 56h50M160 57h50M160 58h50M160 59h50M160 60h50M160 61h50M160 62h50M160 63h50M160 64h50M160 65h50M160 66h50M160 67h50M160 68h50M160 69h50M160 70h50M160 71h50M160 72h50M160 73h50M160 74h50M160 75h50M160 76h50M160 77h50M160 78h50M160 79h50M160 80h50M160 81h50M160 82h50M160 83h50M160 84h50M160 85h50M160 86h50M160 87h50M160 88h50M160 89h50M160 90h50M160 91h50M160 92h50M160 93h50M160 94h50M160 95h50M160 96h50M160 97h50M160 98h50M160 99h50M160 100h50M160 101h50M160 102h50M160 103h50M160 104h50M160 105h50M160 106h50M160 107h50M160 108h50M160 109h50M160 110h50M160 111h50M160 112h50M160 113h50M160 114h50M160 115h50M160 116h50M160 117h50M160 118h50M160 119h50M160 120h50M160 121h50M160 122h50M160 123h50M160 124h50M160 125h50M160 126h50M160 127h50M160 128h50M160 129h50M160 130h50M160 131h50M160 132h50M160 133h50M160 134h50M160 135h50M160 136h50M160 137h50M160 138h50M160 139h50M160 140h50M160 141h50M160 142h50M160 143h50M160 144h50M160 145h50M160 146h50M160 147h50M160 148h50M160 149h50M160 150h50M160 151h50M160 152h50M160 153h50M160 154h50M160 155h50M160 156h50M160 157h50M160 158h50M160 159h50M160 160h50M160 161h50M160 162h50M160 163h50M160 164h50M160 165h50M160 166h50M160 167h50M160 168h50M160 169h50M160 170h50M160 171h50M160 172h50M160 173h50M160 174h50M160 175h50M160 176h50M160 177h50M160 178h50M160 179h50M160 180h50M160 181h50M160 182h50M160 183h50M160 184h50M160 185h50M160 186h50M160 187h50M160 188h50M160 189h50M160 190h60M160 191h60M160 192h60M160 193h60M160 194h60M160 195h60M160 196h60M160 197h60M160 198h60M160 199h60M160 200h60M160 201h60M160 202h60M160 203h60M160 204h60M160 205h60M160 206h60M160 207h60M160 208h60M160 209h60M160 210h60M160 211h60M160 212h60M160 213h60M160 214h60M160 215h60M160 216h60M160 217h60M160 218h60M160 219h60M160 220h60M160 221h60M160 222h60M160 223h60M160 224h60M160 225h60M160 226h60M160 227h60M160 228h60M160 229h60M160 230h60M160 231h60M160 232h60M160 233h60M160 234h60M160 235h60M160 236h60M160 237h60M160 238h60M160 239h60M150 240h60M150 241h60M150 242h60M150 243h60M150 244h60M150 245h60M150 246h60M150 247h60M150 248h60M150 249h60M150 250h60M150 251h60M150 252h60M150 253h60M150 254h60M150 255h60M150 256h60M150 257h60M150 258h60M150 259h60M150 260h60M150 261h60M150 262h60M150 263h60M150 264h60M150 265h60M150 266h60M150 267h60M150 268h60M150 269h60M150 270h60M150 271h60M150 272h60M150 273h60M150 274h60M150 275h60M150 276h60M150 277h60M150 278h60M150 279h60M150 280h80M150 281h80M150 282h80M150 283h80M150 284h80M150 285h80M150 286h80M150 287h80M150 288h80M150 289h80M160 290h70M160 291h70M160 292h70M160 293h70M160 294h70M160 295h70M160 296h70M160 297h70M160 298h70M160 299h70M160 300h70M160 301h70M160 302h70M160 303h70M160 304h70M160 305h70M160 306h70M160 307h70M160 308h70M160 309h70M160 310h70M160 311h70M160 312h70M160 313h70M160 314h70M160 315h70M160 316h70M160 317h70M160 318h70M160 319h70M160 320h70M160 321h70M160 322h70M160 323h70M160 324h70M160 325h70M160 326h70M160 327h70M160 328h70M160 329h70M160 330h70M160 331h70M160 332h70M160 333h70M160 334h70M160 335h70M160 336h70M160 337h70M160 338h70M160 339h70M160 340h70M160 341h70M160 342h70M160 343h70M160 344h70M160 345h70M160 346h70M160 347h70M160 348h70M160 349h70M160 350h70M160 351h70M160 352h70M160 353h70M160 354h70M160 355h70M160 356h70M160 357h70M160 358h70M160 359h70M160 360h60M160 361h60M160 362h60M160 363h60M160 364h60M160 365h60M160 366h60M160 367h60M160 368h60M160 369h60M160 370h60M160 371h60M160 372h60M160 373h60M160 374h60M160 375h60M160 376h60M160 377h60M160 378h60M160 379h60M160 380h60M160 381h60M160 382h60M160 383h60M160 384h60M160 385h60M160 386h60M160 387h60M160 388h60M160 389h60M160 390h60M160 391h60M160 392h60M160 393h60M160 394h60M160 395h60M160 396h60M160 397h60M160 398h60M160 399h60M160 400h60M160 401h60M160 402h60M160 403h60M160 404h60M160 405h60M160 406h60M160 407h60M160 408h60M160 409h60M160 410h60M160 411h60M160 412h60M160 413h60M160 414h60M160 415h60M160 416h60M160 417h60M160 418h60M160 419h60M160 420h50M160 421h50M160 422h50M160 423h50M160 424h50M160 425h50M160 426h50M160 427h50M160 428h50M160 429h50M160 430h50M160 431h50M160 432h50M160 433h50M160 434h50M160 435h50M160 436h50M160 437h50M160 438h50M160 439h50" />
<path stroke="#c8dffe" d="M210 0h60M210 1h60M210 2h60M210 3h60M210 4h60M210 5h60M210 6h60M210 7h60M210 8h60M210 9h60M210 10h60M210 11h60M210 12h60M210 13h60M210 14h60M210 15h60M210 16h60M210 17h60M210 18h60M210 19h60M210 20h60M210 21h60M210 22h60M210 23h60M210 24h60M210 25h60M210 26h60M210 27h60M210 28h60M210 29h60M210 30h50M210 31h50M210 32h50M210 33h50M210 34h50M210 35h50M210 36h50M210 37h50M210 38h50M210 39h50M210 40h50M210 41h50M210 42h50M210 43h50M210 44h50M210 45h50M210 46h50M210 47h50M210 48h50M210 49h50M210 50h50M210 51h50M210 52h50M210 53h50M210 54h50M210 55h50M210 56h50M210 57h50M210 58h50M210 59h50M210 60h50M210 61h50M210 62h50M210 63h50M210 64h50M210 65h50M210 66h50M210 67h50M210 68h50M210 69h50M210 70h50M210 71h50M210 72h50M210 73h50M210 74h50M210 75h50M210 76h50M210 77h50M210 78h50M210 79h50M210 80h50M210 81h50M210 82h50M210 83h50M210 84h50M210 85h50M210 86h50M210 87h50M210 88h50M210 89h50M210 90h40M210 91h40M210 92h40M210 93h40M210 94h40M210 95h40M210 96h40M210 97h40M210 98h40M210 99h40M210 100h40M210 101h40M210 102h40M210 103h40M210 104h40M210 105h40M210 106h40M210 107h40M210 108h40M210 109h40M210 110h40M210 111h40M210 112h40M210 113h40M210 114h40M210 115h40M210 116h40M210 117h40M210 118h40M210 119h40M210 120h40M210 121h40M210 122h40M210 123h40M210 124h40M210 125h40M210 126h40M210 127h40M210 128h40M210 129h40M210 130h40M210 131h40M210 132h40M210 133h40M210 134h40M210 135h40M210 136h40M210 137h40M210 138h40M210 139h40M210 140h40M210 141h40M210 142h40M210 143h40M210 144h40M210 145h40M210 146h40M210 147h40M210 148h40M210 149h40M210 150h50M210 151h50M210 152h50M210 153h50M210 154h50M210 155h50M210 156h50M210 157h50M210 158h50M210 159h50M210 160h50M210 161h50M210 162h50M210 163h50M210 164h50M210 165h50M210 166h50M210 167h50M210 168h50M210 169h50M210 170h60M210 171h60M210 172h60M210 173h60M210 174h60M210 175h60M210 176h60M210 177h60M210 178h60M210 179h60M210 180h60M210 181h60M210 182h60M210 183h60M210 184h60M210 185h60M210 186h60M210 187h60M210 188h60M210 189h60M220 190h50M220 191h50M220 192h50M220 193h50M220 194h50M220 195h50M220 196h50M220 197h50M220 198h50M220 199h50M220 200h50M220 201h50M220 202h50M220 203h50M220 204h50M220 205h50M220 206h50M220 207h50M220 208h50M220 209h50M220 210h50M220 211h50M220 212h50M220 213h50M220 214h50M220 215h50M220 216h50M220 217h50M220 218h50M220 219h50M220 220h50M220 221h50M220 222h50M220 223h50M220 224h50M220 225h50M220 226h50M220 227h50M220 228h50M220 229h50M220 230h50M220 231h50M220 232h50M220 233h50M220 234h50M220 235h50M220 236h50M220 237h50M220 238h50M220 239h50M210 240h60M210 241h60M210 242h60M210 243h60M210 244h60M210 245h60M210 246h60M210 247h60M210 248h60M210 249h60M210 250h60M210 251h60M210 252h60M210 253h60M210 254h60M210 255h60M210 256h60M210 257h60M210 258h60M210 259h60M210 260h60M210 261h60M210 262h60M210 263h60M210 264h60M210 265h60M210 266h60M210 267h60M210 268h60M210 269h60M210 270h60M210 271h60M210 272h60M210 273h60M210 274h60M210 275h60M210 276h60M210 277h60M210 278h60M210 279h60M230 280h40M230 281h40M230 282h40M230 283h40M230 284h40M230 285h40M230 286h40M230 287h40M230 288h40M230 289h40M230 290h40M230 291h40M230 292h40M230 293h40M230 294h40M230 295h40M230 296h40M230 297h40M230 298h40M230 299h40M230 300h40M230 301h40M230 302h40M230 303h40M230 304h40M230 305h40M230 306h40M230 307h40M230 308h40M230 309h40M230 310h40M230 311h40M230 312h40M230 313h40M230 314h40M230 315h40M230 316h40M230 317h40M230 318h40M230 319h40M230 320h40M230 321h40M230 322h40M230 323h40M230 324h40M230 325h40M230 326h40M230 327h40M230 328h40M230 329h40M230 330h30M230 331h30M230 332h30M230 333h30M230 334h30M230 335h30M230 336h30M230 337h30M230 338h30M230 339h30M230 340h30M230 341h30M230 342h30M230 343h30M230 344h30M230 345h30M230 346h30M230 347h30M230 348h30M230 349h30M230 350h30M230 351h30M230 352h30M230 353h30M230 354h30M230 355h30M230 356h30M230 357h30M230 358h30M230 359h30M220 360h40M220 361h40M220 362h40M220 363h40M220 364h40M220 365h40M220 366h40M220 367h40M220 368h40M220 369h40M220 370h30M220 371h30M220 372h30M220 373h30M220 374h30M220 375h30M220 376h30M220 377h30M220 378h30M220 379h30M220 380h30M220 381h30M220 382h30M220 383h30M220 384h30M220 385h30M220 386h30M220 387h30M220 388h30M220 389h30M220 390h20M220 391h20M220 392h20M220 393h20M220 394h20M220 395h20M220 396h20M220 397h20M220 398h20M220 399h20M220 400h20M220 401h20M220 402h20M220 403h20M220 404h20M220 405h20M220 406h20M220 407h20M220 408h20M220 409h20M220 410h20M220 411h20M220 412h20M220 413h20M220 414h20M220 415h20M220 416h20M220 417h20M220 418h20M220 419h20M210 420h30M210 421h30M210 422h30M210 423h30M210 424h30M210 425h30M210 426h30M210 427h30M210 428h30M210 429h30M210 430h30M210 431h30M210 432h30M210 433h30M210 434h30M210 435h30M210 436h30M210 437h30M210 438h30M210 439h30" />
<path stroke="#d7e8fd" d="M270 0h50M270 1h50M270 2h50M270 3h50M270 4h50M270 5h50M270 6h50M270 7h50M270 8h50M270 9h50M270 10h50M270 11h50M270 12h50M270 13h50M270 14h50M270 15h50M270 16h50M270 17h50M270 18h50M270 19h50M270 20h50M270 21h50M270 22h50M270 23h50M270 24h50M270 25h50M270 26h50M270 27h50M270 28h50M270 29h50M260 30h50M260 31h50M260 32h50M260 33h50M260 34h50M260 35h50M260 36h50M260 37h50M260 38h50M260 39h50M260 40h50M260 41h50M260 42h50M260 43h50M260 44h50M260 45h50M260 46h50M260 47h50M260 48h50M260 49h50M260 50h50M260 51h50M260 52h50M260 53h50M260 54h50M260 55h50M260 56h50M260 57h50M260 58h50M260 59h50M260 60h50M260 61h50M260 62h50M260 63h50M260 64h50M260 65h50M260 66h50M260 67h50M260 68h50M260 69h50M260 70h40M260 71h40M260 72h40M260 73h40M260 74h40M260 75h40M260 76h40M260 77h40M260 78h40M260 79h40M260 80h40M260 81h40M260 82h40M260 83h40M260 84h40M260 85h40M260 86h40M260 87h40M260 88h40M260 89h40M250 90h50M250 91h50M250 92h50M250 93h50M250 94h50M250 95h50M250 96h50M250 97h50M250 98h50M250 99h50M250 100h50M250 101h50M250 102h50M250 103h50M250 104h50M250 105h50M250 106h50M250 107h50M250 108h50M250 109h50M250 110h50M250 111h50M250 112h50M250 113h50M250 114h50M250 115h50M250 116h50M250 117h50M250 118h50M250 119h50M250 120h50M250 121h50M250 122h50M250 123h50M250 124h50M250 125h50M250 126h50M250 127h50M250 128h50M250 129h50M250 130h60M250 131h60M250 132h60M250 133h60M250 134h60M250 135h60M250 136h60M250 137h60M250 138h60M250 139h60M250 140h60M250 141h60M250 142h60M250 143h60M250 144h60M250 145h60M250 146h60M250 147h60M250 148h60M250 149h60M260 150h50M260 151h50M260 152h50M260 153h50M260 154h50M260 155h50M260 156h50M260 157h50M260 158h50M260 159h50M260 160h50M260 161h50M260 162h50M260 163h50M260 164h50M260 165h50M260 166h50M260 167h50M260 168h50M260 169h50M270 170h40M270 171h40M270 172h40M270 173h40M270 174h40M270 175h40M270 176h40M270 177h40M270 178h40M270 179h40M270 180h40M270 181h40M270 182h40M270 183h40M270 184h40M270 185h40M270 186h40M270 187h40M270 188h40M270 189h40M270 190h40M270 191h40M270 192h40M270 193h40M270 194h40M270 195h40M270 196h40M270 197h40M270 198h40M270 199h40M270 200h40M270 201h40M270 202h40M270 203h40M270 204h40M270 205h40M270 206h40M270 207h40M270 208h40M270 209h40M270 210h40M270 211h40M270 212h40M270 213h40M270 214h40M270 215h40M270 216h40M270 217h40M270 218h40M270 219h40M270 220h40M270 221h40M270 222h40M270 223h40M270 224h40M270 225h40M270 226h40M270 227h40M270 228h40M270 229h40M270 230h40M270 231h40M270 232h40M270 233h40M270 234h40M270 235h40M270 236h40M270 237h40M270 238h40M270 239h40M270 240h40M270 241h40M270 242h40M270 243h40M270 244h40M270 245h40M270 246h40M270 247h40M270 248h40M270 249h40M270 250h40M270 251h40M270 252h40M270 253h40M270 254h40M270 255h40M270 256h40M270 257h40M270 258h40M270 259h40M270 260h40M270 261h40M270 262h40M270 263h40M270 264h40M270 265h40M270 266h40M270 267h40M270 268h40M270 269h40M270 270h40M270 271h40M270 272h40M270 273h40M270 274h40M270 275h40M270 276h40M270 277h40M270 278h40M270 279h40M270 280h40M270 281h40M270 282h40M270 283h40M270 284h40M270 285h40M270 286h40M270 287h40M270 288h40M270 289h40M270 290h40M270 291h40M270 292h40M270 293h40M270 294h40M270 295h40M270 296h40M270 297h40M270 298h40M270 299h40M270 300h40M270 301h40M270 302h40M270 303h40M270 304h40M270 305h40M270 306h40M270 307h40M270 308h40M270 309h40M270 310h40M270 311h40M270 312h40M270 313h40M270 314h40M270 315h40M270 316h40M270 317h40M270 318h40M270 319h40M270 320h40M270 321h40M270 322h40M270 323h40M270 324h40M270 325h40M270 326h40M270 327h40M270 328h40M270 329h40M260 330h40M260 331h40M260 332h40M260 333h40M260 334h40M260 335h40M260 336h40M260 337h40M260 338h40M260 339h40M260 340h40M260 341h40M260 342h40M260 343h40M260 344h40M260 345h40M260 346h40M260 347h40M260 348h40M260 349h40M260 350h40M260 351h40M260 352h40M260 353h40M260 354h40M260 355h40M260 356h40M260 357h40M260 358h40M260 359h40M260 360h40M260 361h40M260 362h40M260 363h40M260 364h40M260 365h40M260 366h40M260 367h40M260 368h40M260 369h40M250 370h40M250 371h40M250 372h40M250 373h40M250 374h40M250 375h40M250 376h40M250 377h40M250 378h40M250 379h40M250 380h40M250 381h40M250 382h40M250 383h40M250 384h40M250 385h40M250 386h40M250 387h40M250 388h40M250 389h40M240 390h50M240 391h50M240 392h50M240 393h50M240 394h50M240 395h50M240 396h50M240 397h50M240 398h50M240 399h50M240 400h50M240 401h50M240 402h50M240 403h50M240 404h50M240 405h50M240 406h50M240 407h50M240 408h50M240 409h50M240 410h50M240 411h50M240 412h50M240 413h50M240 414h50M240 415h50M240 416h50M240 417h50M240 418h50M240 419h50M240 420h50M240 421h50M240 422h50M240 423h50M240 424h50M240 425h50M240 426h50M240 427h50M240 428h50M240 429h50M240 430h20M240 431h20M240 432h20M240 433h20M240 434h20M240 435h20M240 436h20M240 437h20M240 438h20M240 439h20" />
<path stroke="#d7dafd" d="M320 0h30M320 1h30M320 2h30M320 3h30M320 4h30M320 5h30M320 6h30M320 7h30M320 8h30M320 9h30M320 10h30M320 11h30M320 12h30M320 13h30M320 14h30M320 15h30M320 16h30M320 17h30M320 18h30M320 19h30M320 20h20M320 21h20M320 22h20M320 23h20M320 24h20M320 25h20M320 26h20M320 27h20M320 28h20M320 29h20M310 30h30M310 31h30M310 32h30M310 33h30M310 34h30M310 35h30M310 36h30M310 37h30M310 38h30M310 39h30M310 40h30M310 41h30M310 42h30M310 43h30M310 44h30M310 45h30M310 46h30M310 47h30M310 48h30M310 49h30M310 50h30M310 51h30M310 52h30M310 53h30M310 54h30M310 55h30M310 56h30M310 57h30M310 58h30M310 59h30M310 60h30M310 61h30M310 62h30M310 63h30M310 64h30M310 65h30M310 66h30M310 67h30M310 68h30M310 69h30M300 70h40M300 71h40M300 72h40M300 73h40M300 74h40M300 75h40M300 76h40M300 77h40M300 78h40M300 79h40M300 80h40M300 81h40M300 82h40M300 83h40M300 84h40M300 85h40M300 86h40M300 87h40M300 88h40M300 89h40M300 90h40M300 91h40M300 92h40M300 93h40M300 94h40M300 95h40M300 96h40M300 97h40M300 98h40M300 99h40M300 100h50M300 101h50M300 102h50M300 103h50M300 104h50M300 105h50M300 106h50M300 107h50M300 108h50M300 109h50M300 110h50M300 111h50M300 112h50M300 113h50M300 114h50M300 115h50M300 116h50M300 117h50M300 118h50M300 119h50M300 120h50M300 121h50M300 122h50M300 123h50M300 124h50M300 125h50M300 126h50M300 127h50M300 128h50M300 129h50M310 130h40M310 131h40M310 132h40M310 133h40M310 134h40M310 135h40M310 136h40M310 137h40M310 138h40M310 139h40M310 140h40M310 141h40M310 142h40M310 143h40M310 144h40M310 145h40M310 146h40M310 147h40M310 148h40M310 149h40M310 150h40M310 151h40M310 152h40M310 153h40M310 154h40M310 155h40M310 156h40M310 157h40M310 158h40M310 159h40M310 160h40M310 161h40M310 162h40M310 163h40M310 164h40M310 165h40M310 166h40M310 167h40M310 168h40M310 169h40M310 170h40M310 171h40M310 172h40M310 173h40M310 174h40M310 175h40M310 176h40M310 177h40M310 178h40M310 179h40M310 180h40M310 181h40M310 182h40M310 183h40M310 184h40M310 185h40M310 186h40M310 187h40M310 188h40M310 189h40M310 190h40M310 191h40M310 192h40M310 193h40M310 194h40M310 195h40M310 196h40M310 197h40M310 198h40M310 199h40M310 200h40M310 201h40M310 202h40M310 203h40M310 204h40M310 205h40M310 206h40M310 207h40M310 208h40M310 209h40M310 210h40M310 211h40M310 212h40M310 213h40M310 214h40M310 215h40M310 216h40M310 217h40M310 218h40M310 219h40M310 220h40M310 221h40M310 222h40M310 223h40M310 224h40M310 225h40M310 226h40M310 227h40M310 228h40M310 229h40M310 230h40M310 231h40M310 232h40M310 233h40M310 234h40M310 235h40M310 236h40M310 237h40M310 238h40M310 239h40M310 240h40M310 241h40M310 242h40M310 243h40M310 244h40M310 245h40M310 246h40M310 247h40M310 248h40M310 249h40M310 250h40M310 251h40M310 252h40M310 253h40M310 254h40M310 255h40M310 256h40M310 257h40M310 258h40M310 259h40M310 260h40M310 261h40M310 262h40M310 263h40M310 264h40M310 265h40M310 266h40M310 267h40M310 268h40M310 269h40M310 270h30M310 271h30M310 272h30M310 273h30M310 274h30M310 275h30M310 276h30M310 277h30M310 278h30M310 279h30M310 280h30M310 281h30M310 282h30M310 283h30M310 284h30M310 285h30M310 286h30M310 287h30M310 288h30M310 289h30M310 290h30M310 291h30M310 292h30M310 293h30M310 294h30M310 295h30M310 296h30M310 297h30M310 298h30M310 299h30M310 300h30M310 301h30M310 302h30M310 303h30M310 304h30M310 305h30M310 306h30M310 307h30M310 308h30M310 309h30M310 310h30M310 311h30M310 312h30M310 313h30M310 314h30M310 315h30M310 316h30M310 317h30M310 318h30M310 319h30M310 320h40M310 321h40M310 322h40M310 323h40M310 324h40M310 325h40M310 326h40M310 327h40M310 328h40M310 329h40M300 330h50M300 331h50M300 332h50M300 333h50M300 334h50M300 335h50M300 336h50M300 337h50M300 338h50M300 339h50M300 340h50M300 341h50M300 342h50M300 343h50M300 344h50M300 345h50M300 346h50M300 347h50M300 348h50M300 349h50M300 350h50M300 351h50M300 352h50M300 353h50M300 354h50M300 355h50M300 356h50M300 357h50M300 358h50M300 359h50M300 360h50M300 361h50M300 362h50M300 363h50M300 364h50M300 365h50M300 366h50M300 367h50M300 368h50M300 369h50M290 370h60M290 371h60M290 372h60M290 373h60M290 374h60M290 375h60M290 376h60M290 377h60M290 378h60M290 379h60M290 380h60M290 381h60M290 382h60M290 383h60M290 384h60M290 385h60M290 386h60M290 387h60M290 388h60M290 389h60M290 390h50M290 391h50M290 392h50M290 393h50M290 394h50M290 395h50M290 396h50M290 397h50M290 398h50M290 399h50M290 400h50M290 401h50M290 402h50M290 403h50M290 404h50M290 405h50M290 406h50M290 407h50M290 408h50M290 409h50M290 410h50M290 411h50M290 412h50M290 413h50M290 414h50M290 415h50M290 416h50M290 417h50M290 418h50M290 419h50M290 420h50M290 421h50M290 422h50M290 423h50M290 424h50M290 425h50M290 426h50M290 427h50M290 428h50M290 429h50M260 430h70M260 431h70M260 432h70M260 433h70M260 434h70M260 435h70M260 436h70M260 437h70M260 438h70M260 439h70" />
<path stroke="#c7ccfd" d="M350 0h50M350 1h50M350 2h50M350 3h50M350 4h50M350 5h50M350 6h50M350 7h50M350 8h50M350 9h50M350 10h50M350 11h50M350 12h50M350 13h50M350 14h50M350 15h50M350 16h50M350 17h50M350 18h50M350 19h50M340 20h60M340 21h60M340 22h60M340 23h60M340 24h60M340 25h60M340 26h60M340 27h60M340 28h60M340 29h60M340 30h60M340 31h60M340 32h60M340 33h60M340 34h60M340 35h60M340 36h60M340 37h60M340 38h60M340 39h60M340 40h60M340 41h60M340 42h60M340 43h60M340 44h60M340 45h60M340 46h60M340 47h60M340 48h60M340 49h60M340 50h60M340 51h60M340 52h60M340 53h60M340 54h60M340 55h60M340 56h60M340 57h60M340 58h60M340 59h60M340 60h50M340 61h50M340 62h50M340 63h50M340 64h50M340 65h50M340 66h50M340 67h50M340 68h50M340 69h50M340 70h50M340 71h50M340 72h50M340 73h50M340 74h50M340 75h50M340 76h50M340 77h50M340 78h50M340 79h50M340 80h50M340 81h50M340 82h50M340 83h50M340 84h50M340 85h50M340 86h50M340 87h50M340 88h50M340 89h50M340 90h50M340 91h50M340 92h50M340 93h50M340 94h50M340 95h50M340 96h50M340 97h50M340 98h50M340 99h50M350 100h40M350 101h40M350 102h40M350 103h40M350 104h40M350 105h40M350 106h40M350 107h40M350 108h40M350 109h40M350 110h40M350 111h40M350 112h40M350 113h40M350 114h40M350 115h40M350 116h40M350 117h40M350 118h40M350 119h40M350 120h40M350 121h40M350 122h40M350 123h40M350 124h40M350 125h40M350 126h40M350 127h40M350 128h40M350 129h40M350 130h40M350 131h40M350 132h40M350 133h40M350 134h40M350 135h40M350 136h40M350 137h40M350 138h40M350 139h40M350 140h40M350 141h40M350 142h40M350 143h40M350 144h40M350 145h40M350 146h40M350 147h40M350 148h40M350 149h40M350 150h40M350 151h40M350 152h40M350 153h40M350 154h40M350 155h40M350 156h40M350 157h40M350 158h40M350 159h40M350 160h40M350 161h40M350 162h40M350 163h40M350 164h40M350 165h40M350 166h40M350 167h40M350 168h40M350 169h40M350 170h40M350 171h40M350 172h40M350 173h40M350 174h40M350 175h40M350 176h40M350 177h40M350 178h40M350 179h40M350 180h40M350 181h40M350 182h40M350 183h40M350 184h40M350 185h40M350 186h40M350 187h40M350 188h40M350 189h40M350 190h40M350 191h40M350 192h40M350 193h40M350 194h40M350 195h40M350 196h40M350 197h40M350 198h40M350 199h40M350 200h30M350 201h30M350 202h30M350 203h30M350 204h30M350 205h30M350 206h30M350 207h30M350 208h30M350 209h30M350 210h30M350 211h30M350 212h30M350 213h30M350 214h30M350 215h30M350 216h30M350 217h30M350 218h30M350 219h30M350 220h30M350 221h30M350 222h30M350 223h30M350 224h30M350 225h30M350 226h30M350 227h30M350 228h30M350 229h30M350 230h30M350 231h30M350 232h30M350 233h30M350 234h30M350 235h30M350 236h30M350 237h30M350 238h30M350 239h30M350 240h30M350 241h30M350 242h30M350 243h30M350 244h30M350 245h30M350 246h30M350 247h30M350 248h30M350 249h30M350 250h30M350 251h30M350 252h30M350 253h30M350 254h30M350 255h30M350 256h30M350 257h30M350 258h30M350 259h30M350 260h20M350 261h20M350 262h20M350 263h20M350 264h20M350 265h20M350 266h20M350 267h20M350 268h20M350 269h20M340 270h40M340 271h40M340 272h40M340 273h40M340 274h40M340 275h40M340 276h40M340 277h40M340 278h40M340 279h40M340 280h40M340 281h40M340 282h40M340 283h40M340 284h40M340 285h40M340 286h40M340 287h40M340 288h40M340 289h40M340 290h40M340 291h40M340 292h40M340 293h40M340 294h40M340 295h40M340 296h40M340 297h40M340 298h40M340 299h40M340 300h40M340 301h40M340 302h40M340 303h40M340 304h40M340 305h40M340 306h40M340 307h40M340 308h40M340 309h40M340 310h40M340 311h40M340 312h40M340 313h40M340 314h40M340 315h40M340 316h40M340 317h40M340 318h40M340 319h40M350 320h30M350 321h30M350 322h30M350 323h30M350 324h30M350 325h30M350 326h30M350 327h30M350 328h30M350 329h30M350 330h30M350 331h30M350 332h30M350 333h30M350 334h30M350 335h30M350 336h30M350 337h30M350 338h30M350 339h30M350 340h30M350 341h30M350 342h30M350 343h30M350 344h30M350 345h30M350 346h30M350 347h30M350 348h30M350 349h30M350 350h30M350 351h30M350 352h30M350 353h30M350 354h30M350 355h30M350 356h30M350 357h30M350 358h30M350 359h30M350 360h30M350 361h30M350 362h30M350 363h30M350 364h30M350 365h30M350 366h30M350 367h30M350 368h30M350 369h30M350 370h30M350 371h30M350 372h30M350 373h30M350 374h30M350 375h30M350 376h30M350 377h30M350 378h30M350 379h30M350 380h30M350 381h30M350 382h30M350 383h30M350 384h30M350 385h30M350 386h30M350 387h30M350 388h30M350 389h30M340 390h40M340 391h40M340 392h40M340 393h40M340 394h40M340 395h40M340 396h40M340 397h40M340 398h40M340 399h40M340 400h40M340 401h40M340 402h40M340 403h40M340 404h40M340 405h40M340 406h40M340 407h40M340 408h40M340 409h40M340 410h10M360 410h20M340 411h10M360 411h20M340 412h10M360 412h20M340 413h10M360 413h20M340 414h10M360 414h20M340 415h10M360 415h20M340 416h10M360 416h20M340 417h10M360 417h20M340 418h10M360 418h20M340 419h10M360 419h20M340 420h30M340 421h30M340 422h30M340 423h30M340 424h30M340 425h30M340 426h30M340 427h30M340 428h30M340 429h30M330 430h40M330 431h40M330 432h40M330 433h40M330 434h40M330 435h40M330 436h40M330 437h40M330 438h40M330 439h40" />
<path stroke="#a8b0fd" d="M400 0h10M420 0h10M400 1h10M420 1h10M400 2h10M420 2h10M400 3h10M420 3h10M400 4h10M420 4h10M400 5h10M420 5h10M400 6h10M420 6h10M400 7h10M420 7h10M400 8h10M420 8h10M400 9h10M420 9h10M400 10h10M400 11h10M400 12h10M400 13h10M400 14h10M400 15h10M400 16h10M400 17h10M400 18h10M400 19h10M400 20h20M400 21h20M400 22h20M400 23h20M400 24h20M400 25h20M400 26h20M400 27h20M400 28h20M400 29h20M400 30h30M400 31h30M400 32h30M400 33h30M400 34h30M400 35h30M400 36h30M400 37h30M400 38h30M400 39h30M400 40h30M400 41h30M400 42h30M400 43h30M400 44h30M400 45h30M400 46h30M400 47h30M400 48h30M400 49h30M400 50h30M400 51h30M400 52h30M400 53h30M400 54h30M400 55h30M400 56h30M400 57h30M400 58h30M400 59h30M390 60h40M390 61h40M390 62h40M390 63h40M390 64h40M390 65h40M390 66h40M390 67h40M390 68h40M390 69h40M390 70h30M430 70h10M390 71h30M430 71h10M390 72h30M430 72h10M390 73h30M430 73h10M390 74h30M430 74h10M390 75h30M430 75h10M390 76h30M430 76h10M390 77h30M430 77h10M390 78h30M430 78h10M390 79h30M430 79h10M390 80h30M430 80h10M390 81h30M430 81h10M390 82h30M430 82h10M390 83h30M430 83h10M390 84h30M430 84h10M390 85h30M430 85h10M390 86h30M430 86h10M390 87h30M430 87h10M390 88h30M430 88h10M390 89h30M430 89h10M390 90h30M390 91h30M390 92h30M390 93h30M390 94h30M390 95h30M390 96h30M390 97h30M390 98h30M390 99h30M390 100h30M390 101h30M390 102h30M390 103h30M390 104h30M390 105h30M390 106h30M390 107h30M390 108h30M390 109h30M390 110h40M390 111h40M390 112h40M390 113h40M390 114h40M390 115h40M390 116h40M390 117h40M390 118h40M390 119h40M390 120h40M390 121h40M390 122h40M390 123h40M390 124h40M390 125h40M390 126h40M390 127h40M390 128h40M390 129h40M390 130h40M390 131h40M390 132h40M390 133h40M390 134h40M390 135h40M390 136h40M390 137h40M390 138h40M390 139h40M390 140h30M390 141h30M390 142h30M390 143h30M390 144h30M390 145h30M390 146h30M390 147h30M390 148h30M390 149h30M390 150h30M430 150h10M390 151h30M430 151h10M390 152h30M430 152h10M390 153h30M430 153h10M390 154h30M430 154h10M390 155h30M430 155h10M390 156h30M430 156h10M390 157h30M430 157h10M390 158h30M430 158h10M390 159h30M430 159h10M390 160h30M390 161h30M390 162h30M390 163h30M390 164h30M390 165h30M390 166h30M390 167h30M390 168h30M390 169h30M390 170h30M390 171h30M390 172h30M390 173h30M390 174h30M390 175h30M390 176h30M390 177h30M390 178h30M390 179h30M390 180h30M390 181h30M390 182h30M390 183h30M390 184h30M390 185h30M390 186h30M390 187h30M390 188h30M390 189h30M390 190h30M390 191h30M390 192h30M390 193h30M390 194h30M390 195h30M390 196h30M390 197h30M390 198h30M390 199h30M380 200h40M380 201h40M380 202h40M380 203h40M380 204h40M380 205h40M380 206h40M380 207h40M380 208h40M380 209h40M380 210h40M430 210h10M380 211h40M430 211h10M380 212h40M430 212h10M380 213h40M430 213h10M380 214h40M430 214h10M380 215h40M430 215h10M380 216h40M430 216h10M380 217h40M430 217h10M380 218h40M430 218h10M380 219h40M430 219h10M380 220h50M380 221h50M380 222h50M380 223h50M380 224h50M380 225h50M380 226h50M380 227h50M380 228h50M380 229h50M380 230h60M380 231h60M380 232h60M380 233h60M380 234h60M380 235h60M380 236h60M380 237h60M380 238h60M380 239h60M380 240h50M380 241h50M380 242h50M380 243h50M380 244h50M380 245h50M380 246h50M380 247h50M380 248h50M380 249h50M380 250h50M380 251h50M380 252h50M380 253h50M380 254h50M380 255h50M380 256h50M380 257h50M380 258h50M380 259h50M370 260h60M370 261h60M370 262h60M370 263h60M370 264h60M370 265h60M370 266h60M370 267h60M370 268h60M370 269h60M380 270h50M380 271h50M380 272h50M380 273h50M380 274h50M380 275h50M380 276h50M380 277h50M380 278h50M380 279h50M380 280h50M380 281h50M380 282h50M380 283h50M380 284h50M380 285h50M380 286h50M380 287h50M380 288h50M380 289h50M380 290h50M380 291h50M380 292h50M380 293h50M380 294h50M380 295h50M380 296h50M380 297h50M380 298h50M380 299h50M380 300h50M380 301h50M380 302h50M380 303h50M380 304h50M380 305h50M380 306h50M380 307h50M380 308h50M380 309h50M380 310h50M380 311h50M380 312h50M380 313h50M380 314h50M380 315h50M380 316h50M380 317h50M380 318h50M380 319h50M380 320h40M380 321h40M380 322h40M380 323h40M380 324h40M380 325h40M380 326h40M380 327h40M380 328h40M380 329h40M380 330h40M380 331h40M380 332h40M380 333h40M380 334h40M380 335h40M380 336h40M380 337h40M380 338h40M380 339h40M380 340h30M420 340h10M380 341h30M420 341h10M380 342h30M420 342h10M380 343h30M420 343h10M380 344h30M420 344h10M380 345h30M420 345h10M380 346h30M420 346h10M380 347h30M420 347h10M380 348h30M420 348h10M380 349h30M420 349h10M380 350h50M380 351h50M380 352h50M380 353h50M380 354h50M380 355h50M380 356h50M380 357h50M380 358h50M380 359h50M380 360h60M380 361h60M380 362h60M380 363h60M380 364h60M380 365h60M380 366h60M380 367h60M380 368h60M380 369h60M380 370h30M420 370h10M380 371h30M420 371h10M380 372h30M420 372h10M380 373h30M420 373h10M380 374h30M420 374h10M380 375h30M420 375h10M380 376h30M420 376h10M380 377h30M420 377h10M380 378h30M420 378h10M380 379h30M420 379h10M380 380h20M410 380h20M380 381h20M410 381h20M380 382h20M410 382h20M380 383h20M410 383h20M380 384h20M410 384h20M380 385h20M410 385h20M380 386h20M410 386h20M380 387h20M410 387h20M380 388h20M410 388h20M380 389h20M410 389h20M380 390h40M380 391h40M380 392h40M380 393h40M380 394h40M380 395h40M380 396h40M380 397h40M380 398h40M380 399h40M380 400h20M410 400h10M380 401h20M410 401h10M380 402h20M410 402h10M380 403h20M410 403h10M380 404h20M410 404h10M380 405h20M410 405h10M380 406h20M410 406h10M380 407h20M410 407h10M380 408h20M410 408h10M380 409h20M410 409h10M380 410h20M410 410h20M380 411h20M410 411h20M380 412h20M410 412h20M380 413h20M410 413h20M380 414h20M410 414h20M380 415h20M410 415h20M380 416h20M410 416h20M380 417h20M410 417h20M380 418h20M410 418h20M380 419h20M410 419h20M370 420h20M400 420h30M370 421h20M400 421h30M370 422h20M400 422h30M370 423h20M400 423h30M370 424h20M400 424h30M370 425h20M400 425h30M370 426h20M400 426h30M370 427h20M400 427h30M370 428h20M400 428h30M370 429h20M400 429h30M370 430h50M370 431h50M370 432h50M370 433h50M370 434h50M370 435h50M370 436h50M370 437h50M370 438h50M370 439h50" />
<path stroke="#b7befc" d="M350 410h10M350 411h10M350 412h10M350 413h10M350 414h10M350 415h10M350 416h10M350 417h10M350 418h10M350 419h10" />
</svg>