<svg xmlns="http://www.w3.org/2000/svg" viewBox="0 -0.5 115 215" shape-rendering="crispEdges">
<metadata>Made with Pixels to Svg http://codepen.io/shshaw/pen/XbxvNj</metadata>
<path stroke="#2e170f" d="M60 5h20M60 6h20M60 7h20M60 8h20M60 9h20M55 10h30M55 11h30M55 12h30M55 13h30M55 14h30M55 15h30M55 16h30M55 17h30M55 18h30M55 19h30M55 20h10M55 21h10M55 22h10M55 23h10M55 24h10M60 25h5M60 26h5M60 27h5M60 28h5M60 29h5M60 30h5M60 31h5M60 32h5M60 33h5M60 34h5M65 35h5M65 36h5M65 37h5M65 38h5M65 39h5" />
<path stroke="#a98968" d="M65 20h20M65 21h20M65 22h20M65 23h20M65 24h20M55 25h5M65 25h5M55 26h5M65 26h5M55 27h5M65 27h5M55 28h5M65 28h5M55 29h5M65 29h5M55 30h5M65 30h5M55 31h5M65 31h5M55 32h5M65 32h5M55 33h5M65 33h5M55 34h5M65 34h5" />
<path stroke="#b9a181" d="M70 25h15M70 26h15M70 27h15M70 28h15M70 29h15M70 30h15M70 31h15M70 32h15M70 33h15M70 34h15" />
<path stroke="#cdaf86" d="M55 35h5M55 36h5M55 37h5M55 38h5M55 39h5M46 80h4M85 80h4M46 81h4M85 81h4M46 82h4M85 82h4M46 83h4M85 83h4M46 84h4M85 84h4M46 85h4M85 85h4M46 86h4M85 86h4M46 87h4M85 87h4M46 88h4M85 88h4M46 89h4M85 89h4M46 90h4M85 90h4M46 91h4M85 91h4M46 92h4M85 92h4M46 93h4M85 93h4M46 94h4M85 94h4M46 95h4M85 95h4M46 96h4M85 96h4M46 97h4M85 97h4M46 98h4M85 98h4M46 99h4M85 99h4M46 100h4M85 100h4M46 101h4M85 101h4M46 102h4M85 102h4M46 103h4M85 103h4M46 104h4M85 104h4M46 105h4M85 105h4M46 106h4M85 106h4M46 107h4M85 107h4M46 108h4M85 108h4M46 109h4M85 109h4M46 110h4M85 110h4M46 111h4M85 111h4M46 112h4M85 112h4M46 113h4M85 113h4M46 114h4M85 114h4M46 115h4M85 115h4M46 116h4M85 116h4M46 117h4M85 117h4M46 118h4M85 118h4M46 119h4M85 119h4M46 120h4M85 120h4M46 121h4M85 121h4M46 122h4M85 122h4M46 123h4M85 123h4M46 124h4M85 124h4" />
<path stroke="#483018" d="M60 35h5M80 35h5M60 36h5M80 36h5M60 37h5M80 37h5M60 38h5M80 38h5M60 39h5M80 39h5M65 40h20M65 41h20M65 42h20M65 43h20M65 44h20M70 45h15M70 46h15M70 47h15M70 48h15M70 49h15" />
<path stroke="#f6f9f9" d="M70 35h10M70 36h10M70 37h10M70 38h10M70 39h10" />
<path stroke="#997050" d="M60 40h5M60 41h5M60 42h5M60 43h5M60 44h5M60 45h10M60 46h10M60 47h10M60 48h10M60 49h10M65 50h5M65 51h5M65 52h5M65 53h5M65 54h5" />
<path stroke="#060101" d="M55 45h5M55 46h5M55 47h5M55 48h5M55 49h5M60 50h5M75 50h5M60 51h5M75 51h5M60 52h5M75 52h5M60 53h5M75 53h5M60 54h5M75 54h5" />
<path stroke="#01162f" d="M55 50h5M55 51h5M55 52h5M55 53h5M55 54h5M49 55h11M75 55h11M49 56h11M75 56h11M49 57h11M75 57h11M49 58h11M75 58h11M49 59h11M75 59h11M47 60h41M47 61h41M47 62h41M47 63h41M47 64h41M45 65h45M45 66h45M45 67h45M45 68h45M45 69h45M45 70h45M45 71h45M45 72h45M45 73h45M45 74h45M45 75h45M45 76h45M45 77h45M45 78h45M45 79h45M55 80h25M55 81h25M55 82h25M55 83h25M55 84h25M55 85h25M55 86h25M55 87h25M55 88h25M55 89h25M55 90h25M55 91h25M55 92h25M55 93h25M55 94h25M55 95h25M55 96h25M55 97h25M55 98h25M55 99h25M55 100h25M55 101h25M55 102h25M55 103h25M55 104h25M55 105h25M55 106h25M55 107h25M55 108h25M55 109h25M55 110h25M55 111h25M55 112h25M55 113h25M55 114h25M55 115h25M55 116h25M55 117h25M55 118h25M55 119h25" />
<path stroke="#9c794b" d="M70 50h5M70 51h5M70 52h5M70 53h5M70 54h5" />
<path stroke="#000000" d="M60 55h15M60 56h15M60 57h15M60 58h15M60 59h15M55 205h10M70 205h10M55 206h10M70 206h10M55 207h10M70 207h10M55 208h10M70 208h10M55 209h10M70 209h10M55 210h10M70 210h10M55 211h10M70 211h10M55 212h10M70 212h10M55 213h10M70 213h10M55 214h10M70 214h10" />
<path stroke="#b79569" d="M50 80h5M80 80h5M50 81h5M80 81h5M50 82h5M80 82h5M50 83h5M80 83h5M50 84h5M80 84h5M50 85h5M80 85h5M50 86h5M80 86h5M50 87h5M80 87h5M50 88h5M80 88h5M50 89h5M80 89h5M50 90h5M80 90h5M50 91h5M80 91h5M50 92h5M80 92h5M50 93h5M80 93h5M50 94h5M80 94h5M50 95h5M80 95h5M50 96h5M80 96h5M50 97h5M80 97h5M50 98h5M80 98h5M50 99h5M80 99h5M50 100h5M80 100h5M50 101h5M80 101h5M50 102h5M80 102h5M50 103h5M80 103h5M50 104h5M80 104h5M50 105h5M80 105h5M50 106h5M80 106h5M50 107h5M80 107h5M50 108h5M80 108h5M50 109h5M80 109h5M50 110h5M80 110h5M50 111h5M80 111h5M50 112h5M80 112h5M50 113h5M80 113h5M50 114h5M80 114h5M50 115h5M80 115h5M50 116h5M80 116h5M50 117h5M80 117h5M50 118h5M80 118h5M50 119h5M80 119h5M50 120h5M80 120h5M50 121h5M80 121h5M50 122h5M80 122h5M50 123h5M80 123h5M50 124h5M80 124h5" />
<path stroke="#4d3f30" d="M55 120h25M55 121h25M55 122h25M55 123h25M55 124h25M55 125h25M55 126h25M55 127h25M55 128h25M55 129h25M60 130h5M70 130h5M60 131h5M70 131h5M60 132h5M70 132h5M60 133h5M70 133h5M60 134h5M70 134h5M60 135h5M70 135h5M60 136h5M70 136h5M60 137h5M70 137h5M60 138h5M70 138h5M60 139h5M70 139h5M60 140h5M70 140h5M60 141h5M70 141h5M60 142h5M70 142h5M60 143h5M70 143h5M60 144h5M70 144h5M60 145h5M70 145h5M60 146h5M70 146h5M60 147h5M70 147h5M60 148h5M70 148h5M60 149h5M70 149h5M60 150h5M70 150h5M60 151h5M70 151h5M60 152h5M70 152h5M60 153h5M70 153h5M60 154h5M70 154h5M60 155h5M70 155h5M60 156h5M70 156h5M60 157h5M70 157h5M60 158h5M70 158h5M60 159h5M70 159h5M60 160h5M70 160h5M60 161h5M70 161h5M60 162h5M70 162h5M60 163h5M70 163h5M60 164h5M70 164h5M60 165h5M70 165h5M60 166h5M70 166h5M60 167h5M70 167h5M60 168h5M70 168h5M60 169h5M70 169h5M60 170h5M70 170h5M60 171h5M70 171h5M60 172h5M70 172h5M60 173h5M70 173h5M60 174h5M70 174h5M60 175h5M70 175h5M60 176h5M70 176h5M60 177h5M70 177h5M60 178h5M70 178h5M60 179h5M70 179h5M60 180h5M70 180h5M60 181h5M70 181h5M60 182h5M70 182h5M60 183h5M70 183h5M60 184h5M70 184h5M60 185h5M70 185h5M60 186h5M70 186h5M60 187h5M70 187h5M60 188h5M70 188h5M60 189h5M70 189h5M60 190h5M70 190h5M60 191h5M70 191h5M60 192h5M70 192h5M60 193h5M70 193h5M60 194h5M70 194h5M60 195h5M70 195h5M60 196h5M70 196h5M60 197h5M70 197h5M60 198h5M70 198h5M60 199h5M70 199h5M60 200h5M70 200h5M60 201h5M70 201h5M60 202h5M70 202h5M60 203h5M70 203h5M60 204h5M70 204h5" />
<path stroke="#3f3428" d="M55 130h5M75 130h5M55 131h5M75 131h5M55 132h5M75 132h5M55 133h5M75 133h5M55 134h5M75 134h5M55 135h5M75 135h5M55 136h5M75 136h5M55 137h5M75 137h5M55 138h5M75 138h5M55 139h5M75 139h5M55 140h5M75 140h5M55 141h5M75 141h5M55 142h5M75 142h5M55 143h5M75 143h5M55 144h5M75 144h5M55 145h5M75 145h5M55 146h5M75 146h5M55 147h5M75 147h5M55 148h5M75 148h5M55 149h5M75 149h5M55 150h5M75 150h5M55 151h5M75 151h5M55 152h5M75 152h5M55 153h5M75 153h5M55 154h5M75 154h5M55 155h5M75 155h5M55 156h5M75 156h5M55 157h5M75 157h5M55 158h5M75 158h5M55 159h5M75 159h5M55 160h5M75 160h5M55 161h5M75 161h5M55 162h5M75 162h5M55 163h5M75 163h5M55 164h5M75 164h5M55 165h5M75 165h5M55 166h5M75 166h5M55 167h5M75 167h5M55 168h5M75 168h5M55 169h5M75 169h5M55 170h5M75 170h5M55 171h5M75 171h5M55 172h5M75 172h5M55 173h5M75 173h5M55 174h5M75 174h5M55 175h5M75 175h5M55 176h5M75 176h5M55 177h5M75 177h5M55 178h5M75 178h5M55 179h5M75 179h5M55 180h5M75 180h5M55 181h5M75 181h5M55 182h5M75 182h5M55 183h5M75 183h5M55 184h5M75 184h5M55 185h5M75 185h5M55 186h5M75 186h5M55 187h5M75 187h5M55 188h5M75 188h5M55 189h5M75 189h5M55 190h5M75 190h5M55 191h5M75 191h5M55 192h5M75 192h5M55 193h5M75 193h5M55 194h5M75 194h5M55 195h5M75 195h5M55 196h5M75 196h5M55 197h5M75 197h5M55 198h5M75 198h5M55 199h5M75 199h5M55 200h5M75 200h5M55 201h5M75 201h5M55 202h5M75 202h5M55 203h5M75 203h5M55 204h5M75 204h5" />
<path stroke="#3e3e3e" d="M10 210h45M65 210h5M80 210h10M10 211h45M65 211h5M80 211h10M10 212h45M65 212h5M80 212h10M10 213h45M65 213h5M80 213h10M10 214h45M65 214h5M80 214h10" />
</svg>