<svg xmlns="http://www.w3.org/2000/svg" viewBox="0 -0.5 115 215" shape-rendering="crispEdges">
<metadata>Made with Pixels to Svg http://codepen.io/shshaw/pen/XbxvNj</metadata>
<path stroke="#2e170f" d="M75 5h20M75 6h20M75 7h20M75 8h20M75 9h20M70 10h30M70 11h30M70 12h30M70 13h30M70 14h30M70 15h30M70 16h30M70 17h30M70 18h30M70 19h30M90 20h10M90 21h10M90 22h10M90 23h10M90 24h10M90 25h5M90 26h5M90 27h5M90 28h5M90 29h5M90 30h5M90 31h5M90 32h5M90 33h5M90 34h5M85 35h5M85 36h5M85 37h5M85 38h5M85 39h5" />
<path stroke="#a98968" d="M70 20h20M70 21h20M70 22h20M70 23h20M70 24h20M85 25h5M95 25h5M85 26h5M95 26h5M85 27h5M95 27h5M85 28h5M95 28h5M85 29h5M95 29h5M85 30h5M95 30h5M85 31h5M95 31h5M85 32h5M95 32h5M85 33h5M95 33h5M85 34h5M95 34h5" />
<path stroke="#b9a181" d="M70 25h15M70 26h15M70 27h15M70 28h15M70 29h15M70 30h15M70 31h15M70 32h15M70 33h15M70 34h15M95 35h5M95 36h5M95 37h5M95 38h5M95 39h5" />
<path stroke="#483018" d="M70 35h5M90 35h5M70 36h5M90 36h5M70 37h5M90 37h5M70 38h5M90 38h5M70 39h5M90 39h5M70 40h20M70 41h20M70 42h20M70 43h20M70 44h20M70 45h15M70 46h15M70 47h15M70 48h15M70 49h15" />
<path stroke="#f6f9f9" d="M75 35h10M75 36h10M75 37h10M75 38h10M75 39h10" />
<path stroke="#997050" d="M90 40h5M90 41h5M90 42h5M90 43h5M90 44h5M85 45h10M85 46h10M85 47h10M85 48h10M85 49h10M85 50h5M85 51h5M85 52h5M85 53h5M85 54h5" />
<path stroke="#060101" d="M95 45h5M95 46h5M95 47h5M95 48h5M95 49h5M75 50h5M90 50h5M75 51h5M90 51h5M75 52h5M90 52h5M75 53h5M90 53h5M75 54h5M90 54h5" />
<path stroke="#9c794b" d="M80 50h5M80 51h5M80 52h5M80 53h5M80 54h5" />
<path stroke="#01162f" d="M95 50h5M95 51h5M95 52h5M95 53h5M95 54h5M69 55h11M95 55h11M69 56h11M95 56h11M69 57h11M95 57h11M69 58h11M95 58h11M69 59h11M95 59h11M67 60h41M67 61h41M67 62h41M67 63h41M67 64h41M65 65h45M65 66h45M65 67h45M65 68h45M65 69h45M65 70h45M65 71h45M65 72h45M65 73h45M65 74h45M65 75h45M65 76h45M65 77h45M65 78h45M65 79h45M75 80h25M75 81h25M75 82h25M75 83h25M75 84h25M75 85h25M75 86h25M75 87h25M75 88h25M75 89h25M75 90h25M75 91h25M75 92h25M75 93h25M75 94h25M75 95h25M75 96h25M75 97h25M75 98h25M75 99h25M75 100h25M75 101h25M75 102h25M75 103h25M75 104h25M75 105h25M75 106h25M75 107h25M75 108h25M75 109h25M75 110h25M75 111h25M75 112h25M75 113h25M75 114h25M75 115h25M75 116h25M75 117h25M75 118h25M75 119h25" />
<path stroke="#000000" d="M80 55h15M80 56h15M80 57h15M80 58h15M80 59h15M75 205h10M90 205h10M75 206h10M90 206h10M75 207h10M90 207h10M75 208h10M90 208h10M75 209h10M90 209h10M75 210h10M90 210h10M75 211h10M90 211h10M75 212h10M90 212h10M75 213h10M90 213h10M75 214h10M90 214h10" />
<path stroke="#cdaf86" d="M66 80h4M105 80h4M66 81h4M105 81h4M66 82h4M105 82h4M66 83h4M105 83h4M66 84h4M105 84h4M66 85h4M105 85h4M66 86h4M105 86h4M66 87h4M105 87h4M66 88h4M105 88h4M66 89h4M105 89h4M66 90h4M105 90h4M66 91h4M105 91h4M66 92h4M105 92h4M66 93h4M105 93h4M66 94h4M105 94h4M66 95h4M105 95h4M66 96h4M105 96h4M66 97h4M105 97h4M66 98h4M105 98h4M66 99h4M105 99h4M66 100h4M105 100h4M66 101h4M105 101h4M66 102h4M105 102h4M66 103h4M105 103h4M66 104h4M105 104h4M66 105h4M105 105h4M66 106h4M105 106h4M66 107h4M105 107h4M66 108h4M105 108h4M66 109h4M105 109h4M66 110h4M105 110h4M66 111h4M105 111h4M66 112h4M105 112h4M66 113h4M105 113h4M66 114h4M105 114h4M66 115h4M105 115h4M66 116h4M105 116h4M66 117h4M105 117h4M66 118h4M105 118h4M66 119h4M105 119h4M66 120h4M105 120h4M66 121h4M105 121h4M66 122h4M105 122h4M66 123h4M105 123h4M66 124h4M105 124h4" />
<path stroke="#b79569" d="M70 80h5M100 80h5M70 81h5M100 81h5M70 82h5M100 82h5M70 83h5M100 83h5M70 84h5M100 84h5M70 85h5M100 85h5M70 86h5M100 86h5M70 87h5M100 87h5M70 88h5M100 88h5M70 89h5M100 89h5M70 90h5M100 90h5M70 91h5M100 91h5M70 92h5M100 92h5M70 93h5M100 93h5M70 94h5M100 94h5M70 95h5M100 95h5M70 96h5M100 96h5M70 97h5M100 97h5M70 98h5M100 98h5M70 99h5M100 99h5M70 100h5M100 100h5M70 101h5M100 101h5M70 102h5M100 102h5M70 103h5M100 103h5M70 104h5M100 104h5M70 105h5M100 105h5M70 106h5M100 106h5M70 107h5M100 107h5M70 108h5M100 108h5M70 109h5M100 109h5M70 110h5M100 110h5M70 111h5M100 111h5M70 112h5M100 112h5M70 113h5M100 113h5M70 114h5M100 114h5M70 115h5M100 115h5M70 116h5M100 116h5M70 117h5M100 117h5M70 118h5M100 118h5M70 119h5M100 119h5M70 120h5M100 120h5M70 121h5M100 121h5M70 122h5M100 122h5M70 123h5M100 123h5M70 124h5M100 124h5" />
<path stroke="#4d3f30" d="M75 120h25M75 121h25M75 122h25M75 123h25M75 124h25M75 125h25M75 126h25M75 127h25M75 128h25M75 129h25M80 130h5M90 130h5M80 131h5M90 131h5M80 132h5M90 132h5M80 133h5M90 133h5M80 134h5M90 134h5M80 135h5M90 135h5M80 136h5M90 136h5M80 137h5M90 137h5M80 138h5M90 138h5M80 139h5M90 139h5M80 140h5M90 140h5M80 141h5M90 141h5M80 142h5M90 142h5M80 143h5M90 143h5M80 144h5M90 144h5M80 145h5M90 145h5M80 146h5M90 146h5M80 147h5M90 147h5M80 148h5M90 148h5M80 149h5M90 149h5M80 150h5M90 150h5M80 151h5M90 151h5M80 152h5M90 152h5M80 153h5M90 153h5M80 154h5M90 154h5M80 155h5M90 155h5M80 156h5M90 156h5M80 157h5M90 157h5M80 158h5M90 158h5M80 159h5M90 159h5M80 160h5M90 160h5M80 161h5M90 161h5M80 162h5M90 162h5M80 163h5M90 163h5M80 164h5M90 164h5M80 165h5M90 165h5M80 166h5M90 166h5M80 167h5M90 167h5M80 168h5M90 168h5M80 169h5M90 169h5M80 170h5M90 170h5M80 171h5M90 171h5M80 172h5M90 172h5M80 173h5M90 173h5M80 174h5M90 174h5M80 175h5M90 175h5M80 176h5M90 176h5M80 177h5M90 177h5M80 178h5M90 178h5M80 179h5M90 179h5M80 180h5M90 180h5M80 181h5M90 181h5M80 182h5M90 182h5M80 183h5M90 183h5M80 184h5M90 184h5M80 185h5M90 185h5M80 186h5M90 186h5M80 187h5M90 187h5M80 188h5M90 188h5M80 189h5M90 189h5M80 190h5M90 190h5M80 191h5M90 191h5M80 192h5M90 192h5M80 193h5M90 193h5M80 194h5M90 194h5M80 195h5M90 195h5M80 196h5M90 196h5M80 197h5M90 197h5M80 198h5M90 198h5M80 199h5M90 199h5M80 200h5M90 200h5M80 201h5M90 201h5M80 202h5M90 202h5M80 203h5M90 203h5M80 204h5M90 204h5" />
<path stroke="#3f3428" d="M75 130h5M95 130h5M75 131h5M95 131h5M75 132h5M95 132h5M75 133h5M95 133h5M75 134h5M95 134h5M75 135h5M95 135h5M75 136h5M95 136h5M75 137h5M95 137h5M75 138h5M95 138h5M75 139h5M95 139h5M75 140h5M95 140h5M75 141h5M95 141h5M75 142h5M95 142h5M75 143h5M95 143h5M75 144h5M95 144h5M75 145h5M95 145h5M75 146h5M95 146h5M75 147h5M95 147h5M75 148h5M95 148h5M75 149h5M95 149h5M75 150h5M95 150h5M75 151h5M95 151h5M75 152h5M95 152h5M75 153h5M95 153h5M75 154h5M95 154h5M75 155h5M95 155h5M75 156h5M95 156h5M75 157h5M95 157h5M75 158h5M95 158h5M75 159h5M95 159h5M75 160h5M95 160h5M75 161h5M95 161h5M75 162h5M95 162h5M75 163h5M95 163h5M75 164h5M95 164h5M75 165h5M95 165h5M75 166h5M95 166h5M75 167h5M95 167h5M75 168h5M95 168h5M75 169h5M95 169h5M75 170h5M95 170h5M75 171h5M95 171h5M75 172h5M95 172h5M75 173h5M95 173h5M75 174h5M95 174h5M75 175h5M95 175h5M75 176h5M95 176h5M75 177h5M95 177h5M75 178h5M95 178h5M75 179h5M95 179h5M75 180h5M95 180h5M75 181h5M95 181h5M75 182h5M95 182h5M75 183h5M95 183h5M75 184h5M95 184h5M75 185h5M95 185h5M75 186h5M95 186h5M75 187h5M95 187h5M75 188h5M95 188h5M75 189h5M95 189h5M75 190h5M95 190h5M75 191h5M95 191h5M75 192h5M95 192h5M75 193h5M95 193h5M75 194h5M95 194h5M75 195h5M95 195h5M75 196h5M95 196h5M75 197h5M95 197h5M75 198h5M95 198h5M75 199h5M95 199h5M75 200h5M95 200h5M75 201h5M95 201h5M75 202h5M95 202h5M75 203h5M95 203h5M75 204h5M95 204h5" />
<path stroke="#3e3e3e" d="M30 210h45M85 210h5M100 210h10M30 211h45M85 211h5M100 211h10M30 212h45M85 212h5M100 212h10M30 213h45M85 213h5M100 213h10M30 214h45M85 214h5M100 214h10" />
</svg>