<svg xmlns="http://www.w3.org/2000/svg" viewBox="0 -0.5 120 210" shape-rendering="crispEdges">
<metadata>Made with Pixels to Svg http://codepen.io/shshaw/pen/XbxvNj</metadata>
<path stroke="#2e170f" d="M35 0h20M35 1h20M35 2h20M35 3h20M35 4h20M30 5h30M30 6h30M30 7h30M30 8h30M30 9h30M30 10h30M30 11h30M30 12h30M30 13h30M30 14h30M30 15h20M30 16h20M30 17h20M30 18h20M30 19h20M30 20h10M45 20h5M30 21h10M45 21h5M30 22h10M45 22h5M30 23h10M45 23h5M30 24h10M45 24h5M30 25h10M45 25h5M30 26h10M45 26h5M30 27h10M45 27h5M30 28h10M45 28h5M30 29h10M45 29h5M45 30h10M45 31h10M45 32h10M45 33h10M45 34h10" />
<path stroke="#a98968" d="M50 15h10M50 16h10M50 17h10M50 18h10M50 19h10M40 20h5M40 21h5M40 22h5M40 23h5M40 24h5M40 25h5M40 26h5M40 27h5M40 28h5M40 29h5" />
<path stroke="#b9a181" d="M50 20h10M50 21h10M50 22h10M50 23h10M50 24h10M50 25h10M50 26h10M50 27h10M50 28h10M50 29h10" />
<path stroke="#997050" d="M35 30h5M35 31h5M35 32h5M35 33h5M35 34h5M35 35h15M35 36h15M35 37h15M35 38h15M35 39h15M40 40h15M40 41h15M40 42h15M40 43h15M40 44h15" />
<path stroke="#cdaf86" d="M40 30h5M40 31h5M40 32h5M40 33h5M40 34h5M35 60h5M35 61h5M35 62h5M35 63h5M35 64h5M35 65h5M85 65h10M35 66h5M85 66h10M35 67h5M85 67h10M35 68h5M85 68h10M35 69h5M85 69h10M35 70h50M35 71h50M35 72h50M35 73h50M35 74h50" />
<path stroke="#f6f9f9" d="M55 30h5M55 31h5M55 32h5M55 33h5M55 34h5" />
<path stroke="#483018" d="M50 35h10M50 36h10M50 37h10M50 38h10M50 39h10M55 40h5M55 41h5M55 42h5M55 43h5M55 44h5" />
<path stroke="#000000" d="M30 40h10M30 41h10M30 42h10M30 43h10M30 44h10M40 45h5M50 45h5M40 46h5M50 46h5M40 47h5M50 47h5M40 48h5M50 48h5M40 49h5M50 49h5M0 180h10M0 181h10M0 182h10M0 183h10M0 184h10M0 185h15M0 186h15M0 187h15M0 188h15M0 189h15M5 190h10M5 191h10M5 192h10M5 193h10M5 194h10M5 195h10M5 196h10M5 197h10M5 198h10M5 199h10M10 200h5M65 200h20M10 201h5M65 201h20M10 202h5M65 202h20M10 203h5M65 203h20M10 204h5M65 204h20M65 205h25M65 206h25M65 207h25M65 208h25M65 209h25" />
<path stroke="#01162f" d="M30 45h10M30 46h10M30 47h10M30 48h10M30 49h10M25 50h30M25 51h30M25 52h30M25 53h30M25 54h30M25 55h30M25 56h30M25 57h30M25 58h30M25 59h30M25 60h5M40 60h15M25 61h5M40 61h15M25 62h5M40 62h15M25 63h5M40 63h15M25 64h5M40 64h15M25 65h5M40 65h15M25 66h5M40 66h15M25 67h5M40 67h15M25 68h5M40 68h15M25 69h5M40 69h15M25 70h5M25 71h5M25 72h5M25 73h5M25 74h5M25 75h10M25 76h10M25 77h10M25 78h10M25 79h10M25 80h30M25 81h30M25 82h30M25 83h30M25 84h30M25 85h30M25 86h30M25 87h30M25 88h30M25 89h30M25 90h30M25 91h30M25 92h30M25 93h30M25 94h30M25 95h30M25 96h30M25 97h30M25 98h30M25 99h30M25 100h30M25 101h30M25 102h30M25 103h30M25 104h30M30 105h25M30 106h25M30 107h25M30 108h25M30 109h25M30 110h25M30 111h25M30 112h25M30 113h25M30 114h25M30 115h25M30 116h25M30 117h25M30 118h25M30 119h25M30 120h25M30 121h25M30 122h25M30 123h25M30 124h25" />
<path stroke="#9c794b" d="M45 45h5M45 46h5M45 47h5M45 48h5M45 49h5" />
<path stroke="#b79569" d="M30 60h5M30 61h5M30 62h5M30 63h5M30 64h5M30 65h5M30 66h5M30 67h5M30 68h5M30 69h5M30 70h5M85 70h10M30 71h5M85 71h10M30 72h5M85 72h10M30 73h5M85 73h10M30 74h5M85 74h10M35 75h50M35 76h50M35 77h50M35 78h50M35 79h50" />
<path stroke="#3f3428" d="M30 125h5M50 125h5M30 126h5M50 126h5M30 127h5M50 127h5M30 128h5M50 128h5M30 129h5M50 129h5M30 130h5M50 130h5M30 131h5M50 131h5M30 132h5M50 132h5M30 133h5M50 133h5M30 134h5M50 134h5M30 135h5M50 135h5M30 136h5M50 136h5M30 137h5M50 137h5M30 138h5M50 138h5M30 139h5M50 139h5M30 140h5M50 140h5M30 141h5M50 141h5M30 142h5M50 142h5M30 143h5M50 143h5M30 144h5M50 144h5M30 145h5M45 145h5M30 146h5M45 146h5M30 147h5M45 147h5M30 148h5M45 148h5M30 149h5M45 149h5M30 150h5M50 150h5M30 151h5M50 151h5M30 152h5M50 152h5M30 153h5M50 153h5M30 154h5M50 154h5M25 155h5M55 155h5M25 156h5M55 156h5M25 157h5M55 157h5M25 158h5M55 158h5M25 159h5M55 159h5M25 160h5M55 160h5M25 161h5M55 161h5M25 162h5M55 162h5M25 163h5M55 163h5M25 164h5M55 164h5M20 165h5M60 165h5M20 166h5M60 166h5M20 167h5M60 167h5M20 168h5M60 168h5M20 169h5M60 169h5M15 170h5M60 170h5M15 171h5M60 171h5M15 172h5M60 172h5M15 173h5M60 173h5M15 174h5M60 174h5M5 175h10M60 175h5M5 176h10M60 176h5M5 177h10M60 177h5M5 178h10M60 178h5M5 179h10M60 179h5M65 180h5M65 181h5M65 182h5M65 183h5M65 184h5M65 185h5M65 186h5M65 187h5M65 188h5M65 189h5M65 190h5M65 191h5M65 192h5M65 193h5M65 194h5M65 195h5M65 196h5M65 197h5M65 198h5M65 199h5" />
<path stroke="#4d3f30" d="M35 125h15M35 126h15M35 127h15M35 128h15M35 129h15M35 130h15M35 131h15M35 132h15M35 133h15M35 134h15M35 135h15M55 135h5M35 136h15M55 136h5M35 137h15M55 137h5M35 138h15M55 138h5M35 139h15M55 139h5M35 140h15M55 140h5M35 141h15M55 141h5M35 142h15M55 142h5M35 143h15M55 143h5M35 144h15M55 144h5M35 145h10M50 145h15M35 146h10M50 146h15M35 147h10M50 147h15M35 148h10M50 148h15M35 149h10M50 149h15M35 150h10M55 150h10M35 151h10M55 151h10M35 152h10M55 152h10M35 153h10M55 153h10M35 154h10M55 154h10M30 155h10M60 155h5M30 156h10M60 156h5M30 157h10M60 157h5M30 158h10M60 158h5M30 159h10M60 159h5M30 160h10M60 160h5M30 161h10M60 161h5M30 162h10M60 162h5M30 163h10M60 163h5M30 164h10M60 164h5M25 165h10M65 165h5M25 166h10M65 166h5M25 167h10M65 167h5M25 168h10M65 168h5M25 169h10M65 169h5M20 170h10M65 170h5M20 171h10M65 171h5M20 172h10M65 172h5M20 173h10M65 173h5M20 174h10M65 174h5M15 175h10M65 175h5M15 176h10M65 176h5M15 177h10M65 177h5M15 178h10M65 178h5M15 179h10M65 179h5M10 180h10M70 180h5M10 181h10M70 181h5M10 182h10M70 182h5M10 183h10M70 183h5M10 184h10M70 184h5M70 185h5M70 186h5M70 187h5M70 188h5M70 189h5M70 190h5M70 191h5M70 192h5M70 193h5M70 194h5M70 195h5M70 196h5M70 197h5M70 198h5M70 199h5" />
<path stroke="#3e3e3e" d="M0 205h65M0 206h65M0 207h65M0 208h65M0 209h65" />
</svg>