<svg xmlns="http://www.w3.org/2000/svg" viewBox="0 -0.5 110 220" shape-rendering="crispEdges">
<metadata>Made with Pixels to Svg http://codepen.io/shshaw/pen/XbxvNj</metadata>
<path stroke="#2e170f" d="M25 1h20M25 2h20M25 3h20M25 4h20M20 5h30M20 6h30M20 7h30M20 8h30M20 9h30M20 10h30M20 11h30M20 12h30M20 13h30M20 14h30M20 15h15M20 16h15M20 17h15M20 18h15M20 19h15M20 20h5M30 20h5M20 21h5M30 21h5M20 22h5M30 22h5M20 23h5M30 23h5M20 24h5M30 24h5M20 25h5M30 25h5M20 26h5M30 26h5M20 27h5M30 27h5M20 28h5M30 28h5M20 29h5M30 29h5M30 30h10M30 31h10M30 32h10M30 33h10M30 34h10" />
<path stroke="#a98968" d="M35 15h15M35 16h15M35 17h15M35 18h15M35 19h15M25 20h5M25 21h5M25 22h5M25 23h5M25 24h5M25 25h5M25 26h5M25 27h5M25 28h5M25 29h5" />
<path stroke="#b9a181" d="M35 20h15M35 21h15M35 22h15M35 23h15M35 24h15M35 25h15M35 26h15M35 27h15M35 28h15M35 29h15" />
<path stroke="#cdaf86" d="M25 30h5M25 31h5M25 32h5M25 33h5M25 34h5M25 60h5M25 61h5M25 62h5M25 63h5M25 64h5M25 65h5M75 65h10M25 66h5M75 66h10M25 67h5M75 67h10M25 68h5M75 68h10M25 69h5M75 69h10M25 70h50M25 71h50M25 72h50M25 73h50M25 74h50" />
<path stroke="#f6f9f9" d="M40 30h10M40 31h10M40 32h10M40 33h10M40 34h10" />
<path stroke="#997050" d="M25 35h10M25 36h10M25 37h10M25 38h10M25 39h10M30 40h10M30 41h10M30 42h10M30 43h10M30 44h10" />
<path stroke="#483018" d="M35 35h15M35 36h15M35 37h15M35 38h15M35 39h15M40 40h10M40 41h10M40 42h10M40 43h10M40 44h10" />
<path stroke="#01162f" d="M20 40h10M20 41h10M20 42h10M20 43h10M20 44h10M20 45h15M40 45h5M20 46h15M40 46h5M20 47h15M40 47h5M20 48h15M40 48h5M20 49h15M40 49h5M15 50h30M15 51h30M15 52h30M15 53h30M15 54h30M15 55h30M15 56h30M15 57h30M15 58h30M15 59h30M15 60h5M30 60h20M15 61h5M30 61h20M15 62h5M30 62h20M15 63h5M30 63h20M15 64h5M30 64h20M15 65h5M30 65h20M15 66h5M30 66h20M15 67h5M30 67h20M15 68h5M30 68h20M15 69h5M30 69h20M15 70h5M15 71h5M15 72h5M15 73h5M15 74h5M15 75h10M15 76h10M15 77h10M15 78h10M15 79h10M15 80h30M15 81h30M15 82h30M15 83h30M15 84h30M15 85h30M15 86h30M15 87h30M15 88h30M15 89h30M15 90h30M15 91h30M15 92h30M15 93h30M15 94h30M15 95h30M15 96h30M15 97h30M15 98h30M15 99h30M15 100h30M15 101h30M15 102h30M15 103h30M15 104h30M20 105h25M20 106h25M20 107h25M20 108h25M20 109h25M20 110h25M20 111h25M20 112h25M20 113h25M20 114h25M20 115h25M20 116h25M20 117h25M20 118h25M20 119h25M20 120h20M20 121h20M20 122h20M20 123h20M20 124h20" />
<path stroke="#9c794b" d="M35 45h5M35 46h5M35 47h5M35 48h5M35 49h5" />
<path stroke="#b79569" d="M20 60h5M20 61h5M20 62h5M20 63h5M20 64h5M20 65h5M20 66h5M20 67h5M20 68h5M20 69h5M20 70h5M75 70h10M20 71h5M75 71h10M20 72h5M75 72h10M20 73h5M75 73h10M20 74h5M75 74h10M25 75h50M25 76h50M25 77h50M25 78h50M25 79h50" />
<path stroke="#b1b9c2" d="M40 120h5M40 121h5M40 122h5M40 123h5M40 124h5" />
<path stroke="#3f3428" d="M25 125h10M25 126h10M25 127h10M25 128h10M25 129h10M25 130h5M25 131h5M25 132h5M25 133h5M25 134h5M25 135h5M25 136h5M25 137h5M25 138h5M25 139h5M25 140h5M35 140h5M25 141h5M35 141h5M25 142h5M35 142h5M25 143h5M35 143h5M25 144h5M35 144h5M25 145h5M40 145h5M25 146h5M40 146h5M25 147h5M40 147h5M25 148h5M40 148h5M25 149h5M40 149h5M25 150h5M40 150h5M25 151h5M40 151h5M25 152h5M40 152h5M25 153h5M40 153h5M25 154h5M40 154h5M25 155h5M40 155h5M25 156h5M40 156h5M25 157h5M40 157h5M25 158h5M40 158h5M25 159h5M40 159h5M25 160h15M25 161h15M25 162h15M25 163h15M25 164h15M15 165h5M25 165h5M15 166h15M15 167h15M15 168h15M15 169h15M25 175h5M25 176h5M25 177h5M25 178h5M25 179h5M25 180h5M25 181h5M25 182h5M25 183h5M25 184h5M25 185h5M25 186h5M25 187h5M25 188h5M25 189h5M25 190h5M25 191h5M25 192h5M25 193h5M25 194h5M25 195h5M25 196h5M25 197h5M25 198h5M25 199h5M25 200h5M25 201h5M25 202h5M25 203h5M25 204h5M25 205h5M25 206h5M25 207h5M25 208h5M25 209h5" />
<path stroke="#4d3f30" d="M35 125h10M35 126h10M35 127h10M35 128h10M35 129h10M30 130h20M30 131h20M30 132h20M30 133h20M30 134h20M30 135h20M30 136h20M30 137h20M30 138h20M30 139h20M30 140h5M40 140h10M30 141h5M40 141h10M30 142h5M40 142h10M30 143h5M40 143h10M30 144h5M40 144h10M30 145h5M45 145h5M30 146h5M45 146h5M30 147h5M45 147h5M30 148h5M45 148h5M30 149h5M45 149h5M30 150h5M45 150h10M30 151h5M45 151h10M30 152h5M45 152h10M30 153h5M45 153h10M30 154h5M45 154h10M30 155h5M45 155h10M30 156h5M45 156h10M30 157h5M45 157h10M30 158h5M45 158h10M30 159h5M45 159h10M40 160h15M40 161h15M40 162h15M40 163h15M40 164h15M20 165h5M30 165h20M30 166h20M30 167h20M30 168h20M30 169h20M15 170h20M15 171h20M15 172h20M15 173h20M15 174h20M15 175h10M30 175h5M15 176h10M30 176h5M15 177h10M30 177h5M15 178h10M30 178h5M15 179h10M30 179h5M30 180h5M30 181h5M30 182h5M30 183h5M30 184h5M30 185h5M30 186h5M30 187h5M30 188h5M30 189h5M30 190h5M30 191h5M30 192h5M30 193h5M30 194h5M30 195h5M30 196h5M30 197h5M30 198h5M30 199h5M30 200h5M30 201h5M30 202h5M30 203h5M30 204h5M30 205h5M30 206h5M30 207h5M30 208h5M30 209h5" />
<path stroke="#000000" d="M5 165h10M5 166h10M5 167h10M5 168h10M5 169h10M5 170h10M5 171h10M5 172h10M5 173h10M5 174h10M5 175h10M5 176h10M5 177h10M5 178h10M5 179h10M5 180h10M5 181h10M5 182h10M5 183h10M5 184h10M5 185h10M5 186h10M5 187h10M5 188h10M5 189h10M5 190h5M5 191h5M5 192h5M5 193h5M5 194h5M25 210h20M25 211h20M25 212h20M25 213h20M25 214h20M25 215h25M25 216h25M25 217h25M25 218h25M25 219h25" />
<path stroke="#3e3e3e" d="M0 215h25M0 216h25M0 217h25M0 218h25M0 219h25" />
</svg>