<svg xmlns="http://www.w3.org/2000/svg" viewBox="0 -0.5 115 215" shape-rendering="crispEdges">
<metadata>Made with Pixels to Svg http://codepen.io/shshaw/pen/XbxvNj</metadata>
<path stroke="#2e170f" d="M15 0h20M15 1h20M15 2h20M15 3h20M15 4h20M10 5h30M10 6h30M10 7h30M10 8h30M10 9h30M10 10h30M10 11h30M10 12h30M10 13h30M10 14h30M10 15h15M10 16h15M10 17h15M10 18h15M10 19h15M10 20h5M20 20h5M10 21h5M20 21h5M10 22h5M20 22h5M10 23h5M20 23h5M10 24h5M20 24h5M10 25h5M20 25h5M10 26h5M20 26h5M10 27h5M20 27h5M10 28h5M20 28h5M10 29h5M20 29h5M20 30h10M20 31h10M20 32h10M20 33h10M20 34h10" />
<path stroke="#a98968" d="M25 15h15M25 16h15M25 17h15M25 18h15M25 19h15M15 20h5M15 21h5M15 22h5M15 23h5M15 24h5M15 25h5M15 26h5M15 27h5M15 28h5M15 29h5" />
<path stroke="#b9a181" d="M25 20h15M25 21h15M25 22h15M25 23h15M25 24h15M25 25h15M25 26h15M25 27h15M25 28h15M25 29h15" />
<path stroke="#cdaf86" d="M15 30h5M15 31h5M15 32h5M15 33h5M15 34h5M15 60h5M15 61h5M15 62h5M15 63h5M15 64h5M15 65h5M65 65h10M15 66h5M65 66h10M15 67h5M65 67h10M15 68h5M65 68h10M15 69h5M65 69h10M15 70h50M15 71h50M15 72h50M15 73h50M15 74h50" />
<path stroke="#f6f9f9" d="M30 30h10M30 31h10M30 32h10M30 33h10M30 34h10" />
<path stroke="#997050" d="M15 35h10M15 36h10M15 37h10M15 38h10M15 39h10M20 40h10M20 41h10M20 42h10M20 43h10M20 44h10" />
<path stroke="#483018" d="M25 35h15M25 36h15M25 37h15M25 38h15M25 39h15M30 40h10M30 41h10M30 42h10M30 43h10M30 44h10" />
<path stroke="#01162f" d="M10 40h10M10 41h10M10 42h10M10 43h10M10 44h10M10 45h15M30 45h5M10 46h15M30 46h5M10 47h15M30 47h5M10 48h15M30 48h5M10 49h15M30 49h5M5 50h30M5 51h30M5 52h30M5 53h30M5 54h30M5 55h35M5 56h35M5 57h35M5 58h35M5 59h35M5 60h5M20 60h20M5 61h5M20 61h20M5 62h5M20 62h20M5 63h5M20 63h20M5 64h5M20 64h20M5 65h5M20 65h20M5 66h5M20 66h20M5 67h5M20 67h20M5 68h5M20 68h20M5 69h5M20 69h20M5 70h5M5 71h5M5 72h5M5 73h5M5 74h5M5 75h10M5 76h10M5 77h10M5 78h10M5 79h10M5 80h35M5 81h35M5 82h35M5 83h35M5 84h35M5 85h35M5 86h35M5 87h35M5 88h35M5 89h35M5 90h35M5 91h35M5 92h35M5 93h35M5 94h35M5 95h35M5 96h35M5 97h35M5 98h35M5 99h35M5 100h35M5 101h35M5 102h35M5 103h35M5 104h35M10 105h30M10 106h30M10 107h30M10 108h30M10 109h30M10 110h30M10 111h30M10 112h30M10 113h30M10 114h30M10 115h30M10 116h30M10 117h30M10 118h30M10 119h30M10 120h20M35 120h5M10 121h20M35 121h5M10 122h20M35 122h5M10 123h20M35 123h5M10 124h20M35 124h5M10 125h5M10 126h5M10 127h5M10 128h5M10 129h5" />
<path stroke="#9c794b" d="M25 45h5M25 46h5M25 47h5M25 48h5M25 49h5" />
<path stroke="#b79569" d="M10 60h5M10 61h5M10 62h5M10 63h5M10 64h5M10 65h5M10 66h5M10 67h5M10 68h5M10 69h5M10 70h5M65 70h10M10 71h5M65 71h10M10 72h5M65 72h10M10 73h5M65 73h10M10 74h5M65 74h10M15 75h50M15 76h50M15 77h50M15 78h50M15 79h50" />
<path stroke="#b1b9c2" d="M30 120h5M30 121h5M30 122h5M30 123h5M30 124h5" />
<path stroke="#3f3428" d="M15 125h5M15 126h5M15 127h5M15 128h5M15 129h5M20 130h5M20 131h5M20 132h5M20 133h5M20 134h5M25 135h5M25 136h5M25 137h5M25 138h5M25 139h5M10 140h5M30 140h1M10 141h5M30 141h5M10 142h5M30 142h5M10 143h5M30 143h5M10 144h5M30 144h5M10 145h5M35 145h5M10 146h5M35 146h5M10 147h5M35 147h5M10 148h5M35 148h5M10 149h5M35 149h5M10 150h5M35 150h5M10 151h5M35 151h5M10 152h5M35 152h5M10 153h5M35 153h5M10 154h5M35 154h5M10 155h5M35 155h5M10 156h5M35 156h5M10 157h5M35 157h5M10 158h5M35 158h5M10 159h5M35 159h5M10 160h5M30 160h5M10 161h5M30 161h5M10 162h5M30 162h5M10 163h5M30 163h5M10 164h5M30 164h5M10 165h5M25 165h5M10 166h5M25 166h5M10 167h5M25 167h5M10 168h5M25 168h5M10 169h5M25 169h5M10 170h5M25 170h5M10 171h5M25 171h5M10 172h5M25 172h5M10 173h5M25 173h5M10 174h5M25 174h5M10 175h5M20 175h5M10 176h5M20 176h5M10 177h5M20 177h5M10 178h5M20 178h5M10 179h5M20 179h5M10 180h5M10 181h5M10 182h5M10 183h5M10 184h5M10 185h5M10 186h5M10 187h5M10 188h5M10 189h5M10 190h5M10 191h5M10 192h5M10 193h5M10 194h5M10 195h5M10 196h5M10 197h5M10 198h5M10 199h5M10 200h5M10 201h5M10 202h5M10 203h5M10 204h5" />
<path stroke="#4d3f30" d="M20 125h20M20 126h20M20 127h20M20 128h20M20 129h20M10 130h10M25 130h20M10 131h10M25 131h20M10 132h10M25 132h20M10 133h10M25 133h20M10 134h10M25 134h20M10 135h15M30 135h15M10 136h15M30 136h15M10 137h15M30 137h15M10 138h15M30 138h15M10 139h15M30 139h15M15 140h10M31 140h14M15 141h10M35 141h10M15 142h10M35 142h10M15 143h10M35 143h10M15 144h10M35 144h10M15 145h10M40 145h5M15 146h10M40 146h5M15 147h10M40 147h5M15 148h10M40 148h5M15 149h10M40 149h5M15 150h10M40 150h5M15 151h10M40 151h5M15 152h10M40 152h5M15 153h10M40 153h5M15 154h10M40 154h5M15 155h5M40 155h5M15 156h5M40 156h5M15 157h5M40 157h5M15 158h5M40 158h5M15 159h5M40 159h5M15 160h5M35 160h10M15 161h5M35 161h10M15 162h5M35 162h10M15 163h5M35 163h10M15 164h5M35 164h10M15 165h5M30 165h10M15 166h5M30 166h10M15 167h5M30 167h10M15 168h5M30 168h10M15 169h5M30 169h10M15 170h5M30 170h5M15 171h5M30 171h5M15 172h5M30 172h5M15 173h5M30 173h5M15 174h5M30 174h5M15 175h5M25 175h5M15 176h5M25 176h5M15 177h5M25 177h5M15 178h5M25 178h5M15 179h5M25 179h5M20 180h5M20 181h5M20 182h5M20 183h5M20 184h5M15 195h5M15 196h5M15 197h5M15 198h5M15 199h5M15 200h5M15 201h5M15 202h5M15 203h5M15 204h5" />
<path stroke="#000000" d="M15 180h5M15 181h5M15 182h5M15 183h5M15 184h5M15 185h10M15 186h10M15 187h10M15 188h10M15 189h10M15 190h15M15 191h15M15 192h15M15 193h15M15 194h15M20 195h15M20 196h15M20 197h15M20 198h15M20 199h15M10 205h20M10 206h20M10 207h20M10 208h20M10 209h20M10 210h25M10 211h25M10 212h25M10 213h25M10 214h25" />
<path stroke="#3e3e3e" d="M0 210h10M35 210h5M0 211h10M35 211h5M0 212h10M35 212h5M0 213h10M35 213h5M0 214h10M35 214h5" />
</svg>