<svg xmlns="http://www.w3.org/2000/svg" viewBox="0 -0.5 115 215" shape-rendering="crispEdges">
<metadata>Made with Pixels to Svg http://codepen.io/shshaw/pen/XbxvNj</metadata>
<path stroke="#ffffff" d="M0 0h115M0 1h115M0 2h115M0 3h115M0 4h115M0 5h25M45 5h70M0 6h25M45 6h70M0 7h25M45 7h70M0 8h25M45 8h70M0 9h25M45 9h70M0 10h20M50 10h65M0 11h20M50 11h65M0 12h20M50 12h65M0 13h20M50 13h65M0 14h20M50 14h65M0 15h20M50 15h65M0 16h20M50 16h65M0 17h20M50 17h65M0 18h20M50 18h65M0 19h20M50 19h65M0 20h20M50 20h65M0 21h20M50 21h65M0 22h20M50 22h65M0 23h20M50 23h65M0 24h20M50 24h65M0 25h20M50 25h65M0 26h20M50 26h65M0 27h20M50 27h65M0 28h20M50 28h65M0 29h20M50 29h65M0 30h20M50 30h65M0 31h20M50 31h65M0 32h20M50 32h65M0 33h20M50 33h65M0 34h20M50 34h65M0 35h20M50 35h65M0 36h20M50 36h65M0 37h20M50 37h65M0 38h20M50 38h65M0 39h20M50 39h65M0 40h25M50 40h65M0 41h25M50 41h65M0 42h25M50 42h65M0 43h25M50 43h65M0 44h25M50 44h65M0 45h20M50 45h65M0 46h20M50 46h65M0 47h20M50 47h65M0 48h20M50 48h65M0 49h20M50 49h65M0 50h20M45 50h70M0 51h20M45 51h70M0 52h20M45 52h70M0 53h20M45 53h70M0 54h20M45 54h70M0 55h15M45 55h70M0 56h15M45 56h70M0 57h15M45 57h70M0 58h15M45 58h70M0 59h15M45 59h70M0 60h10M50 60h65M0 61h10M50 61h65M0 62h10M50 62h65M0 63h10M50 63h65M0 64h10M50 64h65M0 65h10M50 65h65M0 66h10M50 66h65M0 67h10M50 67h65M0 68h10M50 68h65M0 69h10M50 69h65M0 70h10M50 70h20M80 70h5M95 70h20M0 71h10M50 71h20M80 71h5M95 71h20M0 72h10M50 72h20M80 72h5M95 72h20M0 73h10M50 73h20M80 73h5M95 73h20M0 74h10M50 74h20M80 74h5M95 74h20M0 75h10M95 75h20M0 76h10M95 76h20M0 77h10M95 77h20M0 78h10M95 78h20M0 79h10M95 79h20M0 80h10M95 80h20M0 81h10M95 81h20M0 82h10M95 82h20M0 83h10M95 83h20M0 84h10M95 84h20M0 85h15M45 85h70M0 86h15M45 86h70M0 87h15M45 87h70M0 88h15M45 88h70M0 89h15M45 89h70M0 90h15M45 90h70M0 91h15M45 91h70M0 92h15M45 92h70M0 93h15M45 93h70M0 94h15M45 94h70M0 95h15M45 95h70M0 96h15M45 96h70M0 97h15M45 97h70M0 98h15M45 98h70M0 99h15M45 99h70M0 100h15M45 100h70M0 101h15M45 101h70M0 102h15M45 102h70M0 103h15M45 103h70M0 104h15M45 104h70M0 105h20M45 105h70M0 106h20M45 106h70M0 107h20M45 107h70M0 108h20M45 108h70M0 109h20M45 109h70M0 110h20M45 110h70M0 111h20M45 111h70M0 112h20M45 112h70M0 113h20M45 113h70M0 114h20M45 114h70M0 115h20M45 115h70M0 116h20M45 116h70M0 117h20M45 117h70M0 118h20M45 118h70M0 119h20M45 119h70M0 120h20M45 120h70M0 121h20M45 121h70M0 122h20M45 122h70M0 123h20M45 123h70M0 124h20M45 124h70M0 125h20M45 125h70M0 126h20M45 126h70M0 127h20M45 127h70M0 128h20M45 128h70M0 129h20M45 129h70M0 130h20M45 130h70M0 131h20M45 131h70M0 132h20M45 132h70M0 133h20M45 133h70M0 134h20M45 134h70M0 135h20M50 135h65M0 136h20M50 136h65M0 137h20M50 137h65M0 138h20M50 138h65M0 139h20M50 139h65M0 140h20M50 140h65M0 141h20M50 141h65M0 142h20M50 142h65M0 143h20M50 143h65M0 144h20M50 144h65M0 145h20M35 145h5M55 145h60M0 146h20M35 146h5M55 146h60M0 147h20M35 147h5M55 147h60M0 148h20M35 148h5M55 148h60M0 149h20M35 149h5M55 149h60M0 150h20M30 150h15M60 150h55M0 151h20M30 151h15M60 151h55M0 152h20M30 152h15M60 152h55M0 153h20M30 153h15M60 153h55M0 154h20M30 154h15M60 154h55M0 155h20M30 155h20M60 155h55M0 156h20M30 156h20M60 156h55M0 157h20M30 157h20M60 157h55M0 158h20M30 158h20M60 158h55M0 159h20M30 159h20M60 159h55M0 160h20M30 160h20M60 160h55M0 161h20M30 161h20M60 161h55M0 162h20M30 162h20M60 162h55M0 163h20M30 163h20M60 163h55M0 164h20M30 164h20M60 164h55M0 165h15M25 165h25M60 165h55M0 166h15M25 166h25M60 166h55M0 167h15M25 167h25M60 167h55M0 168h15M25 168h25M60 168h55M0 169h15M25 169h25M60 169h55M0 170h15M25 170h25M60 170h55M0 171h15M25 171h25M60 171h55M0 172h15M25 172h25M60 172h55M0 173h15M25 173h25M60 173h55M0 174h15M25 174h25M60 174h55M0 175h15M25 175h25M60 175h55M0 176h15M25 176h25M60 176h55M0 177h15M25 177h25M60 177h55M0 178h15M25 178h25M60 178h55M0 179h15M25 179h25M60 179h55M0 180h10M20 180h30M60 180h55M0 181h10M20 181h30M60 181h55M0 182h10M20 182h30M60 182h55M0 183h10M20 183h30M60 183h55M0 184h10M20 184h30M60 184h55M0 185h10M20 185h30M60 185h55M0 186h10M20 186h30M60 186h55M0 187h10M20 187h30M60 187h55M0 188h10M20 188h30M60 188h55M0 189h10M20 189h30M60 189h55M0 190h10M20 190h30M60 190h55M0 191h10M20 191h30M60 191h55M0 192h10M20 192h30M60 192h55M0 193h10M20 193h30M60 193h55M0 194h10M20 194h30M60 194h55M0 195h5M15 195h35M70 195h45M0 196h5M15 196h35M70 196h45M0 197h5M15 197h35M70 197h45M0 198h5M15 198h35M70 198h45M0 199h5M15 199h35M70 199h45M0 200h5M15 200h35M75 200h40M0 201h5M15 201h35M75 201h40M0 202h5M15 202h35M75 202h40M0 203h5M15 203h35M75 203h40M0 204h5M15 204h35M75 204h40M0 205h5M25 205h90M0 206h5M25 206h90M0 207h5M25 207h90M0 208h5M25 208h90M0 209h5M25 209h90M40 210h75M40 211h75M40 212h75M40 213h75M40 214h75" />
<path stroke="#2e170f" d="M25 5h20M25 6h20M25 7h20M25 8h20M25 9h20M20 10h30M20 11h30M20 12h30M20 13h30M20 14h30M20 15h30M20 16h30M20 17h30M20 18h30M20 19h30M20 20h10M20 21h10M20 22h10M20 23h10M20 24h10M25 25h5M25 26h5M25 27h5M25 28h5M25 29h5M25 30h5M25 31h5M25 32h5M25 33h5M25 34h5M30 35h5M30 36h5M30 37h5M30 38h5M30 39h5" />
<path stroke="#a98968" d="M30 20h20M30 21h20M30 22h20M30 23h20M30 24h20M20 25h5M30 25h5M20 26h5M30 26h5M20 27h5M30 27h5M20 28h5M30 28h5M20 29h5M30 29h5M20 30h5M30 30h5M20 31h5M30 31h5M20 32h5M30 32h5M20 33h5M30 33h5M20 34h5M30 34h5" />
<path stroke="#b9a181" d="M35 25h15M35 26h15M35 27h15M35 28h15M35 29h15M35 30h15M35 31h15M35 32h15M35 33h15M35 34h15" />
<path stroke="#cdaf86" d="M20 35h5M20 36h5M20 37h5M20 38h5M20 39h5M20 65h5M20 66h5M20 67h5M20 68h5M20 69h5M20 70h5M70 70h10M20 71h5M70 71h10M20 72h5M70 72h10M20 73h5M70 73h10M20 74h5M70 74h10M20 75h50M20 76h50M20 77h50M20 78h50M20 79h50" />
<path stroke="#483018" d="M25 35h5M45 35h5M25 36h5M45 36h5M25 37h5M45 37h5M25 38h5M45 38h5M25 39h5M45 39h5M30 40h20M30 41h20M30 42h20M30 43h20M30 44h20M35 45h15M35 46h15M35 47h15M35 48h15M35 49h15" />
<path stroke="#f6f9f9" d="M35 35h10M35 36h10M35 37h10M35 38h10M35 39h10" />
<path stroke="#997050" d="M25 40h5M25 41h5M25 42h5M25 43h5M25 44h5M25 45h10M25 46h10M25 47h10M25 48h10M25 49h10M30 50h5M30 51h5M30 52h5M30 53h5M30 54h5" />
<path stroke="#000000" d="M20 45h5M20 46h5M20 47h5M20 48h5M20 49h5M20 50h10M20 51h10M20 52h10M20 53h10M20 54h10M80 75h5M80 76h5M80 77h5M80 78h5M80 79h5M80 80h5M80 81h5M80 82h5M80 83h5M80 84h5M50 195h20M50 196h20M50 197h20M50 198h20M50 199h20M50 200h25M50 201h25M50 202h25M50 203h25M50 204h25M5 205h20M5 206h20M5 207h20M5 208h20M5 209h20M5 210h25M5 211h25M5 212h25M5 213h25M5 214h25" />
<path stroke="#9c794b" d="M35 50h5M35 51h5M35 52h5M35 53h5M35 54h5M45 65h5M45 66h5M45 67h5M45 68h5M45 69h5M45 70h5M45 71h5M45 72h5M45 73h5M45 74h5M70 80h10M85 80h10M70 81h10M85 81h10M70 82h10M85 82h10M70 83h10M85 83h10M70 84h10M85 84h10" />
<path stroke="#060101" d="M40 50h5M40 51h5M40 52h5M40 53h5M40 54h5" />
<path stroke="#01162f" d="M15 55h30M15 56h30M15 57h30M15 58h30M15 59h30M10 60h40M10 61h40M10 62h40M10 63h40M10 64h40M10 65h5M25 65h20M10 66h5M25 66h20M10 67h5M25 67h20M10 68h5M25 68h20M10 69h5M25 69h20M10 70h5M25 70h20M10 71h5M25 71h20M10 72h5M25 72h20M10 73h5M25 73h20M10 74h5M25 74h20M10 75h5M10 76h5M10 77h5M10 78h5M10 79h5M10 80h10M10 81h10M10 82h10M10 83h10M10 84h10M15 85h30M15 86h30M15 87h30M15 88h30M15 89h30M15 90h30M15 91h30M15 92h30M15 93h30M15 94h30M15 95h30M15 96h30M15 97h30M15 98h30M15 99h30M15 100h30M15 101h30M15 102h30M15 103h30M15 104h30M20 105h25M20 106h25M20 107h25M20 108h25M20 109h25M20 110h25M20 111h25M20 112h25M20 113h25M20 114h25M20 115h25M20 116h25M20 117h25M20 118h25M20 119h25M20 120h25M20 121h25M20 122h25M20 123h25M20 124h25M20 125h15M40 125h5M20 126h15M40 126h5M20 127h15M40 127h5M20 128h15M40 128h5M20 129h15M40 129h5M20 130h10M40 130h5M20 131h10M40 131h5M20 132h10M40 132h5M20 133h10M40 133h5M20 134h10M40 134h5" />
<path stroke="#b79569" d="M15 65h5M15 66h5M15 67h5M15 68h5M15 69h5M15 70h5M85 70h10M15 71h5M85 71h10M15 72h5M85 72h10M15 73h5M85 73h10M15 74h5M85 74h10M15 75h5M70 75h10M85 75h10M15 76h5M70 76h10M85 76h10M15 77h5M70 77h10M85 77h10M15 78h5M70 78h10M85 78h10M15 79h5M70 79h10M85 79h10M20 80h50M20 81h50M20 82h50M20 83h50M20 84h50" />
<path stroke="#b1b9c2" d="M35 125h5M35 126h5M35 127h5M35 128h5M35 129h5" />
<path stroke="#4d3f30" d="M30 130h10M30 131h10M30 132h10M30 133h10M30 134h10M25 135h5M35 135h15M25 136h5M35 136h15M25 137h5M35 137h15M25 138h5M35 138h15M25 139h5M35 139h15M25 140h10M40 140h10M25 141h10M40 141h10M25 142h10M40 142h10M25 143h10M40 143h10M25 144h10M40 144h10M25 145h10M45 145h10M25 146h10M45 146h10M25 147h10M45 147h10M25 148h10M45 148h10M25 149h10M45 149h10M25 150h5M50 150h10M25 151h5M50 151h10M25 152h5M50 152h10M25 153h5M50 153h10M25 154h5M50 154h10M25 155h5M55 155h5M25 156h5M55 156h5M25 157h5M55 157h5M25 158h5M55 158h5M25 159h5M55 159h5M25 160h5M55 160h5M25 161h5M55 161h5M25 162h5M55 162h5M25 163h5M55 163h5M25 164h5M55 164h5M20 165h5M55 165h5M20 166h5M55 166h5M20 167h5M55 167h5M20 168h5M55 168h5M20 169h5M55 169h5M20 170h5M55 170h5M20 171h5M55 171h5M20 172h5M55 172h5M20 173h5M55 173h5M20 174h5M55 174h5M20 175h5M55 175h5M20 176h5M55 176h5M20 177h5M55 177h5M20 178h5M55 178h5M20 179h5M55 179h5M15 180h5M55 180h5M15 181h5M55 181h5M15 182h5M55 182h5M15 183h5M55 183h5M15 184h5M55 184h5M15 185h5M55 185h5M15 186h5M55 186h5M15 187h5M55 187h5M15 188h5M55 188h5M15 189h5M55 189h5M15 190h5M55 190h5M15 191h5M55 191h5M15 192h5M55 192h5M15 193h5M55 193h5M15 194h5M55 194h5M10 195h5M10 196h5M10 197h5M10 198h5M10 199h5M10 200h5M10 201h5M10 202h5M10 203h5M10 204h5" />
<path stroke="#3f3428" d="M20 135h5M30 135h5M20 136h5M30 136h5M20 137h5M30 137h5M20 138h5M30 138h5M20 139h5M30 139h5M20 140h5M35 140h5M20 141h5M35 141h5M20 142h5M35 142h5M20 143h5M35 143h5M20 144h5M35 144h5M20 145h5M40 145h5M20 146h5M40 146h5M20 147h5M40 147h5M20 148h5M40 148h5M20 149h5M40 149h5M20 150h5M45 150h5M20 151h5M45 151h5M20 152h5M45 152h5M20 153h5M45 153h5M20 154h5M45 154h5M20 155h5M50 155h5M20 156h5M50 156h5M20 157h5M50 157h5M20 158h5M50 158h5M20 159h5M50 159h5M20 160h5M50 160h5M20 161h5M50 161h5M20 162h5M50 162h5M20 163h5M50 163h5M20 164h5M50 164h5M15 165h5M50 165h5M15 166h5M50 166h5M15 167h5M50 167h5M15 168h5M50 168h5M15 169h5M50 169h5M15 170h5M50 170h5M15 171h5M50 171h5M15 172h5M50 172h5M15 173h5M50 173h5M15 174h5M50 174h5M15 175h5M50 175h5M15 176h5M50 176h5M15 177h5M50 177h5M15 178h5M50 178h5M15 179h5M50 179h5M10 180h5M50 180h5M10 181h5M50 181h5M10 182h5M50 182h5M10 183h5M50 183h5M10 184h5M50 184h5M10 185h5M50 185h5M10 186h5M50 186h5M10 187h5M50 187h5M10 188h5M50 188h5M10 189h5M50 189h5M10 190h5M50 190h5M10 191h5M50 191h5M10 192h5M50 192h5M10 193h5M50 193h5M10 194h5M50 194h5M5 195h5M5 196h5M5 197h5M5 198h5M5 199h5M5 200h5M5 201h5M5 202h5M5 203h5M5 204h5" />
<path stroke="#3e3e3e" d="M0 210h5M30 210h10M0 211h5M30 211h10M0 212h5M30 212h10M0 213h5M30 213h10M0 214h5M30 214h10" />
</svg>