<svg xmlns="http://www.w3.org/2000/svg" viewBox="0 -0.5 500 230" shape-rendering="crispEdges">
<metadata>Made with Pixels to Svg http://codepen.io/shshaw/pen/XbxvNj</metadata>
<path stroke="#2e170f" d="M210 5h20M330 5h20M440 5h20M210 6h20M330 6h20M440 6h20M210 7h20M330 7h20M440 7h20M210 8h20M330 8h20M440 8h20M210 9h20M330 9h20M440 9h20M70 10h20M205 10h30M325 10h30M435 10h30M70 11h20M205 11h30M325 11h30M435 11h30M70 12h20M205 12h30M325 12h30M435 12h30M70 13h20M205 13h30M325 13h30M435 13h30M70 14h20M205 14h30M325 14h30M435 14h30M65 15h30M205 15h30M325 15h30M435 15h30M65 16h30M205 16h30M325 16h30M435 16h30M65 17h30M205 17h30M325 17h30M435 17h30M65 18h30M205 18h30M325 18h30M435 18h30M65 19h30M205 19h30M325 19h30M435 19h30M65 20h30M205 20h15M325 20h15M435 20h20M65 21h30M205 21h15M325 21h15M435 21h20M65 22h30M205 22h15M325 22h15M435 22h20M65 23h30M205 23h15M325 23h15M435 23h20M65 24h30M205 24h15M325 24h15M435 24h20M65 25h10M205 25h5M215 25h5M325 25h5M335 25h5M435 25h10M450 25h5M65 26h10M205 26h5M215 26h5M325 26h5M335 26h5M435 26h10M450 26h5M65 27h10M205 27h5M215 27h5M325 27h5M335 27h5M435 27h10M450 27h5M65 28h10M205 28h5M215 28h5M325 28h5M335 28h5M435 28h10M450 28h5M65 29h10M205 29h5M215 29h5M325 29h5M335 29h5M435 29h10M450 29h5M70 30h5M205 30h5M215 30h5M325 30h5M335 30h5M435 30h10M450 30h5M70 31h5M205 31h5M215 31h5M325 31h5M335 31h5M435 31h10M450 31h5M70 32h5M205 32h5M215 32h5M325 32h5M335 32h5M435 32h10M450 32h5M70 33h5M205 33h5M215 33h5M325 33h5M335 33h5M435 33h10M450 33h5M70 34h5M205 34h5M215 34h5M325 34h5M335 34h5M435 34h10M450 34h5M70 35h5M215 35h10M335 35h10M450 35h10M70 36h5M215 36h10M335 36h10M450 36h10M70 37h5M215 37h10M335 37h10M450 37h10M70 38h5M215 38h10M335 38h10M450 38h10M70 39h5M215 39h10M335 39h10M450 39h10M75 40h5M75 41h5M75 42h5M75 43h5M75 44h5" />
<path stroke="#a98968" d="M220 20h15M340 20h15M455 20h10M220 21h15M340 21h15M455 21h10M220 22h15M340 22h15M455 22h10M220 23h15M340 23h15M455 23h10M220 24h15M340 24h15M455 24h10M75 25h20M210 25h5M330 25h5M445 25h5M75 26h20M210 26h5M330 26h5M445 26h5M75 27h20M210 27h5M330 27h5M445 27h5M75 28h20M210 28h5M330 28h5M445 28h5M75 29h20M210 29h5M330 29h5M445 29h5M65 30h5M75 30h5M210 30h5M330 30h5M445 30h5M65 31h5M75 31h5M210 31h5M330 31h5M445 31h5M65 32h5M75 32h5M210 32h5M330 32h5M445 32h5M65 33h5M75 33h5M210 33h5M330 33h5M445 33h5M65 34h5M75 34h5M210 34h5M330 34h5M445 34h5M65 35h5M75 35h5M65 36h5M75 36h5M65 37h5M75 37h5M65 38h5M75 38h5M65 39h5M75 39h5" />
<path stroke="#b9a181" d="M220 25h15M340 25h15M455 25h10M220 26h15M340 26h15M455 26h10M220 27h15M340 27h15M455 27h10M220 28h15M340 28h15M455 28h10M220 29h15M340 29h15M455 29h10M80 30h15M220 30h15M340 30h15M455 30h10M80 31h15M220 31h15M340 31h15M455 31h10M80 32h15M220 32h15M340 32h15M455 32h10M80 33h15M220 33h15M340 33h15M455 33h10M80 34h15M220 34h15M340 34h15M455 34h10M80 35h15M80 36h15M80 37h15M80 38h15M80 39h15" />
<path stroke="#cdaf86" d="M210 35h5M330 35h5M445 35h5M210 36h5M330 36h5M445 36h5M210 37h5M330 37h5M445 37h5M210 38h5M330 38h5M445 38h5M210 39h5M330 39h5M445 39h5M65 40h5M65 41h5M65 42h5M65 43h5M65 44h5M205 80h5M335 80h5M205 81h5M335 81h5M205 82h5M335 82h5M205 83h5M335 83h5M205 84h5M335 84h5M205 85h5M335 85h5M455 85h5M205 86h5M335 86h5M455 86h5M205 87h5M335 87h5M455 87h5M205 88h5M335 88h5M455 88h5M205 89h5M335 89h5M455 89h5M55 90h5M205 90h5M335 90h5M455 90h5M55 91h5M205 91h5M335 91h5M455 91h5M55 92h5M205 92h5M335 92h5M455 92h5M55 93h5M205 93h5M335 93h5M455 93h5M55 94h5M205 94h5M335 94h5M455 94h5M55 95h5M205 95h5M335 95h5M460 95h5M55 96h5M205 96h5M335 96h5M460 96h5M55 97h5M205 97h5M335 97h5M460 97h5M55 98h5M205 98h5M335 98h5M460 98h5M55 99h5M205 99h5M335 99h5M460 99h5M55 100h5M205 100h5M335 100h5M460 100h5M55 101h5M205 101h5M335 101h5M460 101h5M55 102h5M205 102h5M335 102h5M460 102h5M55 103h5M205 103h5M335 103h5M460 103h5M55 104h5M205 104h5M335 104h5M460 104h5M55 105h5M205 105h5M335 105h5M465 105h5M55 106h5M205 106h5M335 106h5M465 106h5M55 107h5M205 107h5M335 107h5M465 107h5M55 108h5M205 108h5M335 108h5M465 108h5M55 109h5M205 109h5M335 109h5M465 109h5M60 110h5M210 110h5M335 110h5M465 110h5M60 111h5M210 111h5M335 111h5M465 111h5M60 112h5M210 112h5M335 112h5M465 112h5M60 113h5M210 113h5M335 113h5M465 113h5M60 114h5M210 114h5M335 114h5M465 114h5M60 115h5M210 115h5M335 115h5M465 115h5M60 116h5M210 116h5M335 116h5M465 116h5M60 117h5M210 117h5M335 117h5M465 117h5M60 118h5M210 118h5M335 118h5M465 118h5M60 119h5M210 119h5M335 119h5M465 119h5M60 120h5M210 120h5M335 120h5M470 120h5M60 121h5M210 121h5M335 121h5M470 121h5M60 122h5M210 122h5M335 122h5M470 122h5M60 123h5M210 123h5M335 123h5M470 123h5M60 124h5M210 124h5M335 124h5M470 124h5M60 125h5M210 125h5M335 125h5M470 125h5M60 126h5M210 126h5M335 126h5M470 126h5M60 127h5M210 127h5M335 127h5M470 127h5M60 128h5M210 128h5M335 128h5M470 128h5M60 129h5M210 129h5M335 129h5M470 129h5M60 130h5M210 130h5M335 130h5M470 130h5M60 131h5M210 131h5M335 131h5M470 131h5M60 132h5M210 132h5M335 132h5M470 132h5M60 133h5M210 133h5M335 133h5M470 133h5M60 134h5M210 134h5M335 134h5M470 134h5M60 135h5M210 135h5M335 135h5M60 136h5M210 136h5M335 136h5M60 137h5M210 137h5M335 137h5M60 138h5M210 138h5M335 138h5M60 139h5M210 139h5M335 139h5M210 140h5M210 141h5M210 142h5M210 143h5M210 144h5M210 145h5M210 146h5M210 147h5M210 148h5M210 149h5" />
<path stroke="#f6f9f9" d="M225 35h10M345 35h10M460 35h5M225 36h10M345 36h10M460 36h5M225 37h10M345 37h10M460 37h5M225 38h10M345 38h10M460 38h5M225 39h10M345 39h10M460 39h5M80 40h10M80 41h10M80 42h10M80 43h10M80 44h10" />
<path stroke="#997050" d="M440 35h5M440 36h5M440 37h5M440 38h5M440 39h5M210 40h10M330 40h10M440 40h15M210 41h10M330 41h10M440 41h15M210 42h10M330 42h10M440 42h15M210 43h10M330 43h10M440 43h15M210 44h10M330 44h10M440 44h15M70 45h5M215 45h10M335 45h10M445 45h15M70 46h5M215 46h10M335 46h10M445 46h15M70 47h5M215 47h10M335 47h10M445 47h15M70 48h5M215 48h10M335 48h10M445 48h15M70 49h5M215 49h10M335 49h10M445 49h15M70 50h10M70 51h10M70 52h10M70 53h10M70 54h10M75 55h5M75 56h5M75 57h5M75 58h5M75 59h5" />
<path stroke="#483018" d="M70 40h5M90 40h5M220 40h15M340 40h15M455 40h10M70 41h5M90 41h5M220 41h15M340 41h15M455 41h10M70 42h5M90 42h5M220 42h15M340 42h15M455 42h10M70 43h5M90 43h5M220 43h15M340 43h15M455 43h10M70 44h5M90 44h5M220 44h15M340 44h15M455 44h10M75 45h20M225 45h10M345 45h10M460 45h5M75 46h20M225 46h10M345 46h10M460 46h5M75 47h20M225 47h10M345 47h10M460 47h5M75 48h20M225 48h10M345 48h10M460 48h5M75 49h20M225 49h10M345 49h10M460 49h5M80 50h15M80 51h15M80 52h15M80 53h15M80 54h15" />
<path stroke="#01162f" d="M205 45h10M325 45h10M205 46h10M325 46h10M205 47h10M325 47h10M205 48h10M325 48h10M205 49h10M325 49h10M205 50h15M225 50h5M325 50h15M345 50h5M435 50h10M205 51h15M225 51h5M325 51h15M345 51h5M435 51h10M205 52h15M225 52h5M325 52h15M345 52h5M435 52h10M205 53h15M225 53h5M325 53h15M345 53h5M435 53h10M205 54h15M225 54h5M325 54h15M345 54h5M435 54h10M200 55h30M320 55h30M430 55h30M200 56h30M320 56h30M430 56h30M200 57h30M320 57h30M430 57h30M200 58h30M320 58h30M430 58h30M200 59h30M320 59h30M430 59h30M60 60h30M200 60h35M320 60h30M430 60h30M60 61h30M200 61h35M320 61h30M430 61h30M60 62h30M200 62h35M320 62h30M430 62h30M60 63h30M200 63h35M320 63h30M430 63h30M60 64h30M200 64h35M320 64h30M430 64h30M55 65h40M200 65h35M320 65h30M430 65h30M55 66h40M200 66h35M320 66h30M430 66h30M55 67h40M200 67h35M320 67h30M430 67h30M55 68h40M200 68h35M320 68h30M430 68h30M55 69h40M200 69h35M320 69h30M430 69h30M55 70h40M200 70h35M320 70h30M430 70h30M55 71h40M200 71h35M320 71h30M430 71h30M55 72h40M200 72h35M320 72h30M430 72h30M55 73h40M200 73h35M320 73h30M430 73h30M55 74h40M200 74h35M320 74h30M430 74h30M55 75h40M200 75h35M320 75h30M430 75h30M55 76h40M200 76h35M320 76h30M430 76h30M55 77h40M200 77h35M320 77h30M430 77h30M55 78h40M200 78h35M320 78h30M430 78h30M55 79h40M200 79h35M320 79h30M430 79h30M55 80h40M210 80h25M320 80h10M340 80h10M430 80h30M55 81h40M210 81h25M320 81h10M340 81h10M430 81h30M55 82h40M210 82h25M320 82h10M340 82h10M430 82h30M55 83h40M210 83h25M320 83h10M340 83h10M430 83h30M55 84h40M210 84h25M320 84h10M340 84h10M430 84h30M55 85h40M210 85h20M320 85h10M340 85h10M430 85h20M55 86h40M210 86h20M320 86h10M340 86h10M430 86h20M55 87h40M210 87h20M320 87h10M340 87h10M430 87h20M55 88h40M210 88h20M320 88h10M340 88h10M430 88h20M55 89h40M210 89h20M320 89h10M340 89h10M430 89h20M60 90h30M210 90h20M320 90h10M340 90h10M430 90h20M60 91h30M210 91h20M320 91h10M340 91h10M430 91h20M60 92h30M210 92h20M320 92h10M340 92h10M430 92h20M60 93h30M210 93h20M320 93h10M340 93h10M430 93h20M60 94h30M210 94h20M320 94h10M340 94h10M430 94h20M60 95h30M210 95h20M320 95h10M340 95h10M430 95h25M60 96h30M210 96h20M320 96h10M340 96h10M430 96h25M60 97h30M210 97h20M320 97h10M340 97h10M430 97h25M60 98h30M210 98h20M320 98h10M340 98h10M430 98h25M60 99h30M210 99h20M320 99h10M340 99h10M430 99h25M60 100h30M210 100h20M320 100h10M340 100h10M430 100h25M60 101h30M210 101h20M320 101h10M340 101h10M430 101h25M60 102h30M210 102h20M320 102h10M340 102h10M430 102h25M60 103h30M210 103h20M320 103h10M340 103h10M430 103h25M60 104h30M210 104h20M320 104h10M340 104h10M430 104h25M60 105h30M210 105h20M320 105h10M340 105h10M430 105h30M60 106h30M210 106h20M320 106h10M340 106h10M430 106h30M60 107h30M210 107h20M320 107h10M340 107h10M430 107h30M60 108h30M210 108h20M320 108h10M340 108h10M430 108h30M60 109h30M210 109h20M320 109h10M340 109h10M430 109h30M65 110h25M215 110h25M325 110h5M340 110h10M435 110h25M65 111h25M215 111h25M325 111h5M340 111h10M435 111h25M65 112h25M215 112h25M325 112h5M340 112h10M435 112h25M65 113h25M215 113h25M325 113h5M340 113h10M435 113h25M65 114h25M215 114h25M325 114h5M340 114h10M435 114h25M65 115h25M215 115h15M325 115h5M340 115h10M435 115h25M65 116h25M215 116h15M325 116h5M340 116h10M435 116h25M65 117h25M215 117h15M325 117h5M340 117h10M435 117h25M65 118h25M215 118h15M325 118h5M340 118h10M435 118h25M65 119h25M215 119h15M325 119h5M340 119h10M435 119h25M65 120h25M215 120h15M325 120h5M340 120h10M435 120h25M65 121h25M215 121h15M325 121h5M340 121h10M435 121h25M65 122h25M215 122h15M325 122h5M340 122h10M435 122h25M65 123h25M215 123h15M325 123h5M340 123h10M435 123h25M65 124h25M215 124h15M325 124h5M340 124h10M435 124h25M65 125h25M215 125h10M325 125h5M340 125h5M435 125h25M65 126h25M215 126h10M325 126h5M340 126h5M435 126h25M65 127h25M215 127h10M325 127h5M340 127h5M435 127h25M65 128h25M215 128h10M325 128h5M340 128h5M435 128h25M65 129h25M215 129h10M325 129h5M340 129h5M435 129h25M65 130h15M85 130h5M215 130h5M65 131h15M85 131h5M215 131h5M65 132h15M85 132h5M215 132h5M65 133h15M85 133h5M215 133h5M65 134h15M85 134h5M215 134h5M65 135h10M85 135h5M65 136h10M85 136h5M65 137h10M85 137h5M65 138h10M85 138h5M65 139h10M85 139h5" />
<path stroke="#000000" d="M435 45h10M435 46h10M435 47h10M435 48h10M435 49h10M65 50h5M445 50h5M455 50h5M65 51h5M445 51h5M455 51h5M65 52h5M445 52h5M455 52h5M65 53h5M445 53h5M455 53h5M65 54h5M445 54h5M455 54h5M65 55h10M65 56h10M65 57h10M65 58h10M65 59h10M105 125h5M105 126h5M105 127h5M105 128h5M105 129h5M100 130h5M100 131h5M100 132h5M100 133h5M100 134h5M310 170h10M310 171h10M310 172h10M310 173h10M310 174h10M310 175h10M310 176h10M310 177h10M310 178h10M310 179h10M310 180h10M310 181h10M310 182h10M310 183h10M310 184h10M210 185h5M310 185h10M405 185h10M210 186h5M310 186h10M405 186h10M210 187h5M310 187h10M405 187h10M210 188h5M310 188h10M405 188h10M210 189h5M310 189h10M405 189h10M210 190h10M310 190h10M405 190h15M210 191h10M310 191h10M405 191h15M210 192h10M310 192h10M405 192h15M210 193h10M310 193h10M405 193h15M210 194h10M310 194h10M405 194h15M210 195h15M310 195h5M410 195h10M210 196h15M310 196h5M410 196h10M210 197h15M310 197h5M410 197h10M210 198h15M310 198h5M410 198h10M210 199h15M310 199h5M410 199h10M95 200h20M215 200h15M410 200h10M95 201h20M215 201h15M410 201h10M95 202h20M215 202h15M410 202h10M95 203h20M215 203h15M410 203h10M95 204h20M215 204h15M410 204h10M95 205h25M415 205h5M470 205h20M95 206h25M415 206h5M470 206h20M95 207h25M415 207h5M470 207h20M95 208h25M415 208h5M470 208h20M95 209h25M415 209h5M470 209h20M50 210h20M205 210h20M470 210h25M50 211h20M205 211h20M470 211h25M50 212h20M205 212h20M470 212h25M50 213h20M205 213h20M470 213h25M50 214h20M205 214h20M470 214h25M50 215h25M205 215h25M330 215h20M50 216h25M205 216h25M330 216h20M50 217h25M205 217h25M330 217h20M50 218h25M205 218h25M330 218h20M50 219h25M205 219h25M330 219h20M330 220h25M330 221h25M330 222h25M330 223h25M330 224h25" />
<path stroke="#9c794b" d="M220 50h5M340 50h5M450 50h5M220 51h5M340 51h5M450 51h5M220 52h5M340 52h5M450 52h5M220 53h5M340 53h5M450 53h5M220 54h5M340 54h5M450 54h5M80 55h5M80 56h5M80 57h5M80 58h5M80 59h5M230 85h5M230 86h5M230 87h5M230 88h5M230 89h5M90 90h5M230 90h5M90 91h5M230 91h5M90 92h5M230 92h5M90 93h5M230 93h5M90 94h5M230 94h5M90 95h5M230 95h5M90 96h5M230 96h5M90 97h5M230 97h5M90 98h5M230 98h5M90 99h5M230 99h5M90 100h5M230 100h5M90 101h5M230 101h5M90 102h5M230 102h5M90 103h5M230 103h5M90 104h5M230 104h5M90 105h10M230 105h5M90 106h10M230 106h5M90 107h10M230 107h5M90 108h10M230 108h5M90 109h10M230 109h5M90 110h10M90 111h10M90 112h10M90 113h10M90 114h10M95 115h5M230 115h5M95 116h5M230 116h5M95 117h5M230 117h5M95 118h5M230 118h5M95 119h5M230 119h5M95 120h5M230 120h5M95 121h5M230 121h5M95 122h5M230 122h5M95 123h5M230 123h5M95 124h5M230 124h5M95 125h5M95 126h5M95 127h5M95 128h5M95 129h5" />
<path stroke="#060101" d="M85 55h5M85 56h5M85 57h5M85 58h5M85 59h5" />
<path stroke="#b79569" d="M200 80h5M330 80h5M200 81h5M330 81h5M200 82h5M330 82h5M200 83h5M330 83h5M200 84h5M330 84h5M200 85h5M330 85h5M450 85h5M200 86h5M330 86h5M450 86h5M200 87h5M330 87h5M450 87h5M200 88h5M330 88h5M450 88h5M200 89h5M330 89h5M450 89h5M50 90h5M200 90h5M330 90h5M450 90h5M50 91h5M200 91h5M330 91h5M450 91h5M50 92h5M200 92h5M330 92h5M450 92h5M50 93h5M200 93h5M330 93h5M450 93h5M50 94h5M200 94h5M330 94h5M450 94h5M50 95h5M200 95h5M330 95h5M455 95h5M50 96h5M200 96h5M330 96h5M455 96h5M50 97h5M200 97h5M330 97h5M455 97h5M50 98h5M200 98h5M330 98h5M455 98h5M50 99h5M200 99h5M330 99h5M455 99h5M50 100h5M200 100h5M330 100h5M455 100h5M50 101h5M200 101h5M330 101h5M455 101h5M50 102h5M200 102h5M330 102h5M455 102h5M50 103h5M200 103h5M330 103h5M455 103h5M50 104h5M200 104h5M330 104h5M455 104h5M50 105h5M200 105h5M235 105h5M330 105h5M460 105h5M50 106h5M200 106h5M235 106h5M330 106h5M460 106h5M50 107h5M200 107h5M235 107h5M330 107h5M460 107h5M50 108h5M200 108h5M235 108h5M330 108h5M460 108h5M50 109h5M200 109h5M235 109h5M330 109h5M460 109h5M55 110h5M205 110h5M330 110h5M460 110h5M55 111h5M205 111h5M330 111h5M460 111h5M55 112h5M205 112h5M330 112h5M460 112h5M55 113h5M205 113h5M330 113h5M460 113h5M55 114h5M205 114h5M330 114h5M460 114h5M55 115h5M100 115h5M205 115h5M235 115h5M330 115h5M460 115h5M55 116h5M100 116h5M205 116h5M235 116h5M330 116h5M460 116h5M55 117h5M100 117h5M205 117h5M235 117h5M330 117h5M460 117h5M55 118h5M100 118h5M205 118h5M235 118h5M330 118h5M460 118h5M55 119h5M100 119h5M205 119h5M235 119h5M330 119h5M460 119h5M55 120h5M100 120h5M205 120h5M235 120h5M330 120h5M465 120h5M55 121h5M100 121h5M205 121h5M235 121h5M330 121h5M465 121h5M55 122h5M100 122h5M205 122h5M235 122h5M330 122h5M465 122h5M55 123h5M100 123h5M205 123h5M235 123h5M330 123h5M465 123h5M55 124h5M100 124h5M205 124h5M235 124h5M330 124h5M465 124h5M55 125h5M100 125h5M205 125h5M330 125h5M465 125h5M55 126h5M100 126h5M205 126h5M330 126h5M465 126h5M55 127h5M100 127h5M205 127h5M330 127h5M465 127h5M55 128h5M100 128h5M205 128h5M330 128h5M465 128h5M55 129h5M100 129h5M205 129h5M330 129h5M465 129h5M55 130h5M105 130h10M205 130h5M330 130h5M465 130h5M55 131h5M105 131h10M205 131h5M330 131h5M465 131h5M55 132h5M105 132h10M205 132h5M330 132h5M465 132h5M55 133h5M105 133h10M205 133h5M330 133h5M465 133h5M55 134h5M105 134h10M205 134h5M330 134h5M465 134h5M55 135h5M105 135h10M205 135h5M330 135h5M55 136h5M105 136h10M205 136h5M330 136h5M55 137h5M105 137h10M205 137h5M330 137h5M55 138h5M105 138h10M205 138h5M330 138h5M55 139h5M105 139h10M205 139h5M330 139h5M205 140h5M205 141h5M205 142h5M205 143h5M205 144h5M205 145h5M205 146h5M205 147h5M205 148h5M205 149h5" />
<path stroke="#b1b9c2" d="M225 125h5M345 125h5M225 126h5M345 126h5M225 127h5M345 127h5M225 128h5M345 128h5M225 129h5M345 129h5M80 130h5M80 131h5M80 132h5M80 133h5M80 134h5" />
<path stroke="#4d3f30" d="M220 130h15M340 130h10M440 130h15M220 131h15M340 131h10M440 131h15M220 132h15M340 132h10M440 132h15M220 133h15M340 133h10M440 133h15M220 134h15M340 134h10M440 134h15M75 135h10M220 135h20M340 135h15M440 135h15M75 136h10M220 136h20M340 136h15M440 136h15M75 137h10M220 137h20M340 137h15M440 137h15M75 138h10M220 138h20M340 138h15M440 138h15M75 139h10M220 139h20M340 139h15M440 139h15M70 140h5M80 140h15M215 140h5M225 140h15M340 140h15M440 140h15M460 140h5M70 141h5M80 141h15M215 141h5M225 141h15M340 141h15M440 141h15M460 141h5M70 142h5M80 142h15M215 142h5M225 142h15M340 142h15M440 142h15M460 142h5M70 143h5M80 143h15M215 143h5M225 143h15M340 143h15M440 143h15M460 143h5M70 144h5M80 144h15M215 144h5M225 144h15M340 144h15M440 144h15M460 144h5M70 145h10M85 145h10M215 145h5M226 145h14M335 145h5M345 145h10M440 145h15M460 145h5M70 146h10M85 146h10M215 146h5M230 146h10M335 146h5M345 146h10M440 146h15M460 146h5M70 147h10M85 147h10M215 147h5M230 147h10M335 147h5M345 147h10M440 147h15M460 147h5M70 148h10M85 148h10M215 148h5M230 148h10M335 148h5M345 148h10M440 148h15M460 148h5M70 149h10M85 149h10M215 149h5M230 149h10M335 149h5M345 149h10M440 149h15M460 149h5M70 150h10M90 150h10M210 150h10M235 150h5M335 150h5M350 150h5M440 150h10M455 150h15M70 151h10M90 151h10M210 151h10M235 151h5M335 151h5M349 151h6M440 151h10M455 151h15M70 152h10M90 152h10M210 152h10M235 152h5M335 152h5M349 152h6M440 152h10M455 152h15M70 153h10M90 153h10M210 153h10M235 153h5M335 153h5M349 153h6M440 153h10M455 153h15M70 154h10M90 154h10M210 154h10M235 154h5M335 154h5M349 154h6M440 154h10M455 154h15M70 155h5M95 155h10M210 155h10M235 155h5M335 155h5M349 155h11M440 155h10M460 155h10M70 156h5M95 156h10M210 156h10M235 156h5M335 156h5M350 156h10M440 156h10M460 156h10M70 157h5M95 157h10M210 157h10M235 157h5M335 157h5M350 157h10M440 157h10M460 157h10M70 158h5M95 158h10M210 158h10M235 158h5M335 158h5M350 158h10M440 158h10M460 158h10M70 159h5M95 159h10M210 159h10M235 159h5M335 159h5M350 159h10M440 159h10M460 159h10M70 160h5M100 160h5M210 160h5M235 160h5M335 160h5M350 160h10M435 160h10M465 160h5M70 161h5M100 161h5M210 161h5M235 161h5M335 161h5M350 161h10M435 161h10M465 161h5M70 162h5M100 162h5M210 162h5M235 162h5M335 162h5M350 162h10M435 162h10M465 162h5M70 163h5M100 163h5M210 163h5M235 163h5M335 163h5M350 163h10M435 163h10M465 163h5M70 164h5M100 164h5M210 164h5M235 164h5M335 164h5M350 164h10M435 164h10M465 164h5M70 165h5M100 165h5M210 165h5M230 165h10M345 165h15M435 165h10M465 165h5M70 166h5M100 166h5M210 166h5M230 166h10M345 166h15M435 166h10M465 166h5M70 167h5M100 167h5M210 167h5M230 167h10M345 167h15M435 167h10M465 167h5M70 168h5M100 168h5M210 168h5M230 168h10M345 168h15M435 168h10M465 168h5M70 169h5M100 169h5M210 169h5M230 169h10M345 169h15M435 169h10M465 169h5M65 170h5M100 170h5M210 170h5M225 170h10M325 170h5M335 170h20M430 170h10M470 170h5M65 171h5M100 171h5M210 171h5M225 171h10M335 171h20M430 171h10M470 171h5M65 172h5M100 172h5M210 172h5M225 172h10M335 172h20M430 172h10M470 172h5M65 173h5M100 173h5M210 173h5M225 173h10M335 173h20M430 173h10M470 173h5M65 174h5M100 174h5M210 174h5M225 174h10M335 174h20M430 174h10M470 174h5M65 175h5M100 175h5M210 175h5M225 175h5M320 175h20M425 175h10M470 175h5M65 176h5M100 176h5M210 176h5M225 176h5M320 176h20M425 176h10M470 176h5M65 177h5M100 177h5M210 177h5M225 177h5M320 177h20M425 177h10M470 177h5M65 178h5M100 178h5M210 178h5M225 178h5M320 178h20M425 178h10M470 178h5M65 179h5M100 179h5M210 179h5M225 179h5M320 179h20M425 179h10M470 179h5M65 180h5M100 180h5M210 180h5M220 180h5M320 180h10M335 180h5M420 180h10M470 180h5M65 181h5M100 181h5M210 181h5M220 181h5M320 181h10M335 181h5M420 181h10M470 181h5M65 182h5M100 182h5M210 182h5M220 182h5M320 182h10M335 182h5M420 182h10M470 182h5M65 183h5M100 183h5M210 183h5M220 183h5M320 183h10M335 183h5M420 183h10M470 183h5M65 184h5M100 184h5M210 184h5M220 184h5M320 184h10M335 184h5M420 184h10M470 184h5M60 185h5M100 185h5M215 185h5M335 185h5M415 185h10M475 185h5M60 186h5M100 186h5M215 186h5M335 186h5M415 186h10M475 186h5M60 187h5M100 187h5M215 187h5M335 187h5M415 187h10M475 187h5M60 188h5M100 188h5M215 188h5M335 188h5M415 188h10M475 188h5M60 189h5M100 189h5M215 189h5M335 189h5M415 189h10M475 189h5M60 190h5M100 190h5M335 190h5M475 190h5M60 191h5M100 191h5M335 191h5M475 191h5M60 192h5M100 192h5M335 192h5M475 192h5M60 193h5M100 193h5M335 193h5M475 193h5M60 194h5M100 194h5M335 194h5M475 194h5M60 195h5M100 195h5M335 195h5M475 195h5M60 196h5M100 196h5M335 196h5M475 196h5M60 197h5M100 197h5M335 197h5M475 197h5M60 198h5M100 198h5M335 198h5M475 198h5M60 199h5M100 199h5M335 199h5M475 199h5M55 200h5M210 200h5M335 200h5M475 200h5M55 201h5M210 201h5M335 201h5M475 201h5M55 202h5M210 202h5M335 202h5M475 202h5M55 203h5M210 203h5M335 203h5M475 203h5M55 204h5M210 204h5M335 204h5M475 204h5M55 205h5M210 205h5M335 205h5M55 206h5M210 206h5M335 206h5M55 207h5M210 207h5M335 207h5M55 208h5M210 208h5M335 208h5M55 209h5M210 209h5M335 209h5M335 210h5M335 211h5M335 212h5M335 213h5M335 214h5" />
<path stroke="#3f3428" d="M435 130h5M455 130h5M435 131h5M455 131h5M435 132h5M455 132h5M435 133h5M455 133h5M435 134h5M455 134h5M215 135h5M435 135h5M455 135h5M215 136h5M435 136h5M455 136h5M215 137h5M435 137h5M455 137h5M215 138h5M435 138h5M455 138h5M215 139h5M435 139h5M455 139h5M65 140h5M75 140h5M220 140h5M330 140h10M435 140h5M455 140h5M65 141h5M75 141h5M220 141h5M330 141h10M435 141h5M455 141h5M65 142h5M75 142h5M220 142h5M330 142h10M435 142h5M455 142h5M65 143h5M75 143h5M220 143h5M330 143h10M435 143h5M455 143h5M65 144h5M75 144h5M220 144h5M330 144h10M435 144h5M455 144h5M65 145h5M80 145h5M225 145h1M330 145h5M340 145h5M435 145h5M455 145h5M65 146h5M80 146h5M225 146h5M330 146h5M340 146h5M435 146h5M455 146h5M65 147h5M80 147h5M225 147h5M330 147h5M340 147h5M435 147h5M455 147h5M65 148h5M80 148h5M225 148h5M330 148h5M340 148h5M435 148h5M455 148h5M65 149h5M80 149h5M225 149h5M330 149h5M340 149h5M435 149h5M455 149h5M65 150h5M85 150h5M205 150h5M230 150h5M330 150h5M345 150h5M435 150h5M450 150h5M65 151h5M85 151h5M205 151h5M230 151h5M330 151h5M345 151h4M435 151h5M450 151h5M65 152h5M85 152h5M205 152h5M230 152h5M330 152h5M345 152h4M435 152h5M450 152h5M65 153h5M85 153h5M205 153h5M230 153h5M330 153h5M345 153h4M435 153h5M450 153h5M65 154h5M85 154h5M205 154h5M230 154h5M330 154h5M345 154h4M435 154h5M450 154h5M65 155h5M90 155h5M205 155h5M230 155h5M330 155h5M345 155h4M435 155h5M455 155h5M65 156h5M90 156h5M205 156h5M230 156h5M330 156h5M345 156h5M435 156h5M455 156h5M65 157h5M90 157h5M205 157h5M230 157h5M330 157h5M345 157h5M435 157h5M455 157h5M65 158h5M90 158h5M205 158h5M230 158h5M330 158h5M345 158h5M435 158h5M455 158h5M65 159h5M90 159h5M205 159h5M230 159h5M330 159h5M345 159h5M435 159h5M455 159h5M65 160h5M95 160h5M205 160h5M230 160h5M330 160h5M345 160h5M430 160h5M460 160h5M65 161h5M95 161h5M205 161h5M230 161h5M330 161h5M345 161h5M430 161h5M460 161h5M65 162h5M95 162h5M205 162h5M230 162h5M330 162h5M345 162h5M430 162h5M460 162h5M65 163h5M95 163h5M205 163h5M230 163h5M330 163h5M345 163h5M430 163h5M460 163h5M65 164h5M95 164h5M205 164h5M230 164h5M330 164h5M345 164h5M430 164h5M460 164h5M65 165h5M95 165h5M205 165h5M225 165h5M330 165h15M430 165h5M460 165h5M65 166h5M95 166h5M205 166h5M225 166h5M330 166h15M430 166h5M460 166h5M65 167h5M95 167h5M205 167h5M225 167h5M330 167h15M430 167h5M460 167h5M65 168h5M95 168h5M205 168h5M225 168h5M330 168h15M430 168h5M460 168h5M65 169h5M95 169h5M205 169h5M225 169h5M330 169h15M430 169h5M460 169h5M60 170h5M95 170h5M205 170h5M220 170h5M320 170h5M330 170h5M425 170h5M465 170h5M60 171h5M95 171h5M205 171h5M220 171h5M320 171h15M425 171h5M465 171h5M60 172h5M95 172h5M205 172h5M220 172h5M320 172h15M425 172h5M465 172h5M60 173h5M95 173h5M205 173h5M220 173h5M320 173h15M425 173h5M465 173h5M60 174h5M95 174h5M205 174h5M220 174h5M320 174h15M425 174h5M465 174h5M60 175h5M95 175h5M205 175h5M220 175h5M420 175h5M465 175h5M60 176h5M95 176h5M205 176h5M220 176h5M420 176h5M465 176h5M60 177h5M95 177h5M205 177h5M220 177h5M420 177h5M465 177h5M60 178h5M95 178h5M205 178h5M220 178h5M420 178h5M465 178h5M60 179h5M95 179h5M205 179h5M220 179h5M420 179h5M465 179h5M60 180h5M95 180h5M205 180h5M215 180h5M330 180h5M410 180h10M465 180h5M60 181h5M95 181h5M205 181h5M215 181h5M330 181h5M410 181h10M465 181h5M60 182h5M95 182h5M205 182h5M215 182h5M330 182h5M410 182h10M465 182h5M60 183h5M95 183h5M205 183h5M215 183h5M330 183h5M410 183h10M465 183h5M60 184h5M95 184h5M205 184h5M215 184h5M330 184h5M410 184h10M465 184h5M55 185h5M95 185h5M205 185h5M330 185h5M470 185h5M55 186h5M95 186h5M205 186h5M330 186h5M470 186h5M55 187h5M95 187h5M205 187h5M330 187h5M470 187h5M55 188h5M95 188h5M205 188h5M330 188h5M470 188h5M55 189h5M95 189h5M205 189h5M330 189h5M470 189h5M55 190h5M95 190h5M205 190h5M330 190h5M470 190h5M55 191h5M95 191h5M205 191h5M330 191h5M470 191h5M55 192h5M95 192h5M205 192h5M330 192h5M470 192h5M55 193h5M95 193h5M205 193h5M330 193h5M470 193h5M55 194h5M95 194h5M205 194h5M330 194h5M470 194h5M55 195h5M95 195h5M205 195h5M330 195h5M470 195h5M55 196h5M95 196h5M205 196h5M330 196h5M470 196h5M55 197h5M95 197h5M205 197h5M330 197h5M470 197h5M55 198h5M95 198h5M205 198h5M330 198h5M470 198h5M55 199h5M95 199h5M205 199h5M330 199h5M470 199h5M50 200h5M205 200h5M330 200h5M470 200h5M50 201h5M205 201h5M330 201h5M470 201h5M50 202h5M205 202h5M330 202h5M470 202h5M50 203h5M205 203h5M330 203h5M470 203h5M50 204h5M205 204h5M330 204h5M470 204h5M50 205h5M205 205h5M330 205h5M50 206h5M205 206h5M330 206h5M50 207h5M205 207h5M330 207h5M50 208h5M205 208h5M330 208h5M50 209h5M205 209h5M330 209h5M330 210h5M330 211h5M330 212h5M330 213h5M330 214h5" />
<path stroke="#3e3e3e" d="M375 210h95M375 211h95M375 212h95M375 213h95M375 214h95M5 215h45M75 215h10M145 215h60M5 216h45M75 216h10M145 216h60M5 217h45M75 217h10M145 217h60M5 218h45M75 218h10M145 218h60M5 219h45M75 219h10M145 219h60M265 220h65M265 221h65M265 222h65M265 223h65M265 224h65" />
</svg>