<svg xmlns="http://www.w3.org/2000/svg" viewBox="0 -0.5 190 260" shape-rendering="crispEdges">
<metadata>Made with Pixels to Svg http://codepen.io/shshaw/pen/XbxvNj</metadata>
<path stroke="#ffffff" d="M189 0h1M189 1h1" />
<path stroke="#685a44" d="M32 4h8M126 4h6M32 5h8M126 5h6M32 6h8M126 6h6M32 7h8M126 7h6M32 8h8M126 8h6M32 9h8M126 9h6M32 10h8M126 10h6M32 11h8M126 11h6M32 12h8M32 13h8M32 14h8M32 15h8M32 16h8M32 17h8M32 18h8M32 19h8M32 20h8M32 21h8M32 22h8M32 23h8M32 24h8M32 25h8M32 26h8M32 27h8M32 28h8M32 29h8M32 30h8M32 31h8M32 32h8M32 33h8M32 34h8M124 34h8M32 35h8M124 35h8M32 36h8M124 36h8M32 37h8M124 37h8M32 38h8M124 38h8M32 39h8M124 39h8M124 40h8M124 41h8M124 42h8M124 43h8M124 44h8M124 45h8M32 48h8M32 49h8M32 50h8M32 51h8M32 52h8M32 53h8M32 54h8M32 55h8M32 56h8M126 56h6M32 57h8M126 57h6M32 58h8M126 58h6M32 59h8M126 59h6M32 60h8M126 60h6M32 61h8M126 61h6M32 62h8M118 62h14M32 63h8M118 63h14M32 64h8M118 64h14M32 65h8M118 65h14M32 66h8M118 66h14M32 67h8M118 67h14M40 68h7M118 68h14M40 69h7M118 69h14M40 70h7M126 70h6M40 71h7M126 71h6M40 72h7M126 72h6M40 73h7M126 73h6M40 74h7M126 74h6M40 75h7M126 75h6M40 76h7M118 76h8M40 77h7M118 77h8M40 78h7M118 78h8M40 79h7M118 79h8M40 80h7M118 80h8M40 81h7M118 81h8M32 82h15M118 82h8M32 83h15M118 83h8M32 84h15M118 84h8M32 85h15M118 85h8M32 86h15M118 86h8M32 87h15M118 87h8M32 88h15M118 88h8M32 89h15M118 89h8M40 90h7M126 90h6M40 91h7M126 91h6M40 92h7M126 92h6M40 93h7M126 93h6M40 94h7M126 94h6M40 95h7M126 95h6M40 96h7M118 96h14M40 97h7M118 97h14M118 98h14M118 99h14M118 100h14M118 101h14M118 102h14M118 103h14M40 104h7M124 104h8M40 105h7M124 105h8M40 106h7M124 106h8M40 107h7M124 107h8M40 108h7M124 108h8M40 109h7M124 109h8M40 110h7M124 110h8M124 111h8M163 111h5M163 112h5M163 113h5M163 114h5M163 115h5M163 116h5M163 117h5M163 118h5M163 119h5M163 120h5M163 121h5M163 122h5M163 123h5M163 124h5M163 125h5M163 126h5M160 127h8M160 128h8M160 129h8M160 130h8M160 131h8M138 132h8M160 132h8M138 133h8M160 133h8M138 134h8M160 134h8M138 135h8M160 135h8M138 136h8M160 136h8M138 137h8M160 137h8M138 138h30M138 139h30M138 140h30M138 141h30M138 142h30M138 143h30M138 144h30M138 145h30M138 146h8M160 146h8M138 147h8M160 147h8M160 148h8M160 149h8M160 150h8M160 151h8M160 152h8M160 153h8M40 160h8M124 160h8M146 160h8M40 161h8M124 161h8M146 161h8M40 162h8M124 162h8M146 162h8M40 163h8M124 163h8M146 163h8M40 164h8M124 164h8M146 164h8M40 165h8M124 165h8M146 165h8M40 166h8M124 166h8M146 166h8M40 167h8M124 167h8M146 167h8M48 188h6M132 188h6M32 189h8M48 189h6M132 189h6M32 190h8M48 190h6M132 190h6M32 191h8M48 191h6M132 191h6M32 192h8M48 192h6M132 192h6M32 193h8M48 193h6M132 193h6M32 194h8M48 194h6M132 194h6M32 195h8M48 195h6M132 195h6M48 196h56M110 196h8M132 196h6M48 197h56M110 197h8M132 197h6M48 198h56M110 198h8M132 198h6M48 199h56M110 199h8M132 199h6M48 200h56M110 200h8M132 200h6M48 201h56M110 201h8M132 201h6M48 202h56M110 202h8M132 202h6M32 203h8M110 203h8M132 203h6M32 204h8M138 204h8M32 205h8M138 205h8M32 206h8M138 206h8M32 207h8M138 207h8M32 208h8M138 208h8M32 209h8M138 209h8M32 210h8M138 210h8M32 211h8M138 211h8M32 212h8M138 212h8M32 213h8M138 213h8M32 214h8M138 214h8M32 215h8M138 215h8M32 216h8M138 216h8M32 217h8M138 217h8M32 218h8M118 218h7M138 218h8M32 219h8M118 219h7M138 219h8M32 220h8M118 220h7M138 220h8M32 221h8M118 221h7M138 221h8M32 222h8M118 222h7M138 222h8M32 223h8M118 223h7M138 223h8M32 224h8M118 224h7M138 224h8M32 225h8M118 225h7M138 225h8M32 226h8M118 226h7M138 226h8M32 227h8M118 227h7M138 227h8M32 228h8M118 228h7M138 228h8M32 229h8M118 229h7M138 229h8M32 230h8M118 230h7M138 230h8M32 231h8M118 231h7M138 231h8M118 232h7M138 232h8M118 233h7M138 233h8M118 234h7M138 234h8M118 235h7M138 235h8M118 236h7M138 236h8M118 237h7M138 237h8M32 238h8M118 238h7M138 238h8M32 239h8M118 239h7M138 239h8M32 240h8M118 240h7M138 240h8M32 241h8M118 241h7M138 241h8M32 242h8M118 242h7M138 242h8M32 243h8M118 243h7M138 243h8M32 244h8M118 244h7M138 244h8M32 245h8M118 245h7M138 245h8M118 246h7M138 246h8M118 247h7M138 247h8M118 248h7M138 248h8M118 249h7M138 249h8M118 250h7M138 250h8M118 251h7M138 251h8M118 252h7M138 252h8M118 253h7M138 253h8M118 254h7M138 254h8M118 255h7M138 255h8M118 256h7M138 256h8M118 257h7M138 257h8M118 258h7M138 258h8M118 259h7M138 259h8" />
<path stroke="#6b7071" d="M40 4h14" />
<path stroke="#36626b" d="M54 4h1M54 5h1M54 7h1" />
<path stroke="#4c4232" d="M118 4h8M118 5h8M118 6h8M118 7h8M118 8h8M118 9h8M118 10h8M118 11h8M118 12h14M118 13h14M118 14h14M118 15h14M118 16h14M118 17h14M118 18h14M118 19h14M118 20h14M118 21h14M118 22h14M118 23h14M118 24h14M118 25h14M118 26h14M118 27h14M118 28h14M118 29h14M118 30h14M118 31h14M118 32h14M118 33h14M118 34h6M118 35h6M118 36h6M118 37h6M118 38h6M118 39h6M32 40h8M118 40h6M32 41h8M118 41h6M32 42h8M118 42h6M32 43h8M118 43h6M32 44h8M118 44h6M32 45h8M118 45h6M32 46h8M118 46h6M32 47h8M118 47h6M118 48h6M118 49h6M118 50h6M118 51h6M118 52h6M118 53h6M118 54h6M118 55h6M118 56h8M118 57h8M118 58h8M118 59h8M118 60h8M118 61h8M32 68h8M32 69h8M32 70h8M32 71h8M32 72h8M32 73h8M32 74h8M32 75h8M32 76h8M32 77h8M32 78h8M32 79h8M32 80h8M32 81h8M32 90h8M32 91h8M32 92h8M32 93h8M32 94h8M32 95h8M32 96h8M32 97h8M32 98h8M32 99h8M32 100h8M32 101h8M32 102h8M32 103h8M32 104h8M32 105h8M32 106h8M32 107h8M32 108h8M32 109h8M32 110h8M32 111h8M32 112h8M32 113h8M32 114h8M32 115h8M32 116h8M32 117h8M118 124h14M118 125h14M118 126h14M118 127h14M146 127h14M118 128h14M146 128h14M118 129h14M146 129h14M118 130h14M146 130h14M118 131h14M146 131h14M118 132h20M146 132h14M118 133h20M146 133h14M118 134h20M146 134h14M118 135h20M146 135h14M118 136h20M146 136h14M118 137h20M146 137h14M118 138h6M118 139h6M118 140h6M118 141h6M118 142h6M118 143h6M118 144h6M118 145h6M118 146h6M118 147h6M118 148h6M138 148h8M118 149h6M138 149h8M118 150h6M138 150h8M118 151h6M138 151h8M118 152h6M138 152h8M118 153h6M138 153h8M32 154h15M118 154h6M138 154h8M32 155h15M118 155h6M138 155h8M32 156h15M118 156h6M138 156h8M32 157h15M118 157h6M138 157h8M32 158h15M118 158h6M138 158h8M32 159h15M118 159h6M138 159h8M32 160h8M138 160h8M32 161h8M138 161h8M32 162h8M138 162h8M32 163h8M138 163h8M32 164h8M138 164h8M32 165h8M138 165h8M32 166h8M138 166h8M32 167h8M138 167h8M32 168h8M32 169h8M32 170h8M32 171h8M32 172h8M32 173h8M32 174h8M32 175h8M32 176h8M32 177h8M32 178h8M32 179h8M32 180h8M32 181h8M32 182h8M32 183h8M32 184h8M32 185h8M32 186h8M32 187h8M32 188h8M32 196h8M32 197h8M32 198h8M32 199h8M32 200h8M32 201h8M32 202h8M110 204h15M110 205h15M110 206h15M110 207h15M48 208h6M110 208h15M48 209h6M110 209h15M48 210h6M110 210h15M48 211h6M110 211h15M48 212h6M110 212h15M48 213h6M110 213h15M48 214h6M110 214h15M48 215h6M110 215h15M48 216h6M110 216h15M48 217h6M110 217h8M48 218h6M110 218h8M48 219h6M110 219h8M48 220h6M110 220h8M48 221h6M110 221h8M48 222h6M110 222h8M48 223h6M110 223h8M48 224h6M110 224h8M48 225h6M110 225h8M48 226h6M110 226h8M48 227h6M110 227h8M48 228h6M110 228h8M48 229h6M110 229h8M48 230h6M110 230h8M48 231h6M110 231h8M32 232h8M48 232h6M110 232h8M32 233h8M48 233h6M110 233h8M32 234h8M48 234h6M110 234h8M32 235h8M48 235h6M110 235h8M32 236h8M48 236h6M110 236h8M32 237h8M48 237h6M110 237h8M48 238h6M110 238h8M48 239h6M110 239h8M48 240h6M110 240h8M48 241h6M110 241h8M48 242h6M110 242h8M48 243h6M110 243h8M48 244h6M110 244h8M48 245h6M110 245h8M32 246h8M48 246h6M110 246h8M32 247h8M48 247h6M110 247h8M32 248h8M48 248h6M110 248h8M32 249h8M48 249h6M110 249h8M32 250h8M48 250h6M110 250h8M32 251h8M48 251h6M110 251h8M32 252h8M48 252h6M110 252h8M32 253h8M48 253h6M110 253h8M32 254h8M48 254h6M110 254h8M32 255h8M48 255h6M110 255h8M32 256h8M48 256h6M110 256h8M32 257h8M48 257h6M110 257h8M32 258h8M48 258h6M110 258h8M32 259h8M48 259h6M110 259h8" />
<path stroke="#9c8765" d="M132 4h8M40 5h14M132 5h8M40 6h14M132 6h8M40 7h14M132 7h8M40 8h14M132 8h8M40 9h14M132 9h8M40 10h14M132 10h8M40 11h14M132 11h8M40 12h14M132 12h8M40 13h14M132 13h8M40 14h14M132 14h8M40 15h14M132 15h8M40 16h14M132 16h8M40 17h14M132 17h8M40 18h14M132 18h8M40 19h14M132 19h8M40 20h14M132 20h8M40 21h14M132 21h8M40 22h14M132 22h8M40 23h14M132 23h8M40 24h14M132 24h8M40 25h14M132 25h8M40 26h14M132 26h8M40 27h14M132 27h8M40 28h14M132 28h8M40 29h14M132 29h8M40 30h14M132 30h8M40 31h14M132 31h8M40 32h14M132 32h8M40 33h14M132 33h8M40 34h14M132 34h8M40 35h14M132 35h8M40 36h14M132 36h8M40 37h14M132 37h8M40 38h14M132 38h8M40 39h14M132 39h8M40 40h14M40 41h14M40 42h14M40 43h14M40 44h14M40 45h14M40 46h14M124 46h8M40 47h7M124 47h8M40 48h7M124 48h8M40 49h7M124 49h8M40 50h7M124 50h8M40 51h7M124 51h8M40 52h7M124 52h8M40 53h7M124 53h8M40 54h7M124 54h8M40 55h7M124 55h8M40 56h7M40 57h7M40 58h7M40 59h7M40 60h7M40 61h7M40 62h7M40 63h7M40 64h7M40 65h7M40 66h7M40 67h7M40 98h7M40 99h7M40 100h7M40 101h7M40 102h7M40 103h7M40 132h8M168 132h7M40 133h8M168 133h7M40 134h8M168 134h7M40 135h8M168 135h7M40 136h8M168 136h7M40 137h8M168 137h7M40 138h8M124 138h8M168 138h7M40 139h8M124 139h8M168 139h7M124 140h8M168 140h7M124 141h8M168 141h7M124 142h8M168 142h7M124 143h8M168 143h7M124 144h8M168 144h7M124 145h8M168 145h7M124 146h8M146 146h8M168 146h7M124 147h8M146 147h8M168 147h7M124 148h8M146 148h8M168 148h7M124 149h8M146 149h8M168 149h7M124 150h8M146 150h8M168 150h7M124 151h8M146 151h8M168 151h7M124 152h8M146 152h8M168 152h7M124 153h8M146 153h8M168 153h7M124 154h8M146 154h8M124 155h8M146 155h8M124 156h8M146 156h8M124 157h8M146 157h8M124 158h8M146 158h8M124 159h8M146 159h8M40 168h8M40 169h8M40 170h8M40 171h8M40 172h8M40 173h8M40 174h8M40 175h8M40 176h8M40 177h8M40 178h8M40 179h8M40 180h8M40 181h8M40 182h8M40 183h8M40 184h8M40 185h8M40 186h8M40 187h8M40 188h8M54 188h78M40 189h8M54 189h78M40 190h8M54 190h78M40 191h8M54 191h78M40 192h8M54 192h78M40 193h8M54 193h78M40 194h8M54 194h78M40 195h8M54 195h78M40 196h8M104 196h6M118 196h14M40 197h8M104 197h6M118 197h14M40 198h8M104 198h6M118 198h14M40 199h8M104 199h6M118 199h14M40 200h8M104 200h6M118 200h14M40 201h8M104 201h6M118 201h14M40 202h8M104 202h6M118 202h14M40 203h8M104 203h6M118 203h14M40 204h8M40 205h8M40 206h8M40 207h8M40 208h8M40 209h8M40 210h8M40 211h8M40 212h8M40 213h8M40 214h8M40 215h8M40 216h8M40 217h8M40 218h8M40 219h8M40 220h8M40 221h8M40 222h8M40 223h8M40 224h8M40 225h8M40 226h8M40 227h8M40 228h8M40 229h8M40 230h8M40 231h8M40 232h8M40 233h8M40 234h8M40 235h8M40 236h8M40 237h8M40 238h8M40 239h8M40 240h8M40 241h8M40 242h8M40 243h8M40 244h8M40 245h8M40 246h8M40 247h8M40 248h8M40 249h8M40 250h8M40 251h8M40 252h8M40 253h8M40 254h8M40 255h8M40 256h8M40 257h8M40 258h8M40 259h8" />
<path stroke="#45686e" d="M54 6h1M54 8h1M54 9h1M54 10h1" />
<path stroke="#465a57" d="M54 11h1" />
<path stroke="#dd0e26" d="M54 12h57M54 13h57M54 14h57M54 15h57M54 16h57M54 17h57M54 18h57M54 19h57M54 20h57M54 21h57M54 22h57M54 23h57M54 24h57M54 25h57M54 26h57M54 27h57M54 28h57M54 29h57M54 30h57M54 31h57M54 32h57M54 33h57M54 34h57M54 35h57M54 36h57M54 37h57M54 38h57M54 39h57M54 40h57M54 41h57M54 42h57M54 43h57M54 44h57M54 45h57M54 46h19M93 46h18M47 47h26M93 47h18M47 48h17M93 48h18M47 49h17M93 49h18M47 50h17M93 50h18M47 51h17M93 51h18M47 52h13M98 52h13M47 53h13M98 53h13M47 54h13M98 54h13M47 55h13M98 55h13M47 56h13M98 56h13M47 57h13M98 57h13M47 58h13M98 58h13M47 59h13M98 59h13M47 60h13M98 60h13M47 61h7M98 61h13M47 62h7M98 62h13M47 63h7M98 63h13M47 64h7M98 64h13M47 65h7M98 65h13M47 66h7M98 66h13M47 67h7M98 67h13M47 68h7M98 68h13M47 69h7M98 69h13M47 70h7M98 70h13M47 71h7M98 71h13M47 72h7M98 72h13M47 73h7M98 73h13M47 74h7M98 74h13M47 75h7M98 75h13M47 76h7M98 76h14M47 77h7M98 77h14M47 78h7M98 78h14M47 79h7M98 79h14M47 80h7M98 80h14M47 81h7M98 81h14M47 82h7M98 82h14M47 83h7M98 83h14M47 84h7M98 84h14M47 85h7M98 85h14M47 86h7M98 86h14M47 87h7M98 87h14M47 88h7M98 88h14M47 89h7M98 89h14" />
<path stroke="#8a0e26" d="M111 12h7M111 13h7M111 14h7M111 15h7M111 16h7M111 17h7M111 18h7M111 19h7M111 20h7M111 21h7M111 22h7M111 23h7M111 24h7M111 25h7M111 26h7M111 27h7M111 28h7M111 29h7M111 30h7M111 31h7M111 32h7M111 33h7M111 34h7M111 35h7M111 36h7M111 37h7M111 38h7M111 39h7M111 40h7M111 41h7M111 42h7M111 43h7M111 44h7M111 45h7M111 46h7M111 47h7M64 48h9M111 48h7M64 49h9M111 49h7M64 50h9M111 50h7M64 51h9M111 51h7M60 52h8M111 52h7M60 53h8M111 53h7M60 54h8M111 54h7M60 55h8M111 55h7M60 56h8M111 56h7M60 57h8M111 57h7M60 58h8M111 58h7M60 59h8M111 59h7M60 60h8M111 60h7M54 61h14M111 61h7M54 62h14M111 62h7M54 63h14M111 63h7M54 64h14M111 64h7M54 65h14M111 65h7M54 66h14M111 66h7M54 67h14M111 67h7M54 68h14M111 68h7M54 69h14M111 69h7M54 70h14M111 70h7M54 71h14M111 71h7M54 72h14M111 72h7M54 73h14M111 73h7M54 74h14M111 74h7M54 75h14M54 76h14M54 77h14M54 78h14M54 79h14M54 80h14M54 81h14M54 82h19M54 83h19M54 84h19M54 85h19M54 86h19M54 87h14M54 88h14M54 89h14M47 90h15M112 90h6M47 91h15M112 91h6M47 92h15M112 92h6M47 93h15M112 93h6M47 94h15M112 94h6M47 95h15M112 95h6M47 96h7M112 96h6M47 97h7M112 97h6M47 98h7M110 98h8M47 99h7M110 99h8M47 100h7M110 100h8M47 101h7M110 101h8M47 102h7M110 102h8M47 103h7M110 103h8" />
<path stroke="#2e170f" d="M73 46h20M73 47h20M73 48h20M73 49h20M73 50h20M73 51h20M68 52h30M68 53h30M68 54h30M68 55h30M68 56h30M68 57h30M68 58h30M68 59h30M68 60h30M68 61h30M68 62h10M68 63h10M68 64h10M68 65h10M72 66h6M72 67h6M72 68h6M72 69h6M72 70h6M72 71h6M72 72h6M72 73h6M72 74h6M72 75h6M72 76h6M72 77h6M78 78h6M78 79h6M78 80h6M78 81h6" />
<path stroke="#a98968" d="M78 62h20M78 63h20M78 64h20M78 65h20M68 66h4M78 66h4M68 67h4M78 67h4M68 68h4M78 68h4M68 69h4M78 69h4M68 70h4M78 70h4M68 71h4M78 71h4M68 72h4M78 72h4M68 73h4M78 73h4M68 74h4M78 74h4M68 75h4M78 75h4M68 76h4M78 76h4M68 77h4M78 77h4" />
<path stroke="#b9a181" d="M82 66h16M82 67h16M82 68h16M82 69h16M82 70h16M82 71h16M82 72h16M82 73h16M82 74h16M82 75h16M82 76h16M82 77h16" />
<path stroke="#c0997d" d="M118 70h8M118 71h8M118 72h8M118 73h8M118 74h8M118 75h8M126 76h6M126 77h6M126 78h6M126 79h6M126 80h6M126 81h6M126 82h6M126 83h6M126 84h6M126 85h6M126 86h6M126 87h6M126 88h6M126 89h6M132 90h8M132 91h8M132 92h8M132 93h8M132 94h8M132 95h8M132 96h8M146 96h8M132 97h8M146 97h8M146 98h8M146 99h8M146 100h8M146 101h8M146 102h8M146 103h8M154 104h6M154 105h6M154 106h6M154 107h6" />
<path stroke="#512a32" d="M111 75h7" />
<path stroke="#af8d76" d="M112 76h6M112 77h6M112 78h6M112 79h6M112 80h6M112 81h6M112 82h6M112 83h6M112 84h6M112 85h6M112 86h6M112 87h6M112 88h6M112 89h6M118 90h8M118 91h8M118 92h8M118 93h8M118 94h8M118 95h8M76 96h8M76 97h8M76 98h8M76 99h8M76 100h8M76 101h8M76 102h8M76 103h8" />
<path stroke="#cdaf86" d="M68 78h4M68 79h4M68 80h4M68 81h4" />
<path stroke="#483018" d="M72 78h6M94 78h4M72 79h6M94 79h4M72 80h6M94 80h4M72 81h6M94 81h4M78 82h20M78 83h20M78 84h20M78 85h20M78 86h20M78 87h20M82 88h16M82 89h16M82 90h16M82 91h16" />
<path stroke="#f6f9f9" d="M84 78h10M84 79h10M84 80h10M84 81h10" />
<path stroke="#997050" d="M73 82h5M73 83h5M73 84h5M73 85h5M73 86h5M73 87h5M73 88h9M73 89h9M73 90h9M73 91h9M78 92h6M78 93h6M78 94h6M78 95h6" />
<path stroke="#060101" d="M68 87h5M68 88h5M68 89h5M68 90h5M68 91h5M73 92h5M88 92h5M73 93h5M88 93h5M73 94h5M88 94h5M73 95h5M88 95h5M88 96h5" />
<path stroke="#01162f" d="M62 90h6M62 91h6M62 92h6M93 92h5M62 93h6M93 93h5M62 94h6M93 94h5M62 95h6M93 95h5M54 96h14M93 96h5M54 97h14M54 98h14M54 99h14M54 100h14M54 101h14M54 102h14M54 103h14M47 104h15M98 104h26M47 105h15M98 105h26M47 106h15M98 106h26M47 107h15M98 107h26M47 108h15M98 108h26M47 109h15M98 109h26M47 110h15M98 110h26M40 111h22M98 111h26M146 111h17M40 112h22M98 112h40M146 112h17M40 113h22M98 113h40M146 113h17M40 114h22M98 114h40M146 114h17M40 115h22M98 115h40M146 115h17M40 116h22M98 116h40M146 116h17M40 117h22M98 117h40M146 117h17M26 118h42M98 118h65M26 119h42M98 119h65M26 120h42M98 120h65M26 121h42M98 121h65M26 122h42M98 122h65M26 123h42M98 123h65M26 124h42M98 124h12M146 124h17M26 125h42M98 125h12M146 125h17M20 126h48M98 126h12M146 126h17M20 127h48M98 127h12M20 128h48M98 128h12M20 129h48M98 129h12M20 130h48M98 130h12M20 131h48M98 131h12M32 132h8M54 132h14M98 132h12M32 133h8M54 133h14M98 133h12M32 134h8M54 134h14M98 134h12M32 135h8M54 135h14M98 135h12M32 136h8M54 136h14M98 136h12M32 137h8M54 137h14M98 137h12M32 138h8M54 138h14M98 138h12M32 139h8M54 139h14M98 139h12M54 140h21M96 140h14M54 141h21M96 141h14M54 142h21M96 142h14M54 143h21M96 143h14M54 144h21M96 144h14M54 145h21M96 145h14M62 146h13M96 146h14M62 147h13M96 147h14M62 148h13M96 148h22M62 149h13M96 149h22M62 150h13M96 150h22M62 151h13M96 151h22M62 152h13M104 152h14M62 153h13M104 153h14M68 154h14M104 154h14M68 155h14M104 155h14M68 156h14M104 156h14M68 157h14M104 157h14M68 158h14M104 158h14M68 159h14M104 159h14M104 160h20M104 161h20M104 162h20M104 163h20M104 164h20M104 165h20M104 166h20M104 167h20" />
<path stroke="#b79569" d="M98 90h14M98 91h14M98 92h14M98 93h14M98 94h14M98 95h14M84 96h4M98 96h14M84 97h28M84 98h20M140 98h6M84 99h20M140 99h6M84 100h20M140 100h6M84 101h20M140 101h6M84 102h20M140 102h6M84 103h20M140 103h6M76 104h14M76 105h14M76 106h14M76 107h14M76 108h14M76 109h14" />
<path stroke="#1d3766" d="M68 92h5M68 93h5M68 94h5M68 95h5M68 96h8M68 97h8M68 98h8M68 99h8M68 100h8M68 101h8M68 102h8M68 103h8M90 104h8M90 105h8M90 106h8M90 107h8M90 108h8M90 109h8M76 110h22M76 111h22M76 112h22M76 113h22M76 114h22M76 115h22M76 116h22M76 117h22M68 118h30M68 119h30M68 120h30M68 121h30M68 122h30M68 123h30M68 124h30M68 125h30M68 126h30M68 127h30M68 128h30M68 129h30M68 130h30M68 131h30M68 132h30M68 133h30M68 134h30M68 135h30M68 136h30M68 137h30M68 138h30M68 139h30M75 140h21M75 141h21M75 142h21M75 143h21M75 144h21M75 145h21M75 146h21M75 147h21M75 148h21M75 149h21M75 150h21M75 151h21M75 152h29M75 153h29M82 154h22M82 155h22M82 156h22M82 157h22M82 158h22M82 159h22M90 160h14M90 161h14M90 162h14M90 163h14M90 164h14M90 165h14M90 166h14M90 167h14M96 168h8M96 169h8M96 170h8M96 171h8M96 172h8M96 173h8M96 174h8M96 175h8" />
<path stroke="#9c794b" d="M84 92h4M84 93h4M84 94h4M84 95h4" />
<path stroke="#59122e" d="M104 98h6M104 99h6M104 100h6M104 101h6M104 102h6M104 103h6" />
<path stroke="#947b68" d="M62 104h14M146 104h8M62 105h14M146 105h8M62 106h14M146 106h8M62 107h14M146 107h8M62 108h14M146 108h14M62 109h14M146 109h14M62 110h14M146 110h14M62 111h14M62 112h14M62 113h14M62 114h14M62 115h14M62 116h14M62 117h14" />
<path stroke="#36101f" d="M110 124h8M110 125h8M110 126h8M110 127h8M110 128h8M110 129h8M110 130h8M110 131h8M48 132h6M110 132h8M48 133h6M110 133h8M48 134h6M110 134h8M48 135h6M110 135h8M48 136h6M110 136h8M48 137h6M110 137h8M48 138h6M110 138h8M48 139h6M110 139h8M48 140h6M110 140h8M48 141h6M110 141h8M48 142h6M110 142h8M48 143h6M110 143h8M48 144h6M110 144h8M48 145h6M110 145h8M110 146h8M110 147h8M48 160h6M48 161h6M48 162h6M48 163h6M48 164h6M48 165h6M48 166h6M48 167h6M48 168h12M48 169h12M48 170h12M48 171h12M48 172h12M48 173h12M48 174h12M48 175h12M48 176h26M48 177h26M48 178h26M48 179h26M48 180h26M48 181h26M48 182h90M48 183h90M48 184h90M48 185h90M48 186h90M48 187h90" />
<path stroke="#d8e7e4" d="M26 132h6M26 133h6M26 134h6M26 135h6M26 136h6M26 137h6M26 138h6M26 139h6M20 140h20M20 141h20M20 142h20M20 143h20M20 144h20M20 145h20M20 146h6M20 147h6M20 148h6M20 149h6M20 150h6M20 151h6M20 152h6M20 153h6M20 154h6M20 155h6M20 156h6M20 157h6M20 158h6M20 159h6M20 160h6M20 161h6M20 162h6M20 163h6M20 164h6M20 165h6M20 166h6M20 167h6M20 168h6M20 169h6M20 170h6M20 171h6M20 172h6M20 173h6M20 174h6M20 175h6M20 176h6M20 177h6M20 178h6M20 179h6M20 180h6M20 181h6M146 190h8M146 191h8M146 192h8M146 193h8M146 194h8M146 195h8M146 196h8M146 197h8M146 198h8M146 199h8M146 200h8M146 201h8M146 202h8M146 203h8M146 204h8M146 205h8M146 206h8M146 207h8M146 208h8M146 209h8M146 210h8M146 211h8M146 212h8M146 213h8M146 214h8M146 215h8M146 216h8M146 217h8M146 218h8M146 219h8M146 220h8M146 221h8M146 222h8M146 223h8M146 224h8M146 225h8M146 226h8M146 227h8M146 228h8M146 229h8M146 230h8M146 231h8M146 232h8M146 233h8M146 234h8M146 235h8M146 236h8M146 237h8" />
<path stroke="#7d869a" d="M40 140h8M40 141h8M40 142h8M40 143h8M40 144h8M40 145h8M32 146h22M32 147h22M32 148h22M32 149h22M32 150h22M32 151h22M32 152h22M32 153h22M47 154h13M47 155h13M47 156h13M47 157h13M47 158h13M47 159h13M60 160h10M60 161h10M60 162h10M60 163h10M60 164h10M60 165h10M60 166h10M60 167h10M82 168h8M82 169h8M82 170h8M82 171h8M82 172h8M82 173h8M82 174h8M26 175h6M82 175h8M26 176h6M26 177h6M26 178h6M26 179h6M26 180h6M26 181h6M20 182h6M20 183h6M20 184h6M20 185h6M20 186h6M20 187h6M20 188h6M20 196h6M20 197h6M20 198h6M20 199h6M20 200h6M20 201h6M20 202h6M20 203h6M20 204h6M20 205h6M20 206h6M20 207h6M20 208h6M20 209h6" />
<path stroke="#a4acc4" d="M26 146h6M54 146h8M26 147h6M54 147h8M26 148h6M54 148h8M26 149h6M54 149h8M26 150h6M54 150h8M26 151h6M54 151h8M26 152h6M54 152h8M26 153h6M54 153h8M26 154h6M60 154h8M26 155h6M60 155h8M26 156h6M60 156h8M26 157h6M60 157h8M26 158h6M60 158h8M26 159h6M60 159h8M26 160h6M70 160h20M26 161h6M70 161h20M26 162h6M70 162h20M26 163h6M70 163h20M26 164h6M70 164h20M26 165h6M70 165h20M26 166h6M70 166h20M26 167h6M70 167h20M26 168h6M90 168h6M118 168h36M26 169h6M90 169h6M118 169h36M26 170h6M90 170h6M118 170h36M26 171h6M90 171h6M118 171h36M26 172h6M90 172h6M118 172h36M26 173h6M90 173h6M118 173h36M90 174h6M118 174h36M90 175h6M118 175h36M146 176h8M146 177h8M146 178h8M146 179h8M146 180h8M146 181h8M146 182h8M146 183h8M146 184h8M146 185h8M146 186h8M146 187h8M146 188h8M146 189h8" />
<path stroke="#707a8b" d="M54 160h6M54 161h6M54 162h6M54 163h6M54 164h6M54 165h6M54 166h6M54 167h6M138 182h8M138 183h8M138 184h8M138 185h8M138 186h8M138 187h8M138 188h8M20 189h6M138 189h8M20 190h6M138 190h8M20 191h6M138 191h8M20 192h6M138 192h8M20 193h6M138 193h8M20 194h6M138 194h8M20 195h6M138 195h8M138 196h8M138 197h8M138 198h8M138 199h8M138 200h8M138 201h8M138 202h8M138 203h8" />
<path stroke="#3f3428" d="M60 168h22M104 168h14M60 169h22M104 169h14M60 170h22M104 170h14M60 171h22M104 171h14M60 172h22M104 172h14M60 173h22M104 173h14M60 174h22M104 174h14M60 175h22M104 175h14M74 176h72M74 177h72M74 178h72M74 179h72M74 180h72M74 181h72" />
<path stroke="#98a3b8" d="M26 174h6" />
<path stroke="#2c0414" d="M48 203h6M48 204h6M48 205h6M48 206h6M48 207h6" />
<path stroke="#f4f2f4" d="M20 210h6M20 211h6M20 212h6M20 213h6M20 214h6M20 215h6M20 216h6M20 217h6" />
<path stroke="#615340" d="M118 217h7" />
<path stroke="#040707" d="M20 218h6M20 219h6M20 220h6M20 221h6M20 222h6M20 223h6M20 224h6M20 225h6M20 226h6M20 227h6M20 228h6M20 229h6M20 230h6M20 231h6M146 246h8M146 247h8M146 248h8M146 249h8M146 250h8M146 251h8M146 252h8M146 253h8M146 254h8M146 255h8M146 256h8M146 257h8M146 258h8M146 259h8" />
<path stroke="#959696" d="M146 238h8M146 239h8M146 240h8M146 241h8M146 242h8M146 243h8M146 244h8M146 245h8" />
<path stroke="#1c4f58" d="M189 259h1" />
</svg>